<?xml version="1.0" encoding="utf-8"?>
<!-- Generator: Adobe Illustrator 23.0.6, SVG Export Plug-In . SVG Version: 6.00 Build 0)  -->
<svg version="1.1" id="Layer_1" xmlns="http://www.w3.org/2000/svg" xmlns:xlink="http://www.w3.org/1999/xlink" x="0px" y="0px"
	 viewBox="0 0 740 740" style="enable-background:new 0 0 740 740;" xml:space="preserve">
<style type="text/css">
	.st0{display:none;fill-rule:evenodd;clip-rule:evenodd;fill:#E5E28A;fill-opacity:0.2;}
	.st1{display:none;fill-rule:evenodd;clip-rule:evenodd;fill:#E7E390;fill-opacity:0.2;}
	.st2{display:none;fill-rule:evenodd;clip-rule:evenodd;fill:#E8E596;fill-opacity:0.2;}
	.st3{display:none;fill-rule:evenodd;clip-rule:evenodd;fill:#E4E495;fill-opacity:0.2;}
	.st4{display:none;fill-rule:evenodd;clip-rule:evenodd;fill:#EDE18E;fill-opacity:0.2;}
	.st5{display:none;fill-rule:evenodd;clip-rule:evenodd;fill:#EEE295;fill-opacity:0.2;}
	.st6{display:none;fill-rule:evenodd;clip-rule:evenodd;fill:#F0E2A3;fill-opacity:0.2;}
	.st7{display:none;fill-rule:evenodd;clip-rule:evenodd;fill:#EDE487;fill-opacity:0.2;}
	.st8{display:none;fill-rule:evenodd;clip-rule:evenodd;fill:#EFD580;fill-opacity:0.2;}
	.st9{display:none;fill-rule:evenodd;clip-rule:evenodd;fill:#F1CB82;fill-opacity:0.2;}
	.st10{display:none;fill-rule:evenodd;clip-rule:evenodd;fill:#F1C298;fill-opacity:0.2;}
	.st11{display:none;fill-rule:evenodd;clip-rule:evenodd;fill:#E8B598;fill-opacity:0.2;}
	.st12{display:none;fill-rule:evenodd;clip-rule:evenodd;fill:#FFFFFF;fill-opacity:0.2;}
	.st13{display:none;fill-rule:evenodd;clip-rule:evenodd;fill:#D2DB9B;fill-opacity:0.2;}
	.st14{display:none;fill-rule:evenodd;clip-rule:evenodd;fill:#D5DDA1;fill-opacity:0.2;}
	.st15{display:none;fill-rule:evenodd;clip-rule:evenodd;fill:#C2CCAB;fill-opacity:0.2;}
	.st16{display:none;fill-rule:evenodd;clip-rule:evenodd;fill:#C5CFB0;fill-opacity:0.2;}
	.st17{display:none;fill-rule:evenodd;clip-rule:evenodd;fill:#C9D2B5;fill-opacity:0.2;}
	.st18{display:none;fill-rule:evenodd;clip-rule:evenodd;fill:#A6BBA5;fill-opacity:0.2;}
	.st19{display:none;fill-rule:evenodd;clip-rule:evenodd;fill:#AABEA9;fill-opacity:0.2;}
	.st20{display:none;fill-rule:evenodd;clip-rule:evenodd;fill:#AEC1AD;fill-opacity:0.2;}
	.st21{display:none;fill-rule:evenodd;clip-rule:evenodd;fill:#96B270;fill-opacity:0.2;}
	.st22{display:none;fill-rule:evenodd;clip-rule:evenodd;fill:#99B474;fill-opacity:0.2;}
	.st23{display:none;fill-rule:evenodd;clip-rule:evenodd;fill:#A7B8A8;fill-opacity:0.2;}
	.st24{display:none;fill-rule:evenodd;clip-rule:evenodd;fill:#B49A3D;fill-opacity:0.2;}
	.st25{display:none;fill-rule:evenodd;clip-rule:evenodd;fill:#B28647;fill-opacity:0.2;}
	.st26{display:none;fill-rule:evenodd;clip-rule:evenodd;fill:#CD954D;fill-opacity:0.2;}
	.st27{display:none;fill-rule:evenodd;clip-rule:evenodd;fill:#AF8033;fill-opacity:0.2;}
	.st28{display:none;fill-rule:evenodd;clip-rule:evenodd;fill:#A97D32;fill-opacity:0.2;}
	.st29{display:none;fill-rule:evenodd;clip-rule:evenodd;fill:#B68334;fill-opacity:0.2;}
	.st30{display:none;fill-rule:evenodd;clip-rule:evenodd;fill:#DAA978;fill-opacity:0.2;}
	.st31{display:none;fill-rule:evenodd;clip-rule:evenodd;fill:#D6A680;fill-opacity:0.2;}
	.st32{display:none;fill-rule:evenodd;clip-rule:evenodd;fill:#DFAD70;fill-opacity:0.2;}
	.st33{display:none;fill-rule:evenodd;clip-rule:evenodd;fill:#9D6C56;fill-opacity:0.2;}
	.st34{display:none;fill-rule:evenodd;clip-rule:evenodd;fill:#A16E57;fill-opacity:0.2;}
	.st35{display:none;fill-rule:evenodd;clip-rule:evenodd;fill:#A2765D;fill-opacity:0.2;}
	.st36{display:none;fill-rule:evenodd;clip-rule:evenodd;fill:#9F6652;fill-opacity:0.2;}
	.st37{display:none;fill-rule:evenodd;clip-rule:evenodd;fill:#B9763F;fill-opacity:0.2;}
	.st38{display:none;fill-rule:evenodd;clip-rule:evenodd;fill:#BB6446;fill-opacity:0.2;}
	.st39{display:none;fill-rule:evenodd;clip-rule:evenodd;fill:#BD6A59;fill-opacity:0.2;}
	.st40{display:none;fill-rule:evenodd;clip-rule:evenodd;fill:#BF6E5D;fill-opacity:0.2;}
	.st41{display:none;fill-rule:evenodd;clip-rule:evenodd;fill:#AF643C;fill-opacity:0.2;}
	.st42{display:none;fill-rule:evenodd;clip-rule:evenodd;fill:#92483B;fill-opacity:0.2;}
	.st43{display:none;fill-rule:evenodd;clip-rule:evenodd;fill:#95493D;fill-opacity:0.2;}
	.st44{display:none;fill-rule:evenodd;clip-rule:evenodd;fill:#984A3E;fill-opacity:0.2;}
	.st45{display:none;fill-rule:evenodd;clip-rule:evenodd;fill:#9B4C3F;fill-opacity:0.2;}
	.st46{display:none;fill-rule:evenodd;clip-rule:evenodd;fill:#6D6097;fill-opacity:0.2;}
	.st47{display:none;fill-rule:evenodd;clip-rule:evenodd;fill:#6F629B;fill-opacity:0.2;}
	.st48{display:none;fill-rule:evenodd;clip-rule:evenodd;fill:#72659D;fill-opacity:0.2;}
	.st49{display:none;fill-rule:evenodd;clip-rule:evenodd;fill:#8A4783;fill-opacity:0.2;}
	.st50{display:none;fill-rule:evenodd;clip-rule:evenodd;fill:#8D4885;fill-opacity:0.2;}
	.st51{display:none;fill-rule:evenodd;clip-rule:evenodd;fill:#904A88;fill-opacity:0.2;}
	.st52{display:none;fill-rule:evenodd;clip-rule:evenodd;fill:#934B8B;fill-opacity:0.2;}
	.st53{display:none;fill-rule:evenodd;clip-rule:evenodd;fill:#8B5890;fill-opacity:0.2;}
	.st54{display:none;fill-rule:evenodd;clip-rule:evenodd;fill:#965089;fill-opacity:0.2;}
	.st55{display:none;fill-rule:evenodd;clip-rule:evenodd;fill:#9D4E87;fill-opacity:0.2;}
	.st56{display:none;fill-rule:evenodd;clip-rule:evenodd;fill:#8F5189;fill-opacity:0.2;}
	.st57{display:none;fill-rule:evenodd;clip-rule:evenodd;fill:#92538C;fill-opacity:0.2;}
	.st58{display:none;fill-rule:evenodd;clip-rule:evenodd;fill:#7A608B;fill-opacity:0.2;}
	.st59{display:none;fill-rule:evenodd;clip-rule:evenodd;fill:#7D628D;fill-opacity:0.2;}
	.st60{display:none;fill-rule:evenodd;clip-rule:evenodd;fill:#8B6397;fill-opacity:0.2;}
	.st61{display:none;fill-rule:evenodd;clip-rule:evenodd;fill:#716084;fill-opacity:0.2;}
	.st62{display:none;fill-rule:evenodd;clip-rule:evenodd;fill:#2C5C8D;fill-opacity:0.2;}
	.st63{display:none;fill-rule:evenodd;clip-rule:evenodd;fill:#2D5E90;fill-opacity:0.2;}
	.st64{display:none;fill-rule:evenodd;clip-rule:evenodd;fill:#2E6093;fill-opacity:0.2;}
	.st65{display:none;fill-rule:evenodd;clip-rule:evenodd;fill:#395785;fill-opacity:0.2;}
	.st66{display:none;fill-rule:evenodd;clip-rule:evenodd;fill:#3A5988;fill-opacity:0.2;}
	.st67{display:none;fill-rule:evenodd;clip-rule:evenodd;fill:#54568B;fill-opacity:0.2;}
	.st68{display:none;fill-rule:evenodd;clip-rule:evenodd;fill:#494E70;fill-opacity:0.2;}
	.st69{display:none;fill-rule:evenodd;clip-rule:evenodd;fill:#4A5072;fill-opacity:0.2;}
	.st70{display:none;fill-rule:evenodd;clip-rule:evenodd;fill:#625FA6;fill-opacity:0.2;}
	.st71{display:none;fill-rule:evenodd;clip-rule:evenodd;fill:#393E64;fill-opacity:0.2;}
	.st72{display:none;fill-rule:evenodd;clip-rule:evenodd;fill:#AAA1CC;fill-opacity:0.2;}
	.st73{display:none;fill-rule:evenodd;clip-rule:evenodd;fill:#E0B5C9;fill-opacity:0.2;}
	.st74{display:none;fill-rule:evenodd;clip-rule:evenodd;fill:#E098B0;fill-opacity:0.2;}
	.st75{display:none;fill-rule:evenodd;clip-rule:evenodd;fill:#EB6F94;fill-opacity:0.2;}
	.st76{display:none;fill-rule:evenodd;clip-rule:evenodd;fill:#EC7598;fill-opacity:0.2;}
	.st77{display:none;fill-rule:evenodd;clip-rule:evenodd;fill:#ED7C9D;fill-opacity:0.2;}
	.st78{display:none;fill-rule:evenodd;clip-rule:evenodd;fill:#EE82A2;fill-opacity:0.2;}
	.st79{display:none;fill-rule:evenodd;clip-rule:evenodd;fill:#EA9981;fill-opacity:0.2;}
	.st80{display:none;fill-rule:evenodd;clip-rule:evenodd;fill:#EB9F87;fill-opacity:0.2;}
	.st81{display:none;fill-rule:evenodd;clip-rule:evenodd;fill:#ECA48D;fill-opacity:0.2;}
	.st82{display:none;fill-rule:evenodd;clip-rule:evenodd;fill:#EDA994;fill-opacity:0.2;}
	.st83{display:none;fill-rule:evenodd;clip-rule:evenodd;fill:#EBA984;fill-opacity:0.2;}
	.st84{display:none;fill-rule:evenodd;clip-rule:evenodd;fill:#ECAE8B;fill-opacity:0.2;}
	.st85{display:none;fill-rule:evenodd;clip-rule:evenodd;fill:#EDB291;fill-opacity:0.2;}
	.st86{display:none;fill-rule:evenodd;clip-rule:evenodd;fill:#EEB798;fill-opacity:0.2;}
	.st87{display:none;fill-rule:evenodd;clip-rule:evenodd;fill:#F0C596;fill-opacity:0.2;}
	.st88{display:none;fill-rule:evenodd;clip-rule:evenodd;fill:#F1C99D;fill-opacity:0.2;}
	.st89{display:none;fill-rule:evenodd;clip-rule:evenodd;fill:#ECC099;fill-opacity:0.2;}
	.st90{display:none;fill-rule:evenodd;clip-rule:evenodd;fill:#F5D1A2;fill-opacity:0.2;}
	.st91{display:none;fill-rule:evenodd;clip-rule:evenodd;fill:#F6D5AA;fill-opacity:0.2;}
	.st92{display:none;fill-rule:evenodd;clip-rule:evenodd;fill:#EFD283;fill-opacity:0.2;}
	.st93{display:none;fill-rule:evenodd;clip-rule:evenodd;fill:#F0D48A;fill-opacity:0.2;}
	.st94{display:none;fill-rule:evenodd;clip-rule:evenodd;fill:#EDD54D;fill-opacity:0.2;}
	.st95{display:none;fill-rule:evenodd;clip-rule:evenodd;fill:#EED653;fill-opacity:0.2;}
	.st96{display:none;fill-rule:evenodd;clip-rule:evenodd;fill:#EED859;fill-opacity:0.2;}
	.st97{display:none;fill-rule:evenodd;clip-rule:evenodd;fill:#EFD95F;fill-opacity:0.2;}
	.st98{display:none;fill-rule:evenodd;clip-rule:evenodd;fill:#DBDC7F;fill-opacity:0.2;}
	.st99{display:none;fill-rule:evenodd;clip-rule:evenodd;fill:#DCD551;fill-opacity:0.2;}
	.st100{display:none;fill-rule:evenodd;clip-rule:evenodd;fill:#DDD656;fill-opacity:0.2;}
	.st101{display:none;fill-rule:evenodd;clip-rule:evenodd;fill:#DED85C;fill-opacity:0.2;}
	.st102{display:none;fill-rule:evenodd;clip-rule:evenodd;fill:#DFD961;fill-opacity:0.2;}
	.st103{display:none;fill-rule:evenodd;clip-rule:evenodd;fill:#E6DC55;fill-opacity:0.2;}
	.st104{display:none;fill-rule:evenodd;clip-rule:evenodd;fill:#E7DD5A;fill-opacity:0.2;}
	.st105{display:none;fill-rule:evenodd;clip-rule:evenodd;fill:#E7DE60;fill-opacity:0.2;}
	.st106{display:none;fill-rule:evenodd;clip-rule:evenodd;fill:#E8DF66;fill-opacity:0.2;}
	.st107{display:none;fill-rule:evenodd;clip-rule:evenodd;fill:#E9E06C;fill-opacity:0.2;}
	.st108{display:none;fill-rule:evenodd;clip-rule:evenodd;fill:#EAE272;fill-opacity:0.2;}
	.st109{display:none;fill-rule:evenodd;clip-rule:evenodd;fill:#EBE378;fill-opacity:0.2;}
	.st110{display:none;fill-rule:evenodd;clip-rule:evenodd;fill:#F3DE33;fill-opacity:0.2;}
	.st111{display:none;fill-rule:evenodd;clip-rule:evenodd;fill:#F4DF39;fill-opacity:0.2;}
	.st112{display:none;fill-rule:evenodd;clip-rule:evenodd;fill:#F4E03F;fill-opacity:0.2;}
	.st113{display:none;fill-rule:evenodd;clip-rule:evenodd;fill:#F4E145;fill-opacity:0.2;}
	.st114{display:none;fill-rule:evenodd;clip-rule:evenodd;fill:#F5E24B;fill-opacity:0.2;}
	.st115{display:none;fill-rule:evenodd;clip-rule:evenodd;fill:#F5E351;fill-opacity:0.2;}
	.st116{display:none;fill-rule:evenodd;clip-rule:evenodd;fill:#F7EB8D;fill-opacity:0.2;}
	.st117{display:none;fill-rule:evenodd;clip-rule:evenodd;fill:#F7EC94;fill-opacity:0.2;}
	.st118{display:none;fill-rule:evenodd;clip-rule:evenodd;fill:#F8ED9B;fill-opacity:0.2;}
	.st119{display:none;fill-rule:evenodd;clip-rule:evenodd;fill:#F8EFA3;fill-opacity:0.2;}
	.st120{display:none;fill-rule:evenodd;clip-rule:evenodd;fill:#F9F0AB;fill-opacity:0.2;}
	.st121{display:none;fill-rule:evenodd;clip-rule:evenodd;fill:#E0DC72;fill-opacity:0.2;}
	.st122{display:none;fill-rule:evenodd;clip-rule:evenodd;fill:#E1DE78;fill-opacity:0.2;}
	.st123{display:none;fill-rule:evenodd;clip-rule:evenodd;fill:#E3DF7E;fill-opacity:0.2;}
	.st124{display:none;fill-rule:evenodd;clip-rule:evenodd;fill:#E4E084;fill-opacity:0.2;}
	.st125{display:none;enable-background:new    ;}
	.st126{display:inline;}
	.st127{font-family:'HelveticaNeue';}
	.st128{font-size:12px;}
	.st129{display:inline;fill:#EEEEEE;}
	.st130{font-size:11px;}
	.st131{font-size:10px;}
	.st132{font-size:9px;}
	.st133{fill-rule:evenodd;clip-rule:evenodd;fill:#488CCA;}
	.st134{fill-rule:evenodd;clip-rule:evenodd;fill:#94D771;}
	.st135{fill-rule:evenodd;clip-rule:evenodd;fill:#F0E996;}
	.st136{fill-rule:evenodd;clip-rule:evenodd;fill:#F9F0AB;}
	.st137{fill-rule:evenodd;clip-rule:evenodd;fill:#E4E084;}
	.st138{fill-rule:evenodd;clip-rule:evenodd;fill:#59B27D;}
	.st139{fill-rule:evenodd;clip-rule:evenodd;fill:#C9995A;}
	.st140{fill-rule:evenodd;clip-rule:evenodd;fill:#6B5E94;}
	.st141{fill-rule:evenodd;clip-rule:evenodd;fill:#FFFFFF;}
	.st142{fill-rule:evenodd;clip-rule:evenodd;fill:#8A6E9E;}
	.st143{fill-rule:evenodd;clip-rule:evenodd;fill:#8F5C85;}
	.st144{fill-rule:evenodd;clip-rule:evenodd;fill:#85447E;}
	.st145{fill-rule:evenodd;clip-rule:evenodd;fill:#884580;}
	.st146{fill-rule:evenodd;clip-rule:evenodd;fill:#85548B;}
	.st147{fill-rule:evenodd;clip-rule:evenodd;fill:#88568D;}
	.st148{fill-rule:evenodd;clip-rule:evenodd;fill:#EA638B;}
	.st149{fill-rule:evenodd;clip-rule:evenodd;fill:#EB698F;}
	.st150{fill-rule:evenodd;clip-rule:evenodd;fill:#EF91AC;}
	.st151{fill-rule:evenodd;clip-rule:evenodd;fill:#ECB780;}
	.st152{fill-rule:evenodd;clip-rule:evenodd;fill:#EAA182;}
	.st153{fill-rule:evenodd;clip-rule:evenodd;fill:#EECF7D;}
	.st154{fill-rule:evenodd;clip-rule:evenodd;fill:#EDD347;}
	.st155{fill-rule:evenodd;clip-rule:evenodd;fill:#EEE469;}
	.st156{fill-rule:evenodd;clip-rule:evenodd;fill:#D9DB7A;}
	.st157{fill-rule:evenodd;clip-rule:evenodd;fill:#DAD347;}
	.st158{fill-rule:evenodd;clip-rule:evenodd;fill:#DBD44C;}
	.st159{fill-rule:evenodd;clip-rule:evenodd;fill:#EBDB39;}
	.st160{fill-rule:evenodd;clip-rule:evenodd;fill:#E4D94A;}
	.st161{fill-rule:evenodd;clip-rule:evenodd;fill:#E5DB4F;}
	.st162{fill-rule:evenodd;clip-rule:evenodd;fill:#F3DC28;}
	.st163{fill-rule:evenodd;clip-rule:evenodd;fill:#F3DD2E;}
	.st164{fill-rule:evenodd;clip-rule:evenodd;fill:#F6E87E;}
	.st165{fill-rule:evenodd;clip-rule:evenodd;fill:#F6E985;}
	.st166{fill-rule:evenodd;clip-rule:evenodd;fill:#DED967;}
	.st167{fill-rule:evenodd;clip-rule:evenodd;fill:#DFDB6D;}
	.st168{fill:#EEEEEE;}
	.st169{font-size:7px;}
	.st170{font-size:6px;}
	.st171{font-size:8px;}
</style>
<path id="path-5" class="st0" d="M371.7-93.5c0.6,0,1.1,0,1.7,0L372.7,0c-0.4,0-0.9,0-1.3,0L371.7-93.5z"/>
<path id="path-6" class="st1" d="M372-186c0.7,0,1.3,0,2,0l-0.7,93.5c-0.6,0-1.1,0-1.7,0L372-186z"/>
<path id="path-7" class="st2" d="M372.3-278.5c0.8,0,1.6,0,2.3,0L374-185c-0.7,0-1.3,0-2,0L372.3-278.5z"/>
<path id="path-10" class="st3" d="M373.4-93.5c155.1,1.1,299.4,79.8,384.4,209.6l-78.2,51.2C611.7,63.7,496.5,0.9,372.7,0
	L373.4-93.5z"/>
<path id="path-11" class="st4" d="M374-186c45.6,0.3,91.1,6.3,135.3,17.7l-23.4,90.5c-36.8-9.5-74.5-14.5-112.5-14.7L374-186z"/>
<path id="path-12" class="st5" d="M374.7-278.5c53.2,0.4,106.2,7.3,157.8,20.7L509-167.3c-44.1-11.4-89.5-17.4-135-17.7L374.7-278.5
	z"/>
<path id="path-13" class="st6" d="M375.4-371c0.9,0,1.8,0,2.7,0l-1,93.5c-0.8,0-1.6,0-2.3,0L375.4-371z"/>
<path id="path-14" class="st7" d="M378-371c18.8,0.2,37.5,1.1,56.2,2.7l-8.1,93.1c-16.3-1.4-32.7-2.2-49.1-2.4L378-371z"/>
<path id="path-15" class="st8" d="M434.2-368.2c1.8,0.2,3.6,0.3,5.3,0.5l-8.8,93.1c-1.6-0.1-3.1-0.3-4.7-0.4L434.2-368.2z"/>
<path id="path-16" class="st9" d="M439.6-367.7c3.6,0.3,7.1,0.7,10.7,1.1l-10.1,93c-3.1-0.3-6.2-0.7-9.3-0.9L439.6-367.7z"/>
<path id="path-17" class="st10" d="M450.3-366.6c0.9,0.1,1.8,0.2,2.7,0.3l-10.5,92.9c-0.8-0.1-1.6-0.2-2.3-0.3L450.3-366.6z"/>
<path id="path-18" class="st11" d="M452.9-366.3c0.9,0.1,1.8,0.2,2.7,0.3l-10.8,92.9c-0.8-0.1-1.6-0.2-2.3-0.3L452.9-366.3z"/>
<path id="path-19" class="st12" d="M455.6-366c33.7,3.9,67.2,10.2,100,18.7l-23.4,90.5c-28.7-7.4-57.9-12.9-87.4-16.3L455.6-366z"/>
<path id="path-20" class="st13" d="M509.3-168.3c0.6,0.2,1.3,0.3,1.9,0.5l-23.8,90.4c-0.5-0.1-1.1-0.3-1.6-0.4L509.3-168.3z"/>
<path id="path-21" class="st14" d="M532.5-257.8c0.8,0.2,1.5,0.4,2.3,0.6L511-166.8c-0.6-0.2-1.3-0.3-1.9-0.5L532.5-257.8z"/>
<path id="path-22" class="st15" d="M511.2-167.8c1.3,0.3,2.6,0.7,3.9,1l-24.4,90.3c-1.1-0.3-2.2-0.6-3.2-0.9L511.2-167.8z"/>
<path id="path-23" class="st16" d="M534.7-257.2c1.5,0.4,3,0.8,4.5,1.2l-24.4,90.3c-1.3-0.3-2.6-0.7-3.9-1L534.7-257.2z"/>
<path id="path-24" class="st17" d="M558.2-346.7c1.7,0.5,3.5,0.9,5.2,1.4L539-255.1c-1.5-0.4-3-0.8-4.5-1.2L558.2-346.7z"/>
<path id="path-25" class="st18" d="M515.1-166.7c5.8,1.6,11.6,3.2,17.4,5l-27.3,89.4c-4.8-1.5-9.6-2.9-14.5-4.2L515.1-166.7z"/>
<path id="path-26" class="st19" d="M539.3-256c6.8,1.8,13.6,3.8,20.3,5.8l-27.3,89.4c-5.8-1.8-11.5-3.4-17.4-5L539.3-256z"/>
<path id="path-27" class="st20" d="M563.4-345.3c7.8,2.1,15.5,4.3,23.2,6.7l-27.3,89.4c-6.7-2.1-13.5-4-20.3-5.8L563.4-345.3z"/>
<path id="path-28" class="st21" d="M532.5-161.7c3.2,1,6.4,2,9.6,3l-28.9,88.9c-2.7-0.9-5.3-1.7-8-2.5L532.5-161.7z"/>
<path id="path-29" class="st22" d="M559.5-250.2c3,0.9,6,1.8,9,2.8l-28.6,89c-2.5-0.8-5.1-1.6-7.7-2.4L559.5-250.2z"/>
<path id="path-30" class="st23" d="M586.6-338.6c0.9,0.3,1.7,0.5,2.6,0.8l-27.7,89.3c-0.7-0.2-1.5-0.5-2.2-0.7L586.6-338.6z"/>
<path id="path-31" class="st24" d="M589.1-337.9c0.9,0.3,1.7,0.5,2.6,0.8l-28,89.2c-0.7-0.2-1.5-0.5-2.2-0.7L589.1-337.9z"/>
<path id="path-32" class="st25" d="M591.7-337.1c0.9,0.3,1.7,0.5,2.6,0.8L566-247.1c-0.7-0.2-1.5-0.5-2.2-0.7L591.7-337.1z"/>
<path id="path-33" class="st12" d="M594.3-336.2c0.9,0.3,1.7,0.5,2.6,0.8l-28.6,89c-0.7-0.2-1.5-0.5-2.2-0.7L594.3-336.2z"/>
<path id="path-34" class="st12" d="M568.5-247.4c0.7,0.2,1.5,0.5,2.2,0.7l-28.9,88.9c-0.6-0.2-1.3-0.4-1.9-0.6L568.5-247.4z"/>
<path id="path-35" class="st26" d="M542.1-158.7c27.4,8.9,54.1,20,79.8,33l-42.4,83.4c-21.4-10.9-43.6-20.1-66.4-27.5L542.1-158.7z"
	/>
<path id="path-36" class="st27" d="M570.7-246.7c5.2,1.7,10.4,3.5,15.5,5.3l-31.2,88.1c-4.4-1.6-8.9-3.1-13.3-4.5L570.7-246.7z"/>
<path id="path-37" class="st28" d="M599.4-334.6c1.7,0.6,3.4,1.1,5.1,1.7l-29.6,88.7c-1.5-0.5-3-1-4.4-1.5L599.4-334.6z"/>
<path id="path-38" class="st29" d="M604.5-332.9c0.8,0.3,1.7,0.6,2.5,0.9l-29.9,88.6c-0.7-0.2-1.5-0.5-2.2-0.7L604.5-332.9z"/>
<path id="path-39" class="st12" d="M607-332.1c3.4,1.1,6.8,2.3,10.1,3.5l-31.2,88.1c-2.9-1-5.9-2.1-8.9-3.1L607-332.1z"/>
<path id="path-40" class="st30" d="M586.3-241.4c25.1,8.9,49.6,19.3,73.4,31.2l-41.8,83.7c-20.4-10.2-41.3-19.1-62.8-26.7
	L586.3-241.4z"/>
<path id="path-41" class="st31" d="M617.1-328.6c3.4,1.2,6.7,2.4,10.1,3.6l-32.5,87.7c-2.9-1.1-5.9-2.1-8.8-3.2L617.1-328.6z"/>
<path id="path-42" class="st32" d="M627.2-324.9c0.8,0.3,1.7,0.6,2.5,0.9L597-236.4c-0.7-0.3-1.5-0.5-2.2-0.8L627.2-324.9z"/>
<path id="path-43" class="st12" d="M629.7-324c24.3,9.1,48.1,19.4,71.2,31l-41.8,83.7c-20.3-10.1-41-19.2-62.3-27.1L629.7-324z"/>
<path id="path-44" class="st12" d="M659.6-210.2c1.4,0.7,2.8,1.4,4.2,2.1l-42.4,83.4c-1.2-0.6-2.4-1.2-3.6-1.8L659.6-210.2z"/>
<path id="path-45" class="st33" d="M621.9-125.7c16.7,8.5,33,17.9,48.8,28L620.2-19c-13.1-8.4-26.7-16.2-40.6-23.3L621.9-125.7z"/>
<path id="path-46" class="st34" d="M663.8-208.1c18.8,9.6,37.2,20,55,31.4l-50.3,78.8c-15.2-9.7-30.9-18.7-47-26.9L663.8-208.1z"/>
<path id="path-47" class="st35" d="M705.8-290.6c0.8,0.4,1.6,0.8,2.4,1.2l-42.7,83.2c-0.7-0.4-1.4-0.7-2.1-1.1L705.8-290.6z"/>
<path id="path-48" class="st36" d="M708.1-289.4c8,4.1,15.8,8.3,23.6,12.7l-45.6,81.6c-6.8-3.8-13.7-7.5-20.6-11.1L708.1-289.4z"/>
<path id="path-49" class="st37" d="M731.8-276.7c3.1,1.7,6.2,3.5,9.3,5.3l-46.8,80.9c-2.7-1.6-5.4-3.1-8.1-4.6L731.8-276.7z"/>
<path id="path-50" class="st12" d="M741.1-271.4c9.3,5.4,18.4,10.9,27.5,16.7l-50.3,78.8c-7.9-5-15.9-9.9-24-14.6L741.1-271.4z"/>
<path id="path-51" class="st12" d="M718.8-176.7c0.7,0.4,1.3,0.8,2,1.3l-50.6,78.6c-0.6-0.4-1.1-0.7-1.7-1.1L718.8-176.7z"/>
<path id="path-52" class="st38" d="M670.8-97.6c5.1,3.3,10.1,6.6,15.1,10l-53.1,77c-4.1-2.9-8.3-5.6-12.5-8.3L670.8-97.6z"/>
<path id="path-53" class="st39" d="M720.8-175.4c5.3,3.4,10.5,6.8,15.6,10.4l-52.8,77.1c-4.4-3-8.9-6-13.4-8.9L720.8-175.4z"/>
<path id="path-54" class="st40" d="M770.8-253.2c1.5,1,3,1.9,4.5,2.9L724.2-172c-1.3-0.9-2.6-1.7-3.9-2.5L770.8-253.2z"/>
<path id="path-55" class="st12" d="M775.3-250.3c4.5,2.9,8.9,5.9,13.4,8.9l-52.8,77.1c-3.9-2.6-7.8-5.3-11.7-7.8L775.3-250.3z"/>
<path id="path-56" class="st41" d="M736.4-165.1c0.6,0.4,1.3,0.9,1.9,1.3l-53.1,77c-0.6-0.4-1.1-0.8-1.7-1.1L736.4-165.1z"/>
<path id="path-57" class="st12" d="M685.8-87.6C745-46.7,795.8,5.3,835.2,65.5l-78.2,51.2c-32.8-50.1-75-93.3-124.2-127.3
	L685.8-87.6z"/>
<path id="path-58" class="st42" d="M757.8,116.1c0.3,0.5,0.6,0.9,0.9,1.4l-78.4,50.9c-0.2-0.4-0.5-0.7-0.7-1.1L757.8,116.1z"/>
<path id="path-59" class="st43" d="M835.2,65.5c0.4,0.6,0.7,1.1,1.1,1.7l-78.4,50.9c-0.3-0.5-0.6-0.9-0.9-1.4L835.2,65.5z"/>
<path id="path-60" class="st44" d="M912.6,14.8c0.4,0.7,0.9,1.3,1.3,2l-78.4,50.9c-0.4-0.6-0.7-1.1-1.1-1.7L912.6,14.8z"/>
<path id="path-61" class="st45" d="M990-35.9c0.5,0.7,1,1.5,1.5,2.2L913,17.3c-0.4-0.7-0.9-1.3-1.3-2L990-35.9z"/>
<path id="path-62" class="st12" d="M758.7,117.5c1.5,2.3,3,4.7,4.5,7.1l-79.3,49.5c-1.2-1.9-2.4-3.8-3.6-5.6L758.7,117.5z"/>
<path id="path-64" class="st46" d="M763.2,124.6c0.3,0.5,0.6,0.9,0.9,1.4l-79.5,49.2c-0.2-0.4-0.5-0.8-0.7-1.1L763.2,124.6z"/>
<path id="path-65" class="st47" d="M841.7,75.6c0.4,0.6,0.7,1.1,1.1,1.7l-79.5,49.2c-0.3-0.5-0.6-0.9-0.9-1.4L841.7,75.6z"/>
<path id="path-66" class="st48" d="M920.1,26.6c0.4,0.7,0.8,1.3,1.2,2l-79.5,49.2c-0.4-0.6-0.7-1.1-1.1-1.7L920.1,26.6z"/>
<path id="path-72" class="st49" d="M787.5,168.6c22.6,46.9,37.2,97.3,43.1,149.1l-92.9,10.5c-4.7-41.3-16.3-81.6-34.4-119
	L787.5,168.6z"/>
<path id="path-73" class="st50" d="M870.8,128.4c27.2,56.3,44.6,116.8,51.7,178.8l-92.9,10.5c-5.9-51.7-20.4-101.9-43-148.8
	L870.8,128.4z"/>
<path id="path-74" class="st51" d="M954.1,88.2c31.7,65.7,52,136.2,60.3,208.6l-92.9,10.5c-7-62-24.5-122.3-51.6-178.5L954.1,88.2z"
	/>
<path id="path-75" class="st52" d="M1037.4,48.1c36.2,75,59.5,155.6,68.9,238.4l-92.9,10.5c-8.2-72.3-28.6-142.7-60.2-208.3
	L1037.4,48.1z"/>
<path id="path-78" class="st53" d="M830.5,317.7C847.6,468.3,790,617.8,676.2,718l-61.8-70.2c90.8-79.9,136.9-199.3,123.2-319.5
	L830.5,317.7z"/>
<path id="path-79" class="st54" d="M922.5,307.3c5.4,47.4,4.6,95.2-2.2,142.4l-92.5-13.4c5.7-39.2,6.3-79,1.8-118.4L922.5,307.3z"/>
<path id="path-80" class="st55" d="M1014.4,296.8c5,44.3,5.5,89.1,1.3,133.5l-93.1-8.7c3.6-38,3.2-76.3-1.1-114.2L1014.4,296.8z"/>
<path id="path-81" class="st56" d="M1015.7,430.3c-0.1,0.8-0.1,1.6-0.2,2.3l-93.1-9c0.1-0.7,0.1-1.3,0.2-2L1015.7,430.3z"/>
<path id="path-82" class="st57" d="M1107.8,438.9c-0.1,0.9-0.2,1.8-0.3,2.7l-93.1-9c0.1-0.8,0.1-1.6,0.2-2.3L1107.8,438.9z"/>
<path id="path-83" class="st12" d="M1015.5,432.7c-1,10.1-2.2,20.2-3.7,30.3l-92.5-13.4c1.2-8.6,2.3-17.2,3.1-25.9L1015.5,432.7z"/>
<path id="path-84" class="st58" d="M920.3,449.7c-1.5,10.6-3.4,21.2-5.5,31.7l-91.6-18.7c1.8-8.7,3.3-17.5,4.6-26.4L920.3,449.7z"/>
<path id="path-85" class="st59" d="M1011.8,462.9c-1.8,12.4-3.9,24.7-6.4,37l-91.6-18.7c2.1-10.5,4-21,5.5-31.6L1011.8,462.9z"/>
<path id="path-86" class="st60" d="M1103.4,476.2c-0.1,0.9-0.3,1.8-0.4,2.7l-92.5-13.7c0.1-0.8,0.2-1.5,0.3-2.3L1103.4,476.2z"/>
<path id="path-87" class="st61" d="M1103,478.8c-0.9,6.2-1.9,12.4-3,18.5l-92.1-16.1c0.9-5.4,1.8-10.8,2.6-16.2L1103,478.8z"/>
<path id="path-88" class="st12" d="M1100,497.4c-1.2,7-2.6,14.1-4,21.1l-91.6-18.7c1.3-6.1,2.4-12.3,3.5-18.4L1100,497.4z"/>
<path id="path-89" class="st62" d="M914.7,481.4c-2.3,11.2-4.9,22.3-7.9,33.3l-90.3-24.3c2.5-9.2,4.7-18.4,6.5-27.7L914.7,481.4z"/>
<path id="path-90" class="st63" d="M1005.4,499.9c-0.2,0.8-0.3,1.5-0.5,2.3l-91.5-19.1c0.1-0.7,0.3-1.3,0.4-2L1005.4,499.9z"/>
<path id="path-91" class="st64" d="M1096,518.4c-0.2,0.9-0.4,1.8-0.5,2.6l-91.5-19.1c0.2-0.8,0.3-1.5,0.5-2.3L1096,518.4z"/>
<path id="path-92" class="st12" d="M1004.9,502.2c-2.6,12.2-5.5,24.4-8.7,36.5l-90.3-24.3c2.8-10.3,5.3-20.8,7.5-31.2L1004.9,502.2z
	"/>
<path id="path-93" class="st65" d="M906.9,514.6c-0.2,0.6-0.3,1.3-0.5,1.9l-90.2-24.6c0.1-0.5,0.3-1.1,0.4-1.6L906.9,514.6z"/>
<path id="path-94" class="st66" d="M996.2,538.7c-0.2,0.8-0.4,1.5-0.6,2.3l-90.2-24.6c0.2-0.6,0.4-1.3,0.5-1.9L996.2,538.7z"/>
<path id="path-95" class="st67" d="M906.3,516.6c-11.7,42.7-28.4,83.9-49.9,122.7L774.7,594c17.8-32.2,31.8-66.5,41.5-102
	L906.3,516.6z"/>
<path id="path-96" class="st68" d="M995.6,541c-1,3.8-2.1,7.5-3.2,11.3L902.6,526c0.9-3.2,1.9-6.4,2.7-9.7L995.6,541z"/>
<path id="path-97" class="st69" d="M1084.8,565.3c-1.2,4.3-2.4,8.6-3.6,12.9L991.4,552c1.1-3.7,2.2-7.5,3.2-11.3L1084.8,565.3z"/>
<path id="path-98" class="st70" d="M992.4,552.2c-4.8,16.5-10.3,32.8-16.5,48.9l-87.4-33.3c5.2-13.8,9.9-27.7,14.1-41.8L992.4,552.2
	z"/>
<path id="path-99" class="st71" d="M1081.1,578.2c-2.8,9.4-5.7,18.8-8.8,28.1l-88.6-29.8c2.7-8.1,5.3-16.3,7.7-24.6L1081.1,578.2z"
	/>
<path id="path-100" class="st72" d="M1072.3,606.4c-0.3,0.8-0.6,1.7-0.9,2.5l-88.5-30.1c0.3-0.7,0.5-1.5,0.8-2.2L1072.3,606.4z"/>
<path id="path-101" class="st73" d="M1071.4,608.9c-0.9,2.5-1.7,5.1-2.6,7.6l-88.2-31.1c0.8-2.2,1.5-4.4,2.3-6.6L1071.4,608.9z"/>
<path id="path-102" class="st74" d="M1068.8,616.5c-0.3,0.8-0.6,1.7-0.9,2.5l-88.1-31.4c0.3-0.7,0.5-1.5,0.8-2.2L1068.8,616.5z"/>
<path id="path-103" class="st12" d="M1067.9,619c-1.8,5-3.7,10.1-5.6,15.1L975,600.8c1.7-4.4,3.3-8.8,4.9-13.2L1067.9,619z"/>
<path id="path-104" class="st12" d="M975.9,601.1c-10.9,28.5-23.7,56.2-38.5,82.9l-81.8-45.3c12.6-22.8,23.7-46.6,33-70.9
	L975.9,601.1z"/>
<path id="path-105" class="st12" d="M856.5,639.2c-30.9,55.9-71.2,106-119.2,148.2l-61.8-70.2c39.9-35.1,73.4-76.8,99.1-123.2
	L856.5,639.2z"/>
<path id="path-109" class="st75" d="M654.2,736.1c-0.4,0.3-0.9,0.7-1.3,1l-57.1-74.1c0.4-0.3,0.7-0.5,1.1-0.8L654.2,736.1z"/>
<path id="path-110" class="st76" d="M711,809.2c-0.5,0.4-1.1,0.8-1.6,1.2l-57.1-74.1c0.4-0.3,0.9-0.7,1.3-1L711,809.2z"/>
<path id="path-111" class="st77" d="M767.7,882.3c-0.6,0.5-1.2,1-1.9,1.4l-57.1-74.1c0.5-0.4,1.1-0.8,1.6-1.2L767.7,882.3z"/>
<path id="path-112" class="st78" d="M824.4,955.3c-0.7,0.5-1.4,1.1-2.1,1.6l-57.1-74.1c0.6-0.5,1.2-1,1.9-1.4L824.4,955.3z"/>
<path id="path-116" class="st79" d="M651.6,738.2c-0.4,0.3-0.9,0.7-1.3,1l-56.5-74.5c0.4-0.3,0.7-0.5,1.1-0.8L651.6,738.2z"/>
<path id="path-117" class="st80" d="M707.8,811.6c-0.5,0.4-1.1,0.8-1.6,1.2l-56.5-74.5c0.4-0.3,0.9-0.7,1.3-1L707.8,811.6z"/>
<path id="path-118" class="st81" d="M764,885.1c-0.6,0.5-1.2,0.9-1.9,1.4l-56.5-74.5c0.5-0.4,1.1-0.8,1.6-1.2L764,885.1z"/>
<path id="path-119" class="st82" d="M820.2,958.6c-0.7,0.5-1.4,1.1-2.1,1.6l-56.5-74.5c0.6-0.5,1.2-0.9,1.9-1.4L820.2,958.6z"/>
<path id="path-120" class="st83" d="M650.2,739.2c-0.4,0.3-0.9,0.7-1.3,1l-56.3-74.7c0.4-0.3,0.7-0.5,1.1-0.8L650.2,739.2z"/>
<path id="path-121" class="st84" d="M706.2,812.9c-0.5,0.4-1.1,0.8-1.6,1.2l-56.3-74.7c0.4-0.3,0.9-0.7,1.3-1L706.2,812.9z"/>
<path id="path-122" class="st85" d="M762.1,886.5c-0.6,0.5-1.2,0.9-1.9,1.4L704,813.3c0.5-0.4,1.1-0.8,1.6-1.2L762.1,886.5z"/>
<path id="path-123" class="st86" d="M818,960.2c-0.7,0.5-1.4,1.1-2.1,1.6l-56.3-74.7c0.6-0.5,1.2-0.9,1.9-1.4L818,960.2z"/>
<path id="path-124" class="st87" d="M648.9,740.2c-0.9,0.7-1.8,1.3-2.7,2l-55.7-75.1c0.7-0.5,1.4-1.1,2.1-1.6L648.9,740.2z"/>
<path id="path-125" class="st88" d="M704.6,814.1c-1.1,0.8-2.1,1.6-3.2,2.4l-55.7-75.1c0.9-0.7,1.8-1.3,2.7-2L704.6,814.1z"/>
<path id="path-126" class="st89" d="M760.2,888c-0.6,0.5-1.2,0.9-1.9,1.4l-56-74.9c0.5-0.4,1.1-0.8,1.6-1.2L760.2,888z"/>
<path id="path-127" class="st90" d="M758.4,889.4c-0.6,0.5-1.3,0.9-1.9,1.4l-55.7-75.1c0.5-0.4,1.1-0.8,1.6-1.2L758.4,889.4z"/>
<path id="path-128" class="st91" d="M813.7,963.4c-0.7,0.5-1.4,1.1-2.1,1.6L755.9,890c0.6-0.5,1.3-0.9,1.9-1.4L813.7,963.4z"/>
<path id="path-130" class="st92" d="M646.2,742.2c-0.4,0.3-0.9,0.7-1.3,1l-55.4-75.3c0.4-0.3,0.7-0.5,1.1-0.8L646.2,742.2z"/>
<path id="path-131" class="st93" d="M701.3,816.5c-0.5,0.4-1.1,0.8-1.6,1.2l-55.4-75.3c0.4-0.3,0.9-0.7,1.3-1L701.3,816.5z"/>
<path id="path-133" class="st94" d="M644.9,743.2c-0.4,0.3-0.9,0.7-1.4,1l-55.2-75.5c0.4-0.3,0.7-0.5,1.1-0.8L644.9,743.2z"/>
<path id="path-134" class="st95" d="M699.7,817.7c-0.5,0.4-1.1,0.8-1.6,1.2l-55.2-75.5c0.5-0.3,0.9-0.7,1.3-1L699.7,817.7z"/>
<path id="path-135" class="st96" d="M754.6,892.2c-0.6,0.5-1.3,0.9-1.9,1.4l-55.2-75.5c0.5-0.4,1.1-0.8,1.6-1.2L754.6,892.2z"/>
<path id="path-136" class="st97" d="M809.4,966.6c-0.7,0.5-1.4,1.1-2.2,1.6l-55.2-75.5c0.6-0.5,1.3-0.9,1.9-1.4L809.4,966.6z"/>
<path id="path-139" class="st98" d="M642.2,745.2c-0.5,0.3-0.9,0.7-1.4,1l-54.6-75.9c0.4-0.3,0.7-0.5,1.1-0.8L642.2,745.2z"/>
<path id="path-142" class="st99" d="M640.8,746.2c-6.8,4.9-13.7,9.6-20.8,14.1l-50.4-78.7c5.6-3.6,11.2-7.4,16.6-11.3L640.8,746.2z"
	/>
<path id="path-143" class="st100" d="M694.9,821.2c-8.2,5.9-16.5,11.5-24.9,17l-50.4-78.7c7-4.5,14-9.2,20.8-14.1L694.9,821.2z"/>
<path id="path-144" class="st101" d="M748.9,896.3c-9.5,6.9-19.2,13.4-29.1,19.8l-50.4-78.7c8.5-5.4,16.8-11.1,24.9-16.9
	L748.9,896.3z"/>
<path id="path-145" class="st102" d="M802.9,971.4c-10.2,7.3-20.5,14.4-31,21.1L721.2,914c9.2-5.9,18.2-12.1,27.1-18.5L802.9,971.4z
	"/>
<path id="path-146" class="st12" d="M771.9,992.5c-0.8,0.5-1.5,1-2.3,1.4l-50.4-78.7c0.7-0.4,1.3-0.8,2-1.3L771.9,992.5z"/>
<path id="path-151" class="st103" d="M106,751c-0.5-0.3-0.9-0.6-1.4-1l53.5-76.7c0.4,0.3,0.7,0.5,1.1,0.8L106,751z"/>
<path id="path-152" class="st104" d="M53.4,827c-0.6-0.4-1.1-0.8-1.7-1.1l53.5-76.7c0.5,0.3,0.9,0.6,1.4,1L53.4,827z"/>
<path id="path-153" class="st105" d="M0.7,903.1c-0.6-0.4-1.3-0.9-1.9-1.3l53.5-76.7c0.5,0.4,1.1,0.8,1.6,1.1L0.7,903.1z"/>
<path id="path-154" class="st106" d="M-52,979.1c-0.7-0.5-1.5-1-2.2-1.5l53.5-76.7c0.6,0.4,1.3,0.9,1.9,1.3L-52,979.1z"/>
<path id="path-155" class="st107" d="M-104.7,1055.1c-0.8-0.6-1.7-1.1-2.5-1.7l53.5-76.7c0.7,0.5,1.5,1,2.2,1.5L-104.7,1055.1z"/>
<path id="path-156" class="st108" d="M-157.4,1131.2c-0.9-0.6-1.8-1.3-2.7-1.9l53.5-76.7c0.8,0.6,1.6,1.1,2.5,1.7L-157.4,1131.2z"/>
<path id="path-157" class="st109" d="M-210,1207.2c-1-0.7-2-1.4-3-2.1l53.5-76.7c0.9,0.6,1.8,1.3,2.7,1.9L-210,1207.2z"/>
<path id="path-160" class="st110" d="M104.7,750c-0.5-0.3-0.9-0.6-1.4-1l53.8-76.5c0.4,0.3,0.7,0.5,1.1,0.8L104.7,750z"/>
<path id="path-161" class="st111" d="M51.7,825.9c-0.5-0.4-1.1-0.8-1.6-1.2l53.8-76.5c0.5,0.3,0.9,0.6,1.4,1L51.7,825.9z"/>
<path id="path-162" class="st112" d="M-1.2,901.7c-0.6-0.4-1.3-0.9-1.9-1.3l53.8-76.5c0.5,0.4,1.1,0.8,1.6,1.2L-1.2,901.7z"/>
<path id="path-163" class="st113" d="M-54.2,977.6c-0.7-0.5-1.5-1-2.2-1.5l53.8-76.5c0.6,0.4,1.3,0.9,1.9,1.3L-54.2,977.6z"/>
<path id="path-164" class="st114" d="M-107.1,1053.4c-0.8-0.6-1.6-1.2-2.5-1.7l53.8-76.5c0.7,0.5,1.5,1,2.2,1.5L-107.1,1053.4z"/>
<path id="path-165" class="st115" d="M-160.1,1129.3c-0.9-0.6-1.8-1.3-2.7-1.9l53.8-76.5c0.8,0.6,1.6,1.2,2.5,1.7L-160.1,1129.3z"/>
<path id="path-168" class="st116" d="M103.3,749.1c-0.5-0.3-0.9-0.6-1.4-1l54.1-76.3c0.4,0.3,0.7,0.5,1.1,0.8L103.3,749.1z"/>
<path id="path-169" class="st117" d="M50.1,824.7c-0.5-0.4-1.1-0.8-1.6-1.2l54.1-76.3c0.5,0.3,0.9,0.6,1.4,1L50.1,824.7z"/>
<path id="path-170" class="st118" d="M-3.2,900.4c-0.6-0.4-1.3-0.9-1.9-1.4L49,822.8c0.5,0.4,1.1,0.8,1.6,1.2L-3.2,900.4z"/>
<path id="path-171" class="st119" d="M-56.4,976c-0.7-0.5-1.5-1-2.2-1.5l54.1-76.3c0.6,0.5,1.3,0.9,1.9,1.4L-56.4,976z"/>
<path id="path-172" class="st120" d="M-109.6,1051.7c-0.8-0.6-1.6-1.2-2.5-1.7l54.1-76.3c0.7,0.5,1.5,1,2.2,1.5L-109.6,1051.7z"/>
<path id="path-175" class="st121" d="M101.9,748.1c-0.5-0.3-0.9-0.6-1.4-1l54.4-76.1c0.4,0.3,0.7,0.5,1.1,0.8L101.9,748.1z"/>
<path id="path-176" class="st122" d="M48.4,823.6c-0.5-0.4-1.1-0.8-1.6-1.2l54.4-76.1c0.5,0.3,0.9,0.6,1.4,1L48.4,823.6z"/>
<path id="path-177" class="st123" d="M-5.1,899c-0.6-0.5-1.3-0.9-1.9-1.4l54.4-76.1c0.5,0.4,1.1,0.8,1.6,1.2L-5.1,899z"/>
<path id="path-178" class="st124" d="M-58.6,974.5c-0.7-0.5-1.5-1-2.2-1.6l54.4-76.1c0.6,0.5,1.3,0.9,1.9,1.4L-58.6,974.5z"/>
<path id="path-179" class="st0" d="M-112.1,1049.9c-0.8-0.6-1.6-1.2-2.5-1.7l54.4-76.1c0.7,0.5,1.5,1,2.2,1.6L-112.1,1049.9z"/>
<path id="path-180" class="st1" d="M-165.6,1125.4c-0.9-0.6-1.8-1.3-2.7-1.9l54.4-76.1c0.8,0.6,1.6,1.2,2.5,1.7L-165.6,1125.4z"/>
<path id="path-181" class="st2" d="M-219.1,1200.9c-1-0.7-2-1.4-3-2.1l54.4-76.1c0.9,0.6,1.8,1.3,2.7,1.9L-219.1,1200.9z"/>
<g class="st125">
	<text transform="matrix(5.425898e-03 -1 1 5.425898e-03 374.4293 -3.9816)" class="st126 st127 st128">Eggerthellales</text>
</g>
<g class="st125">
	<text transform="matrix(5.425898e-03 -1 1 5.425898e-03 374.7311 -96.4816)" class="st126 st127 st130">Eggerthellaceae</text>
</g>
<g class="st125">
	<text transform="matrix(5.425898e-03 -1 1 5.425898e-03 375.433 -188.9787)" class="st126 st127 st128">Eggerthella</text>
</g>
<g class="st125">
	<text transform="matrix(0.4787 -0.878 0.878 0.4787 551.1437 42.786)" class="st126 st127 st128">Bacteroidales</text>
</g>
<g class="st125">
	<text transform="matrix(0.1299 -0.9915 0.9915 0.1299 432.9564 -92.2386)" class="st126 st127 st128">Bacteroidaceae</text>
</g>
<g class="st125">
	<text transform="matrix(0.1299 -0.9915 0.9915 0.1299 444.9679 -183.9554)" class="st126 st127 st128">Bacteroides</text>
</g>
<g class="st125">
	<text transform="matrix(9.043040e-03 -1 1 9.043040e-03 377.6915 -281.4573)" class="st126 st127 st132">Bacteroides eggerthii</text>
</g>
<g class="st125">
	<text transform="matrix(4.881365e-02 -0.9988 0.9988 4.881365e-02 403.2004 -280.6551)" class="st126 st127 st169">Bacteroides graminisolvens</text>
</g>
<g class="st125">
	<text transform="matrix(9.030842e-02 -0.9959 0.9959 9.030842e-02 431.2262 -278.6211)" class="st126 st127 st128">Bacteroides luti</text>
</g>
<g class="st125">
	<text transform="matrix(0.1011 -0.9949 0.9949 0.1011 437.664 -277.9788)" class="st126 st127 st132">Bacteroides stercoris</text>
</g>
<g class="st125">
	<text transform="matrix(0.1101 -0.9939 0.9939 0.1101 442.9247 -277.4067)" class="st126 st127 st170">Bacteroides thetaiotaomicron</text>
</g>
<g class="st125">
	<text transform="matrix(0.1137 -0.9935 0.9935 0.1137 445.6634 -277.0929)" class="st126 st127 st171">Bacteroides uniformis</text>
</g>
<g class="st125">
	<text transform="matrix(0.2523 -0.9677 0.9677 0.2523 489.2284 -81.0097)" class="st126 st127 st171">Candidatus Symbiothrix</text>
</g>
<g class="st125">
	<text transform="matrix(0.2523 -0.9677 0.9677 0.2523 511.982 -170.6689)" class="st126 st127" style="font-size:5px;">Candidatus Symbiothrix dinenymphae</text>
</g>
<g class="st125">
	<text transform="matrix(0.2575 -0.9663 0.9663 0.2575 491.6737 -80.3557)" class="st126 st127 st171">Dysgonamonadaceae</text>
</g>
<g class="st125">
	<text transform="matrix(0.2575 -0.9663 0.9663 0.2575 516.2663 -169.5305)" class="st126 st127 st128">Dysgonomonas</text>
</g>
<g class="st125">
	<text transform="matrix(0.2575 -0.9663 0.9663 0.2575 539.3129 -259.1164)" class="st126 st127 st171">Dysgonomonas mossii</text>
</g>
<g class="st125">
	<text transform="matrix(0.2767 -0.961 0.961 0.2767 501.1856 -77.6802)" class="st126 st127 st130">Muribaculaceae</text>
</g>
<g class="st125">
	<text transform="matrix(0.2767 -0.961 0.961 0.2767 526.9708 -166.5133)" class="st126 st127 st128">Muribaculum</text>
</g>
<g class="st125">
	<text transform="matrix(0.2767 -0.961 0.961 0.2767 551.795 -255.6236)" class="st126 st127 st171">Muribaculum intestinale</text>
</g>
<g class="st125">
	<text transform="matrix(0.3009 -0.9536 0.9536 0.3009 511.9058 -74.3955)" class="st126 st127 st171">Porphyromonadaceae</text>
</g>
<g class="st125">
	<text transform="matrix(0.2992 -0.9542 0.9542 0.2992 539.3499 -162.7347)" class="st126 st127 st130">Porphyromonas</text>
</g>
<g class="st125">
	<text transform="matrix(0.294 -0.9558 0.9558 0.294 562.8884 -252.2925)" class="st126 st127 st169">Porphyromonas catoniae</text>
</g>
<g class="st125">
	<text transform="matrix(0.2975 -0.9547 0.9547 0.2975 565.1384 -251.591)" class="st126 st127 st169">Porphyromonas gingivicanis</text>
</g>
<g class="st125">
	<text transform="matrix(0.3009 -0.9536 0.9536 0.3009 567.3855 -250.8808)" class="st126 st127 st169">Porphyromonas somerae</text>
</g>
<g class="st125">
	<text transform="matrix(0.3825 -0.924 0.924 0.3825 550.6419 -60.1121)" class="st126 st127 st128">Prevotellaceae</text>
</g>
<g class="st125">
	<text transform="matrix(0.3215 -0.9469 0.9469 0.3215 552.0172 -158.5423)" class="st126 st127 st128">Paraprevotella</text>
</g>
<g class="st125">
	<text transform="matrix(0.313 -0.9498 0.9498 0.313 575.61 -248.2072)" class="st126 st127 st132">Paraprevotella clara</text>
</g>
<g class="st125">
	<text transform="matrix(0.3181 -0.9481 0.9481 0.3181 578.5821 -247.2098)" class="st126 st127 st169">Paraprevotella xylaniphila</text>
</g>
<g class="st125">
	<text transform="matrix(0.3908 -0.9205 0.9205 0.3908 590.6743 -143.6046)" class="st126 st127 st128">Prevotella</text>
</g>
<g class="st125">
	<text transform="matrix(0.3403 -0.9403 0.9403 0.3403 593.9752 -241.7952)" class="st126 st127 st128">Prevotella copri</text>
</g>
<g class="st125">
	<text transform="matrix(0.3488 -0.9372 0.9372 0.3488 598.9363 -239.9543)" class="st126 st127 st132">Prevotella ruminicola</text>
</g>
<g class="st125">
	<text transform="matrix(0.4976 -0.8674 0.8674 0.4976 604.2349 -33.4376)" class="st129 st127 st128">Rikenellaceae</text>
</g>
<g class="st125">
	<text transform="matrix(0.4961 -0.8683 0.8683 0.4961 649.3921 -114.1762)" class="st129 st127 st128">Alistipes</text>
</g>
<g class="st125">
	<text transform="matrix(0.4547 -0.8906 0.8906 0.4547 668.0284 -209.3404)" class="st126 st127 st131">Alistipes finegoldii</text>
</g>
<g class="st125">
	<text transform="matrix(0.4723 -0.8814 0.8814 0.4723 679.4945 -203.2972)" class="st129 st127 st131">Alistipes putredinis</text>
</g>
<g class="st125">
	<text transform="matrix(0.4945 -0.8692 0.8692 0.4945 694.2579 -195.0795)" class="st126 st127 st128">Alistipes shahii</text>
</g>
<g class="st125">
	<text transform="matrix(0.5545 -0.8322 0.8322 0.5545 630.6881 -16.8718)" class="st129 st127 st128">Tannerellaceae</text>
</g>
<g class="st125">
	<text transform="matrix(0.553 -0.8332 0.8332 0.553 680.9767 -94.5201)" class="st126 st127 st130">Parabacteroides</text>
</g>
<g class="st125">
	<text transform="matrix(0.544 -0.8391 0.8391 0.544 725.7302 -175.8124)" class="st126 st127 st171">Parabacteroides merdae</text>
</g>
<g class="st125">
	<text transform="matrix(0.5665 -0.824 0.824 0.5665 688.6612 -89.2835)" class="st129 st127 st128">Tannerella</text>
</g>
<g class="st125">
	<text transform="matrix(0.8376 -0.5462 0.5462 0.8376 684.5864 167.7201)" class="st129 st127 st128">Marinilabiliales</text>
</g>
<g class="st125">
	<text transform="matrix(0.8376 -0.5462 0.5462 0.8376 761.9584 117.0262)" class="st129 st127 st130">Marinilabiliaceae</text>
</g>
<g class="st125">
	<text transform="matrix(0.8376 -0.5462 0.5462 0.8376 839.5488 66.6673)" class="st129 st127 st128">Saccharicrinis</text>
</g>
<g class="st125">
	<text transform="matrix(0.8376 -0.5462 0.5462 0.8376 916.4838 15.3036)" class="st129 st127 st169">Saccharicrinis fermentans</text>
</g>
<g class="st125">
	<text transform="matrix(0.8493 -0.5279 0.5279 0.8493 688.7964 174.4248)" class="st129 st127 st130">Flavobacteriales</text>
</g>
<g class="st125">
	<text transform="matrix(0.8493 -0.5279 0.5279 0.8493 767.2505 125.4223)" class="st129 st127 st131">Flavobacteriaceae</text>
</g>
<g class="st125">
	<text transform="matrix(0.8493 -0.5279 0.5279 0.8493 845.3875 75.9096)" class="st129 st127 st170">Flavobacteriaceae bacterium</text>
</g>
<g class="st125">
	<text transform="matrix(0.9607 -0.2775 0.2775 0.9607 729.9166 268.3101)" class="st129 st127 st130">Deferribacterales</text>
</g>
<g class="st125">
	<text transform="matrix(0.9607 -0.2775 0.2775 0.9607 818.7269 242.4448)" class="st129 st127 st131">Deferribacteraceae</text>
</g>
<g class="st125">
	<text transform="matrix(0.9607 -0.2775 0.2775 0.9607 907.7037 217.1557)" class="st129 st127 st128">Mucispirillum</text>
</g>
<g class="st125">
	<text transform="matrix(0.9607 -0.2775 0.2775 0.9607 996.3475 190.7138)" class="st129 st127 st171">Mucispirillum schaedleri</text>
</g>
<g class="st125">
	<text transform="matrix(0.933 0.3598 -0.3598 0.933 718.0893 506.8054)" class="st129 st127 st128">Clostridiales</text>
</g>
<g class="st125">
	<text transform="matrix(0.9999 1.537276e-02 -1.537276e-02 0.9999 836.408 379.5711)" class="st129 st127 st128">Clostridiaceae</text>
</g>
<g class="st125">
	<text transform="matrix(1 -9.947308e-03 9.947308e-03 1 928.9962 366.8394)" class="st129 st127 st128">Clostridium</text>
</g>
<g class="st125">
	<text transform="matrix(0.9955 9.481052e-02 -9.481052e-02 0.9955 926.2543 425.3883)" class="st129 st127 st128">Hungatella</text>
</g>
<g class="st125">
	<text transform="matrix(0.9955 9.481052e-02 -9.481052e-02 0.9955 1018.3945 433.561)" class="st129 st127 st132">Hungatella hathewayi</text>
</g>
<g class="st125">
	<text transform="matrix(0.9851 0.1719 -0.1719 0.9851 829.1462 452.5401)" class="st129 st127 st128">Eubacteriaceae</text>
</g>
<g class="st125">
	<text transform="matrix(0.9851 0.1719 -0.1719 0.9851 920.2697 468.4378)" class="st129 st127 st128">Eubacterium</text>
</g>
<g class="st125">
	<text transform="matrix(0.9894 0.1451 -0.1451 0.9894 1014.3748 466.1033)" class="st129 st127 st171">Eubacterium ventriosum</text>
</g>
<g class="st125">
	<text transform="matrix(0.9872 0.1594 -0.1594 0.9872 1012.8851 475.6139)" class="st129 st127 st132">[Eubacterium] eligens</text>
</g>
<g class="st125">
	<text transform="matrix(0.9731 0.2303 -0.2303 0.9731 823.4512 479.5863)" class="st129 st127 st130">Lachnospiraceae</text>
</g>
<g class="st125">
	<text transform="matrix(0.9794 0.2021 -0.2021 0.9794 917.0642 484.9159)" class="st129 st127 st131">Lachnoclostridium</text>
</g>
<g class="st125">
	<text transform="matrix(0.9794 0.2021 -0.2021 0.9794 1007.7368 503.2155)" class="st129 st127 st171">[Clostridium] fimetarium</text>
</g>
<g class="st125">
	<text transform="matrix(0.9651 0.2619 -0.2619 0.9651 819.6439 494.288)" class="st129 st127 st130">Oscillospiraceae</text>
</g>
<g class="st125">
	<text transform="matrix(0.9651 0.2619 -0.2619 0.9651 908.8633 518.7044)" class="st129 st127 st128">Oscillibacter</text>
</g>
<g class="st125">
	<text transform="matrix(0.9264 0.3766 -0.3766 0.9264 801.3978 547.5451)" class="st129 st127 st131">Ruminococcaceae</text>
</g>
<g class="st125">
	<text transform="matrix(0.9622 0.2723 -0.2723 0.9622 907.218 524.5432)" class="st129 st127 st128">Anaerotruncus</text>
</g>
<g class="st125">
	<text transform="matrix(0.9622 0.2723 -0.2723 0.9622 996.4941 548.7717)" class="st129 st127 st169">Anaerotruncus colihominis</text>
</g>
<g class="st125">
	<text transform="matrix(0.9478 0.319 -0.319 0.9478 899.0337 550.5825)" class="st129 st127 st128">Ruminococcus</text>
</g>
<g class="st125">
	<text transform="matrix(0.9539 0.3001 -0.3001 0.9539 991.0592 566.8237)" class="st129 st127 st169">Ruminococcus bicirculans</text>
</g>
<g class="st125">
	<text transform="matrix(0.9472 0.3207 -0.3207 0.9472 986.5773 580.445)" class="st126 st127 st171">Ruminococcus bromii</text>
</g>
<g class="st125">
	<text transform="matrix(0.9448 0.3275 -0.3275 0.9448 985.17 584.5223)" class="st126 st127 st170">Ruminococcus champanellensis</text>
</g>
<g class="st125">
	<text transform="matrix(0.9424 0.3344 -0.3344 0.9424 983.5347 589.1556)" class="st126 st127 st169">Ruminococcus flavefaciens</text>
</g>
<g class="st125">
	<text transform="matrix(0.6118 0.791 -0.791 0.6118 597.0751 667.1829)" class="st126 st127 st130">Fusobacteriales</text>
</g>
<g class="st125">
	<text transform="matrix(0.6118 0.791 -0.791 0.6118 653.6669 740.3511)" class="st126 st127 st130">Leptotrichiaceae</text>
</g>
<g class="st125">
	<text transform="matrix(0.6118 0.791 -0.791 0.6118 710.1015 813.6416)" class="st126 st127 st128">Sebaldella</text>
</g>
<g class="st125">
	<text transform="matrix(0.6118 0.791 -0.791 0.6118 767.1679 886.4429)" class="st126 st127 st132">Sebaldella termitidis</text>
</g>
<g class="st125">
	<text transform="matrix(0.6061 0.7954 -0.7954 0.6061 594.7604 668.9391)" class="st126 st127 st128">Rhizobiales</text>
</g>
<g class="st125">
	<text transform="matrix(0.6061 0.7954 -0.7954 0.6061 650.8219 742.5148)" class="st126 st127 st128">Rhizobiaceae</text>
</g>
<g class="st125">
	<text transform="matrix(0.6061 0.7954 -0.7954 0.6061 706.8824 816.0905)" class="st126 st127 st128">Sinorhizobium</text>
</g>
<g class="st125">
	<text transform="matrix(0.6061 0.7954 -0.7954 0.6061 763.4215 889.3026)" class="st126 st127 st132">Sinorhizobium fredii</text>
</g>
<g class="st125">
	<text transform="matrix(0.6032 0.7976 -0.7976 0.6032 593.837 669.6296)" class="st126 st127 st130">Rhodobacterales</text>
</g>
<g class="st125">
	<text transform="matrix(0.6032 0.7976 -0.7976 0.6032 649.7911 743.2869)" class="st126 st127 st131">Rhodobacteraceae</text>
</g>
<g class="st125">
	<text transform="matrix(0.6032 0.7976 -0.7976 0.6032 705.2667 817.3062)" class="st126 st127 st128">Rhodobacter</text>
</g>
<g class="st125">
	<text transform="matrix(0.6032 0.7976 -0.7976 0.6032 761.8594 890.481)" class="st126 st127 st169">Rhodobacter sphaeroides</text>
</g>
<g class="st125">
	<text transform="matrix(0.5988 0.8009 -0.8009 0.5988 592.2076 670.8397)" class="st126 st127 st130">Rhodospirillales</text>
</g>
<g class="st125">
	<text transform="matrix(0.5988 0.8009 -0.8009 0.5988 647.7613 744.7994)" class="st126 st127 st131">Acetobacteraceae</text>
</g>
<g class="st125">
	<text transform="matrix(0.6003 0.7998 -0.7998 0.6003 703.6472 818.5161)" class="st126 st127 st128">Acidiphilium</text>
</g>
<g class="st125">
	<text transform="matrix(0.5974 0.8019 -0.8019 0.5974 702.022 819.7198)" class="st126 st127 st128">Belnapia</text>
</g>
<g class="st125">
	<text transform="matrix(0.5974 0.8019 -0.8019 0.5974 757.2817 893.8998)" class="st126 st127 st128">Belnapia rosea</text>
</g>
<g class="st125">
	<text transform="matrix(0.5945 0.8041 -0.8041 0.5945 590.4117 672.1597)" class="st126 st127 st128">Neisseriales</text>
</g>
<g class="st125">
	<text transform="matrix(0.5945 0.8041 -0.8041 0.5945 645.8843 746.1822)" class="st126 st127 st132">Chromobacteriaceae</text>
</g>
<g class="st125">
	<text transform="matrix(0.5916 0.8062 -0.8062 0.5916 589.4783 672.8367)" class="st126 st127 st130">Alteromonadales</text>
</g>
<g class="st125">
	<text transform="matrix(0.5916 0.8062 -0.8062 0.5916 644.0389 747.5328)" class="st126 st127 st128">Idiomarinaceae</text>
</g>
<g class="st125">
	<text transform="matrix(0.5916 0.8062 -0.8062 0.5916 698.7596 822.1102)" class="st126 st127 st128">Idiomarina</text>
</g>
<g class="st125">
	<text transform="matrix(0.5916 0.8062 -0.8062 0.5916 754.1268 896.2147)" class="st126 st127 st171">Idiomarina planktonica</text>
</g>
<g class="st125">
	<text transform="matrix(0.5857 0.8105 -0.8105 0.5857 587.6058 674.1823)" class="st126 st127 st132">Deltaproteobacteria</text>
</g>
<g class="st125">
	<text transform="matrix(0.562 0.8271 -0.8271 0.562 578.5486 680.4637)" class="st126 st127 st131">Verrucomicrobiales</text>
</g>
<g class="st125">
	<text transform="matrix(0.562 0.8271 -0.8271 0.562 630.5369 756.9715)" class="st126 st127 st131">Akkermansiaceae</text>
</g>
<g class="st125">
	<text transform="matrix(0.562 0.8271 -0.8271 0.562 682.1941 833.7039)" class="st126 st127 st128">Akkermansia</text>
</g>
<g class="st125">
	<text transform="matrix(0.5635 0.8261 -0.8261 0.5635 735.9854 908.9885)" class="st126 st127 st169">Akkermansia muciniphila</text>
</g>
<g class="st125">
	<text transform="matrix(0.571 -0.821 0.821 0.571 122.5093 730.0488)" class="st126 st127 st128">Ascomycota</text>
</g>
<g class="st125">
	<text transform="matrix(0.571 -0.821 0.821 0.571 59.9727 819.2636)" class="st126 st127 st131">Saccharomycotina</text>
</g>
<g class="st125">
	<text transform="matrix(0.571 -0.821 0.821 0.571 8.9556 892.6171)" class="st126 st127 st131">Saccharomycetes</text>
</g>
<g class="st125">
	<text transform="matrix(0.571 -0.821 0.821 0.571 -43.3454 967.4658)" class="st126 st127 st132">Saccharomycetales</text>
</g>
<g class="st125">
	<text transform="matrix(0.571 -0.821 0.821 0.571 -95.3735 1041.9219)" class="st126 st127 st171">Saccharomycetaceae</text>
</g>
<g class="st125">
	<text transform="matrix(0.571 -0.821 0.821 0.571 -149.1816 1120.6895)" class="st126 st127 st128">Naumovozyma</text>
</g>
<g class="st125">
	<text transform="matrix(0.571 -0.821 0.821 0.571 -203.7912 1197.8066)" class="st126 st127 st171">Naumovozyma castellii</text>
</g>
<g class="st125">
	<text transform="matrix(0.5739 -0.8189 0.8189 0.5739 121.2158 729.1409)" class="st126 st127 st128">Stichotrichia</text>
</g>
<g class="st125">
	<text transform="matrix(0.5739 -0.8189 0.8189 0.5739 61.104 814.5579)" class="st126 st127 st130">Sporadotrichida</text>
</g>
<g class="st125">
	<text transform="matrix(0.5739 -0.8189 0.8189 0.5739 14.6498 881.1859)" class="st126 st127 st128">Oxytrichidae</text>
</g>
<g class="st125">
	<text transform="matrix(0.5739 -0.8189 0.8189 0.5739 -38.1854 956.5706)" class="st126 st127 st128">Oxytrichinae</text>
</g>
<g class="st125">
	<text transform="matrix(0.5739 -0.8189 0.8189 0.5739 -82.2188 1019.3958)" class="st126 st127 st128">Oxytricha</text>
</g>
<g class="st125">
	<text transform="matrix(0.5739 -0.8189 0.8189 0.5739 -150.6985 1116.4045)" class="st126 st127 st131">Oxytricha trifallax</text>
</g>
<g class="st125">
	<text transform="matrix(0.5769 -0.8168 0.8168 0.5769 126.5849 718.7991)" class="st126 st127 st128">Hexapoda</text>
</g>
<g class="st125">
	<text transform="matrix(0.5769 -0.8168 0.8168 0.5769 82.7052 780.927)" class="st126 st127 st128">Insecta</text>
</g>
<g class="st125">
	<text transform="matrix(0.5769 -0.8168 0.8168 0.5769 21.7819 867.1848)" class="st126 st127 st128">Pterygota</text>
</g>
<g class="st125">
	<text transform="matrix(0.5769 -0.8168 0.8168 0.5769 -30.3011 940.926)" class="st126 st127 st128">Neoptera</text>
</g>
<g class="st125">
	<text transform="matrix(0.5769 -0.8168 0.8168 0.5769 -87.1331 1021.3918)" class="st126 st127 st128">Hemiptera</text>
</g>
<g>
	<path id="path-0" class="st133" d="M370,463.5c-51.6,0-93.5-41.9-93.5-93.5s41.9-93.5,93.5-93.5s93.5,41.9,93.5,93.5
		S421.6,463.5,370,463.5z"/>
	<path id="path-1" class="st134" d="M370,184c102.7,0,186,83.3,186,186s-83.3,186-186,186c-37.9,0-74.8-11.6-105.9-33.1l53.2-76.9
		c42,29.1,99.6,18.6,128.7-23.4s18.6-99.6-23.4-128.7c-15.5-10.7-33.9-16.5-52.7-16.5V184z"/>
	<path id="path-2" class="st135" d="M370,91.5c0.7,0,1.3,0,2,0l-0.7,93.5c-0.4,0-0.9,0-1.3,0V91.5z"/>
	<path id="path-3" class="st136" d="M370-1c0.4,0,0.9,0,1.3,0L371,92.5c-0.3,0-0.7,0-1,0V-1z"/>
	<path id="path-4" class="st137" d="M371.3-1c0.4,0,0.9,0,1.3,0L372,92.5c-0.3,0-0.7,0-1,0L371.3-1z"/>
	<path id="path-8" class="st138" d="M372,91.5c105.5,0.8,201.4,61,247.9,155.7L536,288.4c-30.9-62.9-94.6-102.9-164.7-103.4
		L372,91.5z"/>
	<path id="path-9" class="st139" d="M372.7-1c127,0.9,244.8,66.8,312,174.6l-79.3,49.5C555.1,142.5,467,93.2,372,92.5L372.7-1z"/>
	<path id="path-63" class="st140" d="M684.7,173.6c0.2,0.4,0.5,0.8,0.7,1.1l-79.5,49.2c-0.2-0.3-0.4-0.6-0.5-0.9L684.7,173.6z"/>
	<path id="path-67" class="st141" d="M685.4,174.7c6.4,10.3,12.2,20.8,17.5,31.7l-83.9,41.2c-4-8.1-8.4-16-13.1-23.7L685.4,174.7z"
		/>
	<path id="path-68" class="st142" d="M620,247.2c0.1,0.3,0.3,0.6,0.4,0.9L536.3,289c-0.1-0.2-0.2-0.4-0.3-0.6L620,247.2z"/>
	<path id="path-69" class="st143" d="M620.4,248.1c0.1,0.3,0.3,0.6,0.4,0.9l-84.2,40.6c-0.1-0.2-0.2-0.4-0.3-0.6L620.4,248.1z"/>
	<path id="path-70" class="st144" d="M620.8,249c13.6,28.2,22.3,58.5,25.9,89.6l-92.9,10.5c-2.3-20.7-8.2-40.8-17.2-59.5L620.8,249z
		"/>
	<path id="path-71" class="st145" d="M704.2,208.8c18.1,37.6,29.8,77.9,34.5,119.3l-92.9,10.5c-3.5-31-12.2-61.2-25.8-89.3
		L704.2,208.8z"/>
	<path id="path-76" class="st146" d="M646.7,338.6c11,96.5-29.2,191.8-105.9,251.4l-57.3-73.9c51-39.6,77.7-102.9,70.4-167
		L646.7,338.6z"/>
	<path id="path-77" class="st147" d="M738.6,328.2c13.7,120.6-32.4,240.2-123.5,320.4l-61.8-70.2c68.1-60,102.6-149.4,92.4-239.6
		L738.6,328.2z"/>
	<path id="path-106" class="st141" d="M615.1,648.5c-5.7,5-11.6,9.9-17.6,14.5l-57.3-73.9c4.5-3.5,8.9-7.1,13.1-10.9L615.1,648.5z"
		/>
	<path id="path-107" class="st148" d="M540.8,590c-0.3,0.2-0.5,0.4-0.8,0.6l-57.1-74.1c0.2-0.1,0.4-0.3,0.5-0.4L540.8,590z"/>
	<path id="path-108" class="st149" d="M597.5,663.1c-0.4,0.3-0.7,0.5-1.1,0.8l-57.1-74.1c0.3-0.2,0.5-0.4,0.8-0.6L597.5,663.1z"/>
	<path id="path-113" class="st150" d="M540,590.6c-0.3,0.2-0.5,0.4-0.8,0.6l-56.8-74.3c0.2-0.1,0.4-0.3,0.5-0.4L540,590.6z"/>
	<path id="path-114" class="st151" d="M539.2,591.2c-2.1,1.6-4.3,3.2-6.5,4.8l-54.6-75.9c1.4-1,2.9-2.1,4.3-3.2L539.2,591.2z"/>
	<path id="path-115" class="st152" d="M595.4,664.7c-1.4,1.1-2.9,2.2-4.3,3.2l-55.7-75.1c1.1-0.8,2.1-1.6,3.2-2.4L595.4,664.7z"/>
	<path id="path-129" class="st153" d="M591.1,667.9c-0.4,0.3-0.7,0.5-1.1,0.8l-55.4-75.3c0.3-0.2,0.5-0.4,0.8-0.6L591.1,667.9z"/>
	<path id="path-132" class="st154" d="M590,668.7c-0.4,0.3-0.7,0.5-1.1,0.8L533.8,594c0.3-0.2,0.5-0.4,0.8-0.6L590,668.7z"/>
	<path id="path-137" class="st155" d="M588.9,669.5c-0.4,0.3-0.7,0.5-1.1,0.8l-54.9-75.7c0.3-0.2,0.5-0.4,0.8-0.6L588.9,669.5z"/>
	<path id="path-138" class="st156" d="M587.9,670.3c-0.4,0.3-0.7,0.5-1.1,0.8l-54.6-75.9c0.3-0.2,0.5-0.4,0.8-0.6L587.9,670.3z"/>
	<path id="path-140" class="st157" d="M532.7,596c-4.1,2.9-8.3,5.8-12.5,8.5l-50.4-78.7c2.8-1.8,5.6-3.7,8.3-5.6L532.7,596z"/>
	<path id="path-141" class="st158" d="M586.8,671.1c-5.4,3.9-11,7.7-16.6,11.3l-50.4-78.7c4.2-2.7,8.4-5.5,12.5-8.5L586.8,671.1z"/>
	<path id="path-148" class="st159" d="M264.1,522.9c-1.7-1.1-3.3-2.3-4.9-3.5l55.7-75.1c0.8,0.6,1.6,1.2,2.4,1.8L264.1,522.9z"/>
	<path id="path-149" class="st160" d="M211.4,598.9c-0.3-0.2-0.6-0.4-0.8-0.6l53.5-76.7c0.2,0.1,0.4,0.3,0.5,0.4L211.4,598.9z"/>
	<path id="path-150" class="st161" d="M158.7,675c-0.4-0.3-0.7-0.5-1.1-0.8l53.5-76.7c0.3,0.2,0.5,0.4,0.8,0.6L158.7,675z"/>
	<path id="path-158" class="st162" d="M210.6,598.4c-0.3-0.2-0.6-0.4-0.8-0.6l53.8-76.5c0.2,0.1,0.4,0.3,0.5,0.4L210.6,598.4z"/>
	<path id="path-159" class="st163" d="M157.6,674.2c-0.4-0.3-0.7-0.5-1.1-0.8l53.8-76.5c0.3,0.2,0.5,0.4,0.8,0.6L157.6,674.2z"/>
	<path id="path-166" class="st164" d="M209.7,597.8c-0.3-0.2-0.5-0.4-0.8-0.6l54.1-76.3c0.2,0.1,0.4,0.3,0.5,0.4L209.7,597.8z"/>
	<path id="path-167" class="st165" d="M156.5,673.4c-0.4-0.3-0.7-0.5-1.1-0.8l54.1-76.3c0.3,0.2,0.5,0.4,0.8,0.6L156.5,673.4z"/>
	<path id="path-173" class="st166" d="M208.9,597.2c-0.3-0.2-0.5-0.4-0.8-0.6l54.4-76.1c0.2,0.1,0.4,0.3,0.5,0.4L208.9,597.2z"/>
	<path id="path-174" class="st167" d="M155.4,672.6c-0.4-0.3-0.7-0.5-1.1-0.8l54.4-76.1c0.3,0.2,0.5,0.4,0.8,0.6L155.4,672.6z"/>
	<path id="path-182" class="st141" d="M208.1,596.6c-1.4-1-2.7-2-4.1-3l55.7-75.1c0.9,0.7,1.8,1.3,2.7,2L208.1,596.6z"/>
	<text transform="matrix(6.123234e-17 1 -1 6.123234e-17 367.5996 374)" class="st127 st128">Organism</text>
	<text transform="matrix(0.9545 0.2983 -0.2983 0.9545 461.3895 401.0798)" class="st127 st128">Bacteria</text>
	<text transform="matrix(3.617231e-03 -1 1 3.617231e-03 373.0836 181.01)" class="st127 st128">Actinobacteria</text>
	<text transform="matrix(1.808685e-03 -1 1 1.808685e-03 372.9091 88.5047)" class="st127 st128">Actinobacteria</text>
	<text transform="matrix(5.425898e-03 -1 1 5.425898e-03 373.9274 88.5174)" class="st127 st128">Coriobacteriia</text>
	<text transform="matrix(0.5318 -0.8469 0.8469 0.5318 472.535 211.2124)" class="st127 st128">Bacteroidetes</text>
	<text transform="matrix(0.4882 -0.8727 0.8727 0.4882 509.5248 125.4987)" class="st127 st128">Bacteroidia</text>
	<text transform="matrix(0.8493 -0.5279 0.5279 0.8493 610.3426 223.4277)" class="st168 st127 st128">Flavobacteriia</text>
	<text transform="matrix(0.8983 -0.4393 0.4393 0.8983 540.3971 288.2212)" class="st168 st127 st169">Candidatus Daviesbacteria</text>
	<text transform="matrix(0.8999 -0.4361 0.4361 0.8999 540.6047 288.6581)" class="st168 st127 st170">Candidatus Zambryskibacteria</text>
	<text transform="matrix(0.9607 -0.2775 0.2775 0.9607 552.2406 319.8488)" class="st168 st127 st128">Deferribacteres</text>
	<text transform="matrix(0.9607 -0.2775 0.2775 0.9607 641.1063 294.1755)" class="st168 st127 st128">Deferribacteres</text>
	<text transform="matrix(0.9215 0.3883 -0.3883 0.9215 543.2365 445.6032)" class="st168 st127 st128">Firmicutes</text>
	<text transform="matrix(0.933 0.3598 -0.3598 0.933 631.7841 473.5237)" class="st168 st127 st128">Clostridia</text>
	<text transform="matrix(0.6118 0.791 -0.791 0.6118 483.7333 520.9688)" class="st127 st128">Fusobacteria</text>
	<text transform="matrix(0.6118 0.791 -0.791 0.6118 540.3251 594.137)" class="st127 st128">Fusobacteriia</text>
	<text transform="matrix(0.6089 0.7932 -0.7932 0.6089 483.1865 521.3792)" class="st127 st128">Ignavibacteriae</text>
	<text transform="matrix(0.5959 0.803 -0.803 0.5959 480.7068 523.2016)" class="st127 st128">Proteobacteria</text>
	<text transform="matrix(0.6017 0.7987 -0.7987 0.6017 537.9527 595.9142)" class="st127 st132">Alphaproteobacteria</text>
	<text transform="matrix(0.5945 0.8041 -0.8041 0.5945 535.9029 597.4239)" class="st127 st132">Betaproteobacteria</text>
	<text transform="matrix(0.5916 0.8062 -0.8062 0.5916 535.241 597.9044)" class="st127 st171">Gammaproteobacteria</text>
	<text transform="matrix(0.5887 0.8084 -0.8084 0.5887 534.0916 598.7358)" class="st127 st131">Zetaproteobacteria</text>
	<text transform="matrix(0.5857 0.8105 -0.8105 0.5857 533.7494 598.9765)" class="st127 st169">delta/epsilon subdivisions</text>
	<text transform="matrix(0.562 0.8271 -0.8271 0.562 474.406 527.5604)" class="st127 st130">Verrucomicrobia</text>
	<text transform="matrix(0.562 0.8271 -0.8271 0.562 526.5593 603.9559)" class="st127 st131">Verrucomicrobiae</text>
	<text transform="matrix(0.5828 -0.8126 0.8126 0.5828 286.6965 490.2708)" class="st127 st128">Eukaryota</text>
	<text transform="matrix(0.571 -0.821 0.821 0.571 249.333 547.7001)" class="st127 st128">Fungi</text>
	<text transform="matrix(0.571 -0.821 0.821 0.571 190.5564 632.2099)" class="st127 st128">Dikarya</text>
	<text transform="matrix(0.5739 -0.8189 0.8189 0.5739 220.8042 586.0052)" class="st127 st132">Intramacronucleata</text>
	<text transform="matrix(0.5739 -0.8189 0.8189 0.5739 175.58 651.5755)" class="st127 st128">Spirotrichea</text>
	<text transform="matrix(0.5769 -0.8168 0.8168 0.5769 238.5734 560.2405)" class="st127 st128">Metazoa</text>
	<text transform="matrix(0.5769 -0.8168 0.8168 0.5769 176.9923 647.4299)" class="st127 st128">Arthropoda</text>
	<text transform="matrix(0.5799 -0.8147 0.8147 0.5799 226.5378 575.7087)" class="st127 st128">Viridiplantae</text>
	<text transform="matrix(0.5799 -0.8147 0.8147 0.5799 170.7021 654.1599)" class="st127 st128">Streptophyta</text>
</g>
<g class="st125">
	<text transform="matrix(0.5799 -0.8147 0.8147 0.5799 111.6518 737.1276)" class="st126 st127 st128">Streptophytina</text>
</g>
<g class="st125">
	<text transform="matrix(0.5799 -0.8147 0.8147 0.5799 79.161 782.778)" class="st126 st127 st128">asterids</text>
</g>
<g class="st125">
	<text transform="matrix(0.5799 -0.8147 0.8147 0.5799 19.9857 865.9216)" class="st126 st127 st128">Solanales</text>
</g>
<g class="st125">
	<text transform="matrix(0.5799 -0.8147 0.8147 0.5799 -39.8368 949.9743)" class="st126 st127 st128">Solanaceae</text>
</g>
<g class="st125">
	<text transform="matrix(0.5799 -0.8147 0.8147 0.5799 -103.6529 1039.6384)" class="st126 st127 st128">Nicotianoideae</text>
</g>
<g class="st125">
	<text transform="matrix(0.5799 -0.8147 0.8147 0.5799 -147.6248 1101.4207)" class="st126 st127 st128">Nicotianeae</text>
</g>
<g class="st125">
	<text transform="matrix(0.5799 -0.8147 0.8147 0.5799 -193.7884 1166.283)" class="st126 st127 st128">Nicotiana</text>
</g>
</svg>
