<svg version="1.1" xmlns="http://www.w3.org/2000/svg" viewBox="0 0 916 600" width="916" height="600" style="font-family: &quot;Helvetica Neue&quot;, Helvetica, Arial, sans-serif;"><g transform="translate(5,5)"><g transform="translate(226.5,295)"><path class="link" d="M360,8.476848484848475C450,8.476848484848475 450,-26.9109090909091 540,-26.9109090909091" style="fill: none; stroke-opacity: 0.5; stroke-linecap: round; stroke: rgb(21, 101, 192); stroke-width: 2.27467px;"></path><path class="link" d="M360,8.476848484848475C450,8.476848484848475 450,3.3145454545454456 540,3.3145454545454456" style="fill: none; stroke-opacity: 0.5; stroke-linecap: round; stroke: rgb(21, 101, 192); stroke-width: 42.1762px;"></path><path class="link" d="M360,8.476848484848475C450,8.476848484848475 450,33.627393939393926 540,33.627393939393926" style="fill: none; stroke-opacity: 0.5; stroke-linecap: round; stroke: rgb(21, 101, 192); stroke-width: 2.44945px;"></path><path class="link" d="M360,8.476848484848475C450,8.476848484848475 450,43.86460606060605 540,43.86460606060605" style="fill: none; stroke-opacity: 0.5; stroke-linecap: round; stroke: rgb(21, 101, 192); stroke-width: 2.02497px;"></path><path class="link" d="M180,-2.072484848484855C270,-2.072484848484855 270,-55.40666666666668 360,-55.40666666666668" style="fill: none; stroke-opacity: 0.5; stroke-linecap: round; stroke: rgb(21, 101, 192); stroke-width: 2.34958px;"></path><path class="link" d="M180,-2.072484848484855C270,-2.072484848484855 270,-44.74496969696971 360,-44.74496969696971" style="fill: none; stroke-opacity: 0.5; stroke-linecap: round; stroke: rgb(21, 101, 192); stroke-width: 2.97382px;"></path><path class="link" d="M180,-2.072484848484855C270,-2.072484848484855 270,-34.24557575757577 360,-34.24557575757577" style="fill: none; stroke-opacity: 0.5; stroke-linecap: round; stroke: rgb(21, 101, 192); stroke-width: 2.02497px;"></path><path class="link" d="M180,-2.072484848484855C270,-2.072484848484855 270,-24.208121212121227 360,-24.208121212121227" style="fill: none; stroke-opacity: 0.5; stroke-linecap: round; stroke: rgb(21, 101, 192); stroke-width: 2.04994px;"></path><path class="link" d="M180,-2.072484848484855C270,-2.072484848484855 270,8.476848484848475 360,8.476848484848475" style="fill: none; stroke-opacity: 0.5; stroke-linecap: round; stroke: rgb(21, 101, 192); stroke-width: 47.32px;"></path><path class="link" d="M180,-2.072484848484855C270,-2.072484848484855 270,41.14933333333333 360,41.14933333333333" style="fill: none; stroke-opacity: 0.5; stroke-linecap: round; stroke: rgb(21, 101, 192); stroke-width: 2.02497px;"></path><path class="link" d="M180,-2.072484848484855C270,-2.072484848484855 270,51.26169696969697 360,51.26169696969697" style="fill: none; stroke-opacity: 0.5; stroke-linecap: round; stroke: rgb(21, 101, 192); stroke-width: 2.19976px;"></path><path class="link" d="M0,0C90,0 90,-42.17345454545455 180,-42.17345454545455" style="fill: none; stroke-opacity: 0.5; stroke-linecap: round; stroke: rgb(255, 143, 0); stroke-width: 2.02497px;"></path><path class="link" d="M0,0C90,0 90,-2.072484848484855 180,-2.072484848484855" style="fill: none; stroke-opacity: 0.5; stroke-linecap: round; stroke: rgb(21, 101, 192); stroke-width: 62.177px;"></path><path class="link" d="M0,0C90,0 90,42.17345454545455 180,42.17345454545455" style="fill: none; stroke-opacity: 0.5; stroke-linecap: round; stroke: rgb(46, 125, 50); stroke-width: 10.3149px;"></path><g class="node" transform="translate(180,42.17345428466797)" style="cursor: pointer;"><circle r="5.157454545454545" style="stroke-width: 1.5px; stroke: rgb(46, 125, 50); fill: rgb(46, 125, 50);"></circle><path d="M3.158030100419438e-16,-5.157454545454545A5.157454545454545,5.157454545454545 0 0,1 4.748411993192275,-2.0129383823995988L0,0Z" style="fill: rgb(46, 125, 50); fill-opacity: 0.8;"></path><text x="-10" dy=".35em" text-anchor="end" style="font: 10px sans-serif; fill-opacity: 1;">Eukaryota</text></g><g class="node" transform="translate(360,51.261695861816406)" style="cursor: pointer;"><circle r="1.099878787878788" style="stroke-width: 1.5px; stroke: rgb(21, 101, 192); fill: rgb(21, 101, 192);"></circle><path d="M6.734815185129141e-17,-1.099878787878788A1.099878787878788,1.099878787878788 0 0,1 6.734815185129141e-17,-1.099878787878788L0,0Z" style="fill: rgb(21, 101, 192); fill-opacity: 0.8;"></path><text x="-10" dy=".35em" text-anchor="end" style="font: 10px sans-serif; fill-opacity: 1;">Proteobacteria</text></g><g class="node" transform="translate(360,41.14933395385742)" style="cursor: pointer;"><circle r="1.0124848484848485" style="stroke-width: 1.5px; stroke: rgb(21, 101, 192); fill: rgb(21, 101, 192);"></circle><path d="M6.199681644410813e-17,-1.0124848484848485A1.0124848484848485,1.0124848484848485 0 0,1 6.199681644410813e-17,-1.0124848484848485L0,0Z" style="fill: rgb(21, 101, 192); fill-opacity: 0.8;"></path><text x="-10" dy=".35em" text-anchor="end" style="font: 10px sans-serif; fill-opacity: 1;">Fusobacteria</text></g><g class="node" transform="translate(540,43.86460494995117)" style="cursor: pointer;"><circle r="1.0124848484848485" style="stroke-width: 1.5px; stroke: rgb(21, 101, 192); fill: rgb(21, 101, 192);"></circle><path d="M6.199681644410813e-17,-1.0124848484848485A1.0124848484848485,1.0124848484848485 0 0,1 6.199681644410813e-17,-1.0124848484848485L0,0Z" style="fill: rgb(21, 101, 192); fill-opacity: 0.8;"></path><text x="-10" dy=".35em" text-anchor="end" style="font: 10px sans-serif; fill-opacity: 1;">Negativicutes</text></g><g class="node" transform="translate(540,33.62739562988281)" style="cursor: pointer;"><circle r="1.2247272727272727" style="stroke-width: 1.5px; stroke: rgb(21, 101, 192); fill: rgb(21, 101, 192);"></circle><path d="M7.49929167186961e-17,-1.2247272727272727A1.2247272727272727,1.2247272727272727 0 0,1 7.49929167186961e-17,-1.2247272727272727L0,0Z" style="fill: rgb(21, 101, 192); fill-opacity: 0.8;"></path><text x="-10" dy=".35em" text-anchor="end" style="font: 10px sans-serif; fill-opacity: 1;">Erysipelotrichia</text></g><g class="node" transform="translate(540,3.3145453929901123)" style="cursor: pointer;"><circle r="21.088121212121212" style="stroke-width: 1.5px; stroke: rgb(21, 101, 192); fill: rgb(21, 101, 192);"></circle><path d="M1.2912750071227822e-15,-21.088121212121212A21.088121212121212,21.088121212121212 0 0,1 0.4117220467355528,-21.084101622154748L0,0Z" style="fill: rgb(21, 101, 192); fill-opacity: 0.8;"></path><text x="-10" dy=".35em" text-anchor="end" style="font: 10px sans-serif; fill-opacity: 1;">Clostridia</text></g><g class="node" transform="translate(540,-26.91090965270996)" style="cursor: pointer;"><circle r="1.1373333333333333" style="stroke-width: 1.5px; stroke: rgb(21, 101, 192); fill: rgb(21, 101, 192);"></circle><path d="M6.964158131151282e-17,-1.1373333333333333A1.1373333333333333,1.1373333333333333 0 0,1 6.964158131151282e-17,-1.1373333333333333L0,0Z" style="fill: rgb(21, 101, 192); fill-opacity: 0.8;"></path><text x="-10" dy=".35em" text-anchor="end" style="font: 10px sans-serif; fill-opacity: 1;">Bacilli</text></g><g class="node" transform="translate(360,8.476848602294922)" style="cursor: pointer;"><circle r="23.66" style="stroke-width: 1.5px; stroke: rgb(21, 101, 192); fill: rgb(255, 255, 255); fill-opacity: 0;"></circle><path d="M1.4487571633913188e-15,-23.66A23.66,23.66 0 0,1 13.540050081995103,-19.40264527782396L0,0Z" style="fill: rgb(21, 101, 192); fill-opacity: 0.8;"></path><text x="-10" dy=".35em" text-anchor="end" style="font: 10px sans-serif; fill-opacity: 1;">Firmicutes</text></g><g class="node" transform="translate(360,-24.208120346069336)" style="cursor: pointer;"><circle r="1.0249696969696969" style="stroke-width: 1.5px; stroke: rgb(21, 101, 192); fill: rgb(21, 101, 192);"></circle><path d="M6.27612929308486e-17,-1.0249696969696969A1.0249696969696969,1.0249696969696969 0 0,1 6.27612929308486e-17,1.0249696969696969L0,0Z" style="fill: rgb(21, 101, 192); fill-opacity: 0.8;"></path><text x="-10" dy=".35em" text-anchor="end" style="font: 10px sans-serif; fill-opacity: 1;">Chlamydiae</text></g><g class="node" transform="translate(360,-34.245574951171875)" style="cursor: pointer;"><circle r="1.0124848484848485" style="stroke-width: 1.5px; stroke: rgb(21, 101, 192); fill: rgb(255, 255, 255); fill-opacity: 0;"></circle><path d="M0,1.0124848484848485A1.0124848484848485,1.0124848484848485 0 1,1 0,-1.0124848484848485A1.0124848484848485,1.0124848484848485 0 1,1 0,1.0124848484848485Z" style="fill: rgb(21, 101, 192); fill-opacity: 0.8;"></path><text x="10" dy=".35em" text-anchor="start" style="font: 10px sans-serif; fill-opacity: 1;">Candidatus Peregrinibacteria</text></g><g class="node" transform="translate(360,-44.74496841430664)" style="cursor: pointer;"><circle r="1.486909090909091" style="stroke-width: 1.5px; stroke: rgb(21, 101, 192); fill: rgb(21, 101, 192);"></circle><path d="M9.104692294024595e-17,-1.486909090909091A1.486909090909091,1.486909090909091 0 0,1 0.6910011092679891,-1.316592614143991L0,0Z" style="fill: rgb(21, 101, 192); fill-opacity: 0.8;"></path><text x="-10" dy=".35em" text-anchor="end" style="font: 10px sans-serif; fill-opacity: 1;">Bacteroidetes</text></g><g class="node" transform="translate(360,-55.40666580200195)" style="cursor: pointer;"><circle r="1.1747878787878787" style="stroke-width: 1.5px; stroke: rgb(21, 101, 192); fill: rgb(21, 101, 192);"></circle><path d="M7.193501077173422e-17,-1.1747878787878787A1.1747878787878787,1.1747878787878787 0 0,1 7.193501077173422e-17,-1.1747878787878787L0,0Z" style="fill: rgb(21, 101, 192); fill-opacity: 0.8;"></path><text x="-10" dy=".35em" text-anchor="end" style="font: 10px sans-serif; fill-opacity: 1;">Actinobacteria</text></g><g class="node" transform="translate(180,-2.0724847316741943)" style="cursor: pointer;"><circle r="31.088484848484846" style="stroke-width: 1.5px; stroke: rgb(21, 101, 192); fill: rgb(255, 255, 255); fill-opacity: 0;"></circle><path d="M1.9036206730018976e-15,-31.088484848484846A31.088484848484846,31.088484848484846 0 0,1 30.534780643289448,-5.841323586368747L0,0Z" style="fill: rgb(21, 101, 192); fill-opacity: 0.8;"></path><text x="-10" dy=".35em" text-anchor="end" style="font: 10px sans-serif; fill-opacity: 1;">Bacteria</text></g><g class="node" transform="translate(180,-42.17345428466797)" style="cursor: pointer;"><circle r="1.0124848484848485" style="stroke-width: 1.5px; stroke: rgb(255, 143, 0); fill: rgb(255, 143, 0);"></circle><path d="M6.199681644410813e-17,-1.0124848484848485A1.0124848484848485,1.0124848484848485 0 0,1 6.199681644410813e-17,-1.0124848484848485L0,0Z" style="fill: rgb(255, 143, 0); fill-opacity: 0.8;"></path><text x="-10" dy=".35em" text-anchor="end" style="font: 10px sans-serif; fill-opacity: 1;">Archaea</text></g><g class="node" transform="translate(0,0)" style="cursor: pointer;"><circle r="52.5" style="stroke-width: 1.5px; stroke: rgb(170, 170, 170); fill: rgb(255, 255, 255); fill-opacity: 0;"></circle><path d="M3.214697847761802e-15,-52.5A52.5,52.5 0 0,1 45.22453483417341,26.66442290829929L0,0Z" style="fill: rgb(170, 170, 170); fill-opacity: 0.8;"></path><text x="-10" dy=".35em" text-anchor="end" style="font: 10px sans-serif; fill-opacity: 1;">Organism</text></g></g></g></svg>