<svg version="1.1" xmlns="http://www.w3.org/2000/svg" viewBox="0 0 916 600" width="916" height="600" style="font-family: &quot;Helvetica Neue&quot;, Helvetica, Arial, sans-serif;"><g transform="translate(5,5)"><g transform="translate(226.5,295)"><path class="link" d="M360,4.201141967298213C450,4.201141967298213 450,-13.062354009862446 540,-13.062354009862446" style="fill: none; stroke-opacity: 0.5; stroke-linecap: round; stroke: rgb(21, 101, 192); stroke-width: 3.52375px;"></path><path class="link" d="M360,4.201141967298213C450,4.201141967298213 450,21.464637944458858 540,21.464637944458858" style="fill: none; stroke-opacity: 0.5; stroke-linecap: round; stroke: rgb(21, 101, 192); stroke-width: 49.5302px;"></path><path class="link" d="M180,-22.249091616921874C270,-22.249091616921874 270,-85.7658967038671 360,-85.7658967038671" style="fill: none; stroke-opacity: 0.5; stroke-linecap: round; stroke: rgb(21, 101, 192); stroke-width: 2.02673px;"></path><path class="link" d="M180,-22.249091616921874C270,-22.249091616921874 270,-74.33571243187126 360,-74.33571243187126" style="fill: none; stroke-opacity: 0.5; stroke-linecap: round; stroke: rgb(21, 101, 192); stroke-width: 4.83364px;"></path><path class="link" d="M180,-22.249091616921874C270,-22.249091616921874 270,-62.9055281598754 360,-62.9055281598754" style="fill: none; stroke-opacity: 0.5; stroke-linecap: round; stroke: rgb(21, 101, 192); stroke-width: 2.02673px;"></path><path class="link" d="M180,-22.249091616921874C270,-22.249091616921874 270,-52.87879574357642 360,-52.87879574357642" style="fill: none; stroke-opacity: 0.5; stroke-linecap: round; stroke: rgb(21, 101, 192); stroke-width: 2.02673px;"></path><path class="link" d="M180,-22.249091616921874C270,-22.249091616921874 270,-42.852063327277435 360,-42.852063327277435" style="fill: none; stroke-opacity: 0.5; stroke-linecap: round; stroke: rgb(21, 101, 192); stroke-width: 2.02673px;"></path><path class="link" d="M180,-22.249091616921874C270,-22.249091616921874 270,-32.82533091097845 360,-32.82533091097845" style="fill: none; stroke-opacity: 0.5; stroke-linecap: round; stroke: rgb(21, 101, 192); stroke-width: 2.02673px;"></path><path class="link" d="M180,-22.249091616921874C270,-22.249091616921874 270,4.201141967298213 360,4.201141967298213" style="fill: none; stroke-opacity: 0.5; stroke-linecap: round; stroke: rgb(21, 101, 192); stroke-width: 56.0262px;"></path><path class="link" d="M180,-22.249091616921874C270,-22.249091616921874 270,41.26771347002335 360,41.26771347002335" style="fill: none; stroke-opacity: 0.5; stroke-linecap: round; stroke: rgb(21, 101, 192); stroke-width: 2.10693px;"></path><path class="link" d="M0,0C90,0 90,-22.249091616921874 180,-22.249091616921874" style="fill: none; stroke-opacity: 0.5; stroke-linecap: round; stroke: rgb(21, 101, 192); stroke-width: 70.9429px;"></path><path class="link" d="M0,0C90,0 90,22.249091616921874 180,22.249091616921874" style="fill: none; stroke-opacity: 0.5; stroke-linecap: round; stroke: rgb(46, 125, 50); stroke-width: 2.05346px;"></path><g class="node" transform="translate(180,22.24909210205078)" style="cursor: pointer;"><circle r="1.026732416298988" style="stroke-width: 1.5px; stroke: rgb(46, 125, 50); fill: rgb(46, 125, 50);"></circle><path d="M6.286922836006916e-17,-1.026732416298988A1.026732416298988,1.026732416298988 0 0,1 6.286922836006916e-17,-1.026732416298988L0,0Z" style="fill: rgb(46, 125, 50); fill-opacity: 0.8;"></path><text x="-10" dy=".35em" text-anchor="end" style="font: 10px sans-serif; fill-opacity: 1;">Eukaryota</text></g><g class="node" transform="translate(360,41.2677116394043)" style="cursor: pointer;"><circle r="1.0534648325979756" style="stroke-width: 1.5px; stroke: rgb(21, 101, 192); fill: rgb(21, 101, 192);"></circle><path d="M6.450611676277065e-17,-1.0534648325979756A1.0534648325979756,1.0534648325979756 0 0,1 6.450611676277065e-17,-1.0534648325979756L0,0Z" style="fill: rgb(21, 101, 192); fill-opacity: 0.8;"></path><text x="-10" dy=".35em" text-anchor="end" style="font: 10px sans-serif; fill-opacity: 1;">Proteobacteria</text></g><g class="node" transform="translate(540,21.464637756347656)" style="cursor: pointer;"><circle r="24.765118089800154" style="stroke-width: 1.5px; stroke: rgb(21, 101, 192); fill: rgb(21, 101, 192);"></circle><path d="M1.5164261299589987e-15,-24.765118089800154A24.765118089800154,24.765118089800154 0 0,1 0.4375582946875472,-24.761252325770943L0,0Z" style="fill: rgb(21, 101, 192); fill-opacity: 0.8;"></path><text x="-10" dy=".35em" text-anchor="end" style="font: 10px sans-serif; fill-opacity: 1;">Clostridia</text></g><g class="node" transform="translate(540,-13.06235408782959)" style="cursor: pointer;"><circle r="1.7618738645211525" style="stroke-width: 1.5px; stroke: rgb(21, 101, 192); fill: rgb(21, 101, 192);"></circle><path d="M1.0788365943436034e-16,-1.7618738645211525A1.7618738645211525,1.7618738645211525 0 0,1 1.0788365943436034e-16,-1.7618738645211525L0,0Z" style="fill: rgb(21, 101, 192); fill-opacity: 0.8;"></path><text x="-10" dy=".35em" text-anchor="end" style="font: 10px sans-serif; fill-opacity: 1;">Bacilli</text></g><g class="node" transform="translate(360,4.201141834259033)" style="cursor: pointer;"><circle r="28.013106670127172" style="stroke-width: 1.5px; stroke: rgb(21, 101, 192); fill: rgb(255, 255, 255); fill-opacity: 0;"></circle><path d="M1.7153080708872305e-15,-28.013106670127172A28.013106670127172,28.013106670127172 0 0,1 15.311162793180616,-23.45852593904069L0,0Z" style="fill: rgb(21, 101, 192); fill-opacity: 0.8;"></path><text x="-10" dy=".35em" text-anchor="end" style="font: 10px sans-serif; fill-opacity: 1;">Firmicutes</text></g><g class="node" transform="translate(360,-32.82533264160156)" style="cursor: pointer;"><circle r="1.0133662081494939" style="stroke-width: 1.5px; stroke: rgb(21, 101, 192); fill: rgb(21, 101, 192);"></circle><path d="M6.205078415871841e-17,-1.0133662081494939A1.0133662081494939,1.0133662081494939 0 0,1 6.205078415871841e-17,-1.0133662081494939L0,0Z" style="fill: rgb(21, 101, 192); fill-opacity: 0.8;"></path><text x="-10" dy=".35em" text-anchor="end" style="font: 10px sans-serif; fill-opacity: 1;">Chloroflexi</text></g><g class="node" transform="translate(360,-42.8520622253418)" style="cursor: pointer;"><circle r="1.0133662081494939" style="stroke-width: 1.5px; stroke: rgb(21, 101, 192); fill: rgb(255, 255, 255); fill-opacity: 0;"></circle><path d="M0,1.0133662081494939A1.0133662081494939,1.0133662081494939 0 1,1 0,-1.0133662081494939A1.0133662081494939,1.0133662081494939 0 1,1 0,1.0133662081494939Z" style="fill: rgb(21, 101, 192); fill-opacity: 0.8;"></path><text x="10" dy=".35em" text-anchor="start" style="font: 10px sans-serif; fill-opacity: 1;">Chlamydiae</text></g><g class="node" transform="translate(360,-52.8787956237793)" style="cursor: pointer;"><circle r="1.0133662081494939" style="stroke-width: 1.5px; stroke: rgb(21, 101, 192); fill: rgb(255, 255, 255); fill-opacity: 0;"></circle><path d="M0,1.0133662081494939A1.0133662081494939,1.0133662081494939 0 1,1 0,-1.0133662081494939A1.0133662081494939,1.0133662081494939 0 1,1 0,1.0133662081494939Z" style="fill: rgb(21, 101, 192); fill-opacity: 0.8;"></path><text x="10" dy=".35em" text-anchor="start" style="font: 10px sans-serif; fill-opacity: 1;">Candidatus Zambryskibacteria</text></g><g class="node" transform="translate(360,-62.9055290222168)" style="cursor: pointer;"><circle r="1.0133662081494939" style="stroke-width: 1.5px; stroke: rgb(21, 101, 192); fill: rgb(255, 255, 255); fill-opacity: 0;"></circle><path d="M0,1.0133662081494939A1.0133662081494939,1.0133662081494939 0 1,1 0,-1.0133662081494939A1.0133662081494939,1.0133662081494939 0 1,1 0,1.0133662081494939Z" style="fill: rgb(21, 101, 192); fill-opacity: 0.8;"></path><text x="10" dy=".35em" text-anchor="start" style="font: 10px sans-serif; fill-opacity: 1;">Candidatus Beckwithbacteria</text></g><g class="node" transform="translate(360,-74.33570861816406)" style="cursor: pointer;"><circle r="2.4168180638463537" style="stroke-width: 1.5px; stroke: rgb(21, 101, 192); fill: rgb(21, 101, 192);"></circle><path d="M1.4798742530054702e-16,-2.4168180638463537A2.4168180638463537,2.4168180638463537 0 0,1 0.7058480789440746,-2.3114471750799317L0,0Z" style="fill: rgb(21, 101, 192); fill-opacity: 0.8;"></path><text x="-10" dy=".35em" text-anchor="end" style="font: 10px sans-serif; fill-opacity: 1;">Bacteroidetes</text></g><g class="node" transform="translate(360,-85.76589965820312)" style="cursor: pointer;"><circle r="1.0133662081494939" style="stroke-width: 1.5px; stroke: rgb(21, 101, 192); fill: rgb(21, 101, 192);"></circle><path d="M6.205078415871841e-17,-1.0133662081494939A1.0133662081494939,1.0133662081494939 0 0,1 6.205078415871841e-17,-1.0133662081494939L0,0Z" style="fill: rgb(21, 101, 192); fill-opacity: 0.8;"></path><text x="-10" dy=".35em" text-anchor="end" style="font: 10px sans-serif; fill-opacity: 1;">Actinobacteria</text></g><g class="node" transform="translate(180,-22.24909210205078)" style="cursor: pointer;"><circle r="35.47145081754476" style="stroke-width: 1.5px; stroke: rgb(21, 101, 192); fill: rgb(255, 255, 255); fill-opacity: 0;"></circle><path d="M2.171999935240948e-15,-35.47145081754476A35.47145081754476,35.47145081754476 0 0,1 31.272199313168546,-16.741367125147153L0,0Z" style="fill: rgb(21, 101, 192); fill-opacity: 0.8;"></path><text x="-10" dy=".35em" text-anchor="end" style="font: 10px sans-serif; fill-opacity: 1;">Bacteria</text></g><g class="node" transform="translate(0,0)" style="cursor: pointer;"><circle r="52.5" style="stroke-width: 1.5px; stroke: rgb(170, 170, 170); fill: rgb(255, 255, 255); fill-opacity: 0;"></circle><path d="M3.214697847761802e-15,-52.5A52.5,52.5 0 0,1 45.985050140013605,25.33032103271561L0,0Z" style="fill: rgb(170, 170, 170); fill-opacity: 0.8;"></path><text x="-10" dy=".35em" text-anchor="end" style="font: 10px sans-serif; fill-opacity: 1;">Organism</text></g></g></g></svg>