<?xml version="1.0" encoding="utf-8"?>
<!-- Generator: Adobe Illustrator 23.0.6, SVG Export Plug-In . SVG Version: 6.00 Build 0)  -->
<svg version="1.1" id="Layer_1" xmlns="http://www.w3.org/2000/svg" xmlns:xlink="http://www.w3.org/1999/xlink" x="0px" y="0px"
	 viewBox="0 0 740 740" style="enable-background:new 0 0 740 740;" xml:space="preserve">
<style type="text/css">
	.st0{fill-rule:evenodd;clip-rule:evenodd;fill:#F2E08E;}
	.st1{fill-rule:evenodd;clip-rule:evenodd;fill:#F8EFA3;}
	.st2{fill-rule:evenodd;clip-rule:evenodd;fill:#F9F0AB;}
	.st3{fill-rule:evenodd;clip-rule:evenodd;fill:#EACF7B;}
	.st4{fill-rule:evenodd;clip-rule:evenodd;fill:#E7DE7F;}
	.st5{display:none;fill-rule:evenodd;clip-rule:evenodd;fill:#E4E084;fill-opacity:0.2;}
	.st6{display:none;fill-rule:evenodd;clip-rule:evenodd;fill:#E5E28A;fill-opacity:0.2;}
	.st7{display:none;fill-rule:evenodd;clip-rule:evenodd;fill:#E7E390;fill-opacity:0.2;}
	.st8{display:none;fill-rule:evenodd;clip-rule:evenodd;fill:#E8E596;fill-opacity:0.2;}
	.st9{display:none;fill-rule:evenodd;clip-rule:evenodd;fill:#FFFFFF;fill-opacity:0.2;}
	.st10{display:none;fill-rule:evenodd;clip-rule:evenodd;fill:#ECDF88;fill-opacity:0.2;}
	.st11{display:none;fill-rule:evenodd;clip-rule:evenodd;fill:#EEDE95;fill-opacity:0.2;}
	.st12{display:none;fill-rule:evenodd;clip-rule:evenodd;fill:#EFE09C;fill-opacity:0.2;}
	.st13{display:none;fill-rule:evenodd;clip-rule:evenodd;fill:#F0E2A3;fill-opacity:0.2;}
	.st14{display:none;fill-rule:evenodd;clip-rule:evenodd;fill:#EBE17A;fill-opacity:0.2;}
	.st15{display:none;fill-rule:evenodd;clip-rule:evenodd;fill:#ECE381;fill-opacity:0.2;}
	.st16{display:none;fill-rule:evenodd;clip-rule:evenodd;fill:#EDE487;fill-opacity:0.2;}
	.st17{fill-rule:evenodd;clip-rule:evenodd;fill:#EEBD77;}
	.st18{display:none;fill-rule:evenodd;clip-rule:evenodd;fill:#EFCC77;fill-opacity:0.2;}
	.st19{display:none;fill-rule:evenodd;clip-rule:evenodd;fill:#EED379;fill-opacity:0.2;}
	.st20{display:none;fill-rule:evenodd;clip-rule:evenodd;fill:#EFD580;fill-opacity:0.2;}
	.st21{display:none;fill-rule:evenodd;clip-rule:evenodd;fill:#F0C675;fill-opacity:0.2;}
	.st22{display:none;fill-rule:evenodd;clip-rule:evenodd;fill:#F0C87B;fill-opacity:0.2;}
	.st23{display:none;fill-rule:evenodd;clip-rule:evenodd;fill:#F1CB82;fill-opacity:0.2;}
	.st24{display:none;fill-rule:evenodd;clip-rule:evenodd;fill:#EEB684;fill-opacity:0.2;}
	.st25{display:none;fill-rule:evenodd;clip-rule:evenodd;fill:#EFBA8A;fill-opacity:0.2;}
	.st26{display:none;fill-rule:evenodd;clip-rule:evenodd;fill:#F0BE91;fill-opacity:0.2;}
	.st27{display:none;fill-rule:evenodd;clip-rule:evenodd;fill:#F1C298;fill-opacity:0.2;}
	.st28{fill-rule:evenodd;clip-rule:evenodd;fill:#E8B598;}
	.st29{fill-rule:evenodd;clip-rule:evenodd;fill:#C9D386;}
	.st30{display:none;fill-rule:evenodd;clip-rule:evenodd;fill:#CED791;fill-opacity:0.2;}
	.st31{display:none;fill-rule:evenodd;clip-rule:evenodd;fill:#D0D996;fill-opacity:0.2;}
	.st32{display:none;fill-rule:evenodd;clip-rule:evenodd;fill:#D2DB9B;fill-opacity:0.2;}
	.st33{display:none;fill-rule:evenodd;clip-rule:evenodd;fill:#D5DDA1;fill-opacity:0.2;}
	.st34{fill-rule:evenodd;clip-rule:evenodd;fill:#BDC792;}
	.st35{display:none;fill-rule:evenodd;clip-rule:evenodd;fill:#C2CCAB;fill-opacity:0.2;}
	.st36{display:none;fill-rule:evenodd;clip-rule:evenodd;fill:#C5CFB0;fill-opacity:0.2;}
	.st37{display:none;fill-rule:evenodd;clip-rule:evenodd;fill:#C9D2B5;fill-opacity:0.2;}
	.st38{display:none;fill-rule:evenodd;clip-rule:evenodd;fill:#C2C981;fill-opacity:0.2;}
	.st39{display:none;fill-rule:evenodd;clip-rule:evenodd;fill:#9CB890;fill-opacity:0.2;}
	.st40{display:none;fill-rule:evenodd;clip-rule:evenodd;fill:#AABEA9;fill-opacity:0.2;}
	.st41{display:none;fill-rule:evenodd;clip-rule:evenodd;fill:#AEC1AD;fill-opacity:0.2;}
	.st42{display:none;fill-rule:evenodd;clip-rule:evenodd;fill:#99B474;fill-opacity:0.2;}
	.st43{display:none;fill-rule:evenodd;clip-rule:evenodd;fill:#A7B8A8;fill-opacity:0.2;}
	.st44{display:none;fill-rule:evenodd;clip-rule:evenodd;fill:#B49A3D;fill-opacity:0.2;}
	.st45{display:none;fill-rule:evenodd;clip-rule:evenodd;fill:#AE8346;fill-opacity:0.2;}
	.st46{display:none;fill-rule:evenodd;clip-rule:evenodd;fill:#B28647;fill-opacity:0.2;}
	.st47{display:none;fill-rule:evenodd;clip-rule:evenodd;fill:#A67A31;fill-opacity:0.2;}
	.st48{display:none;fill-rule:evenodd;clip-rule:evenodd;fill:#A97D32;fill-opacity:0.2;}
	.st49{display:none;fill-rule:evenodd;clip-rule:evenodd;fill:#B28033;fill-opacity:0.2;}
	.st50{display:none;fill-rule:evenodd;clip-rule:evenodd;fill:#B68334;fill-opacity:0.2;}
	.st51{display:none;fill-rule:evenodd;clip-rule:evenodd;fill:#D9A573;fill-opacity:0.2;}
	.st52{display:none;fill-rule:evenodd;clip-rule:evenodd;fill:#DAA978;fill-opacity:0.2;}
	.st53{display:none;fill-rule:evenodd;clip-rule:evenodd;fill:#D6A680;fill-opacity:0.2;}
	.st54{display:none;fill-rule:evenodd;clip-rule:evenodd;fill:#DFAD70;fill-opacity:0.2;}
	.st55{display:none;fill-rule:evenodd;clip-rule:evenodd;fill:#A2765D;fill-opacity:0.2;}
	.st56{display:none;fill-rule:evenodd;clip-rule:evenodd;fill:#9C6450;fill-opacity:0.2;}
	.st57{display:none;fill-rule:evenodd;clip-rule:evenodd;fill:#9F6652;fill-opacity:0.2;}
	.st58{display:none;fill-rule:evenodd;clip-rule:evenodd;fill:#AF5C43;fill-opacity:0.2;}
	.st59{display:none;fill-rule:evenodd;clip-rule:evenodd;fill:#BD704D;fill-opacity:0.2;}
	.st60{display:none;fill-rule:evenodd;clip-rule:evenodd;fill:#B9763F;fill-opacity:0.2;}
	.st61{display:none;fill-rule:evenodd;clip-rule:evenodd;fill:#BF6E5D;fill-opacity:0.2;}
	.st62{display:none;fill-rule:evenodd;clip-rule:evenodd;fill:#AF643C;fill-opacity:0.2;}
	.st63{display:none;fill-rule:evenodd;clip-rule:evenodd;fill:#9B4C3F;fill-opacity:0.2;}
	.st64{display:none;fill-rule:evenodd;clip-rule:evenodd;fill:#72659D;fill-opacity:0.2;}
	.st65{display:none;fill-rule:evenodd;clip-rule:evenodd;fill:#926498;fill-opacity:0.2;}
	.st66{display:none;fill-rule:evenodd;clip-rule:evenodd;fill:#8A6E9E;fill-opacity:0.2;}
	.st67{display:none;fill-rule:evenodd;clip-rule:evenodd;fill:#8F5C85;fill-opacity:0.2;}
	.st68{display:none;fill-rule:evenodd;clip-rule:evenodd;fill:#934B8B;fill-opacity:0.2;}
	.st69{display:none;fill-rule:evenodd;clip-rule:evenodd;fill:#9A4C84;fill-opacity:0.2;}
	.st70{display:none;fill-rule:evenodd;clip-rule:evenodd;fill:#9D4E87;fill-opacity:0.2;}
	.st71{display:none;fill-rule:evenodd;clip-rule:evenodd;fill:#915B95;fill-opacity:0.2;}
	.st72{display:none;fill-rule:evenodd;clip-rule:evenodd;fill:#92538C;fill-opacity:0.2;}
	.st73{display:none;fill-rule:evenodd;clip-rule:evenodd;fill:#8B6397;fill-opacity:0.2;}
	.st74{display:none;fill-rule:evenodd;clip-rule:evenodd;fill:#716084;fill-opacity:0.2;}
	.st75{display:none;fill-rule:evenodd;clip-rule:evenodd;fill:#2E6093;fill-opacity:0.2;}
	.st76{display:none;fill-rule:evenodd;clip-rule:evenodd;fill:#395785;fill-opacity:0.2;}
	.st77{display:none;fill-rule:evenodd;clip-rule:evenodd;fill:#3A5988;fill-opacity:0.2;}
	.st78{display:none;fill-rule:evenodd;clip-rule:evenodd;fill:#474D6D;fill-opacity:0.2;}
	.st79{display:none;fill-rule:evenodd;clip-rule:evenodd;fill:#494E70;fill-opacity:0.2;}
	.st80{display:none;fill-rule:evenodd;clip-rule:evenodd;fill:#4A5072;fill-opacity:0.2;}
	.st81{display:none;fill-rule:evenodd;clip-rule:evenodd;fill:#383D62;fill-opacity:0.2;}
	.st82{display:none;fill-rule:evenodd;clip-rule:evenodd;fill:#393E64;fill-opacity:0.2;}
	.st83{display:none;fill-rule:evenodd;clip-rule:evenodd;fill:#A298C7;fill-opacity:0.2;}
	.st84{display:none;fill-rule:evenodd;clip-rule:evenodd;fill:#A69CC9;fill-opacity:0.2;}
	.st85{display:none;fill-rule:evenodd;clip-rule:evenodd;fill:#AAA1CC;fill-opacity:0.2;}
	.st86{display:none;fill-rule:evenodd;clip-rule:evenodd;fill:#DEAFC5;fill-opacity:0.2;}
	.st87{display:none;fill-rule:evenodd;clip-rule:evenodd;fill:#E0B5C9;fill-opacity:0.2;}
	.st88{display:none;fill-rule:evenodd;clip-rule:evenodd;fill:#E68AA7;fill-opacity:0.2;}
	.st89{display:none;fill-rule:evenodd;clip-rule:evenodd;fill:#E098B0;fill-opacity:0.2;}
	.st90{display:none;fill-rule:evenodd;clip-rule:evenodd;fill:#ED7C9D;fill-opacity:0.2;}
	.st91{display:none;fill-rule:evenodd;clip-rule:evenodd;fill:#EE82A2;fill-opacity:0.2;}
	.st92{display:none;fill-rule:evenodd;clip-rule:evenodd;fill:#EE8AA7;fill-opacity:0.2;}
	.st93{display:none;fill-rule:evenodd;clip-rule:evenodd;fill:#EF91AC;fill-opacity:0.2;}
	.st94{display:none;fill-rule:evenodd;clip-rule:evenodd;fill:#EEB096;fill-opacity:0.2;}
	.st95{display:none;fill-rule:evenodd;clip-rule:evenodd;fill:#EDA994;fill-opacity:0.2;}
	.st96{display:none;fill-rule:evenodd;clip-rule:evenodd;fill:#EEB798;fill-opacity:0.2;}
	.st97{display:none;fill-rule:evenodd;clip-rule:evenodd;fill:#ECC099;fill-opacity:0.2;}
	.st98{display:none;fill-rule:evenodd;clip-rule:evenodd;fill:#F6D5AA;fill-opacity:0.2;}
	.st99{display:none;fill-rule:evenodd;clip-rule:evenodd;fill:#F0D48A;fill-opacity:0.2;}
	.st100{display:none;fill-rule:evenodd;clip-rule:evenodd;fill:#EFD95F;fill-opacity:0.2;}
	.st101{display:none;fill-rule:evenodd;clip-rule:evenodd;fill:#EEE469;fill-opacity:0.2;}
	.st102{display:none;fill-rule:evenodd;clip-rule:evenodd;fill:#D6D86F;fill-opacity:0.2;}
	.st103{display:none;fill-rule:evenodd;clip-rule:evenodd;fill:#D8D974;fill-opacity:0.2;}
	.st104{display:none;fill-rule:evenodd;clip-rule:evenodd;fill:#D9DB7A;fill-opacity:0.2;}
	.st105{display:none;fill-rule:evenodd;clip-rule:evenodd;fill:#DBDC7F;fill-opacity:0.2;}
	.st106{display:none;fill-rule:evenodd;clip-rule:evenodd;fill:#DCD551;fill-opacity:0.2;}
	.st107{display:none;fill-rule:evenodd;clip-rule:evenodd;fill:#DDD656;fill-opacity:0.2;}
	.st108{display:none;fill-rule:evenodd;clip-rule:evenodd;fill:#DED85C;fill-opacity:0.2;}
	.st109{display:none;fill-rule:evenodd;clip-rule:evenodd;fill:#DFD961;fill-opacity:0.2;}
	.st110{fill-rule:evenodd;clip-rule:evenodd;fill:#E9E06C;}
	.st111{display:none;fill-rule:evenodd;clip-rule:evenodd;fill:#EBE378;fill-opacity:0.2;}
	.st112{fill-rule:evenodd;clip-rule:evenodd;fill:#F6E878;}
	.st113{display:none;fill-rule:evenodd;clip-rule:evenodd;fill:#F5E24B;fill-opacity:0.2;}
	.st114{display:none;fill-rule:evenodd;clip-rule:evenodd;fill:#F5E351;fill-opacity:0.2;}
	.st115{fill-rule:evenodd;clip-rule:evenodd;fill:#B9C97B;}
	.st116{fill-rule:evenodd;clip-rule:evenodd;fill:#E5B46E;}
	.st117{display:none;fill-rule:evenodd;clip-rule:evenodd;fill:#E8DC76;fill-opacity:0.2;}
	.st118{display:none;fill-rule:evenodd;clip-rule:evenodd;fill:#E7DC83;fill-opacity:0.2;}
	.st119{display:none;fill-rule:evenodd;clip-rule:evenodd;fill:#E1DE78;fill-opacity:0.2;}
	.st120{display:none;fill-rule:evenodd;clip-rule:evenodd;fill:#E3DF7E;fill-opacity:0.2;}
	.st121{display:none;fill-rule:evenodd;clip-rule:evenodd;fill:#EDDC8F;fill-opacity:0.2;}
	.st122{display:none;fill-rule:evenodd;clip-rule:evenodd;fill:#E8DD68;fill-opacity:0.2;}
	.st123{display:none;fill-rule:evenodd;clip-rule:evenodd;fill:#E9DE6E;fill-opacity:0.2;}
	.st124{display:none;fill-rule:evenodd;clip-rule:evenodd;fill:#EAE074;fill-opacity:0.2;}
	.st125{display:none;fill-rule:evenodd;clip-rule:evenodd;fill:#ECC25B;fill-opacity:0.2;}
	.st126{display:none;fill-rule:evenodd;clip-rule:evenodd;fill:#EAC755;fill-opacity:0.2;}
	.st127{display:none;fill-rule:evenodd;clip-rule:evenodd;fill:#EAC95B;fill-opacity:0.2;}
	.st128{display:none;fill-rule:evenodd;clip-rule:evenodd;fill:#EBCB61;fill-opacity:0.2;}
	.st129{display:none;fill-rule:evenodd;clip-rule:evenodd;fill:#ECCD67;fill-opacity:0.2;}
	.st130{display:none;fill-rule:evenodd;clip-rule:evenodd;fill:#EDCF6D;fill-opacity:0.2;}
	.st131{display:none;fill-rule:evenodd;clip-rule:evenodd;fill:#EDD173;fill-opacity:0.2;}
	.st132{display:none;fill-rule:evenodd;clip-rule:evenodd;fill:#EDBE62;fill-opacity:0.2;}
	.st133{display:none;fill-rule:evenodd;clip-rule:evenodd;fill:#EEC068;fill-opacity:0.2;}
	.st134{display:none;fill-rule:evenodd;clip-rule:evenodd;fill:#EFC36E;fill-opacity:0.2;}
	.st135{display:none;fill-rule:evenodd;clip-rule:evenodd;fill:#ECAE77;fill-opacity:0.2;}
	.st136{display:none;fill-rule:evenodd;clip-rule:evenodd;fill:#EDB27D;fill-opacity:0.2;}
	.st137{display:none;fill-rule:evenodd;clip-rule:evenodd;fill:#E19F7A;fill-opacity:0.2;}
	.st138{display:none;fill-rule:evenodd;clip-rule:evenodd;fill:#E3A380;fill-opacity:0.2;}
	.st139{display:none;fill-rule:evenodd;clip-rule:evenodd;fill:#E4A886;fill-opacity:0.2;}
	.st140{display:none;fill-rule:evenodd;clip-rule:evenodd;fill:#E5AC8C;fill-opacity:0.2;}
	.st141{display:none;fill-rule:evenodd;clip-rule:evenodd;fill:#E7B092;fill-opacity:0.2;}
	.st142{display:none;fill-rule:evenodd;clip-rule:evenodd;fill:#E8B598;fill-opacity:0.2;}
	.st143{display:none;fill-rule:evenodd;clip-rule:evenodd;fill:#C9D386;fill-opacity:0.2;}
	.st144{display:none;fill-rule:evenodd;clip-rule:evenodd;fill:#CBD58B;fill-opacity:0.2;}
	.st145{fill-rule:evenodd;clip-rule:evenodd;fill:#91AA8C;}
	.st146{display:none;fill-rule:evenodd;clip-rule:evenodd;fill:#A9B789;fill-opacity:0.2;}
	.st147{display:none;fill-rule:evenodd;clip-rule:evenodd;fill:#ACB98D;fill-opacity:0.2;}
	.st148{display:none;fill-rule:evenodd;clip-rule:evenodd;fill:#AFBC91;fill-opacity:0.2;}
	.st149{display:none;fill-rule:evenodd;clip-rule:evenodd;fill:#B2BF95;fill-opacity:0.2;}
	.st150{display:none;fill-rule:evenodd;clip-rule:evenodd;fill:#B5C199;fill-opacity:0.2;}
	.st151{display:none;fill-rule:evenodd;clip-rule:evenodd;fill:#B8C49E;fill-opacity:0.2;}
	.st152{display:none;fill-rule:evenodd;clip-rule:evenodd;fill:#BBC7A2;fill-opacity:0.2;}
	.st153{display:none;fill-rule:evenodd;clip-rule:evenodd;fill:#BFC9A7;fill-opacity:0.2;}
	.st154{display:none;fill-rule:evenodd;clip-rule:evenodd;fill:#829F80;fill-opacity:0.2;}
	.st155{display:none;fill-rule:evenodd;clip-rule:evenodd;fill:#85A283;fill-opacity:0.2;}
	.st156{display:none;fill-rule:evenodd;clip-rule:evenodd;fill:#88A487;fill-opacity:0.2;}
	.st157{display:none;fill-rule:evenodd;clip-rule:evenodd;fill:#8CA78A;fill-opacity:0.2;}
	.st158{display:none;fill-rule:evenodd;clip-rule:evenodd;fill:#8FA98E;fill-opacity:0.2;}
	.st159{display:none;fill-rule:evenodd;clip-rule:evenodd;fill:#93AC92;fill-opacity:0.2;}
	.st160{display:none;fill-rule:evenodd;clip-rule:evenodd;fill:#96AF95;fill-opacity:0.2;}
	.st161{display:none;fill-rule:evenodd;clip-rule:evenodd;fill:#9AB299;fill-opacity:0.2;}
	.st162{display:none;fill-rule:evenodd;clip-rule:evenodd;fill:#9EB59D;fill-opacity:0.2;}
	.st163{display:none;fill-rule:evenodd;clip-rule:evenodd;fill:#A2B8A1;fill-opacity:0.2;}
	.st164{display:none;fill-rule:evenodd;clip-rule:evenodd;fill:#A6BBA5;fill-opacity:0.2;}
	.st165{display:none;fill-rule:evenodd;clip-rule:evenodd;fill:#98AC99;fill-opacity:0.2;}
	.st166{display:none;fill-rule:evenodd;clip-rule:evenodd;fill:#9CAF9D;fill-opacity:0.2;}
	.st167{display:none;fill-rule:evenodd;clip-rule:evenodd;fill:#9FB2A0;fill-opacity:0.2;}
	.st168{display:none;fill-rule:evenodd;clip-rule:evenodd;fill:#A3B5A4;fill-opacity:0.2;}
	.st169{font-family:'HelveticaNeue';}
	.st170{font-size:9.9313px;}
	.st171{font-size:4.1381px;}
	.st172{display:none;enable-background:new    ;}
	.st173{font-size:4.9657px;}
	.st174{display:inline;}
	.st175{font-size:12px;}
	.st176{display:inline;fill:#EEEEEE;}
	.st177{font-size:11px;}
	.st178{font-size:10px;}
	.st179{font-size:9px;}
</style>
<path id="path-0" class="st0" d="M331.9,458.6c-42.7,0-77.4-34.6-77.4-77.4s34.6-77.4,77.4-77.4s77.4,34.6,77.4,77.4
	S374.7,458.6,331.9,458.6z"/>
<path id="path-1" class="st1" d="M331.9,227.3c0.1,0,0.2,0,0.2,0l-0.1,77.4c0,0-0.1,0-0.1,0V227.3z"/>
<path id="path-2" class="st2" d="M331.9,150.8c0.1,0,0.2,0,0.4,0l-0.1,77.4c-0.1,0-0.2,0-0.2,0V150.8z"/>
<path id="path-3" class="st3" d="M332.1,227.3c85,0.1,153.8,69.2,153.7,154.2s-69.2,153.8-154.2,153.7c-27.3,0-54.1-7.4-77.7-21.2
	l39.2-66.7c36.5,21.4,83.4,9.2,104.8-27.3s9.2-83.4-27.3-104.8c-11.7-6.9-25.1-10.5-38.6-10.5L332.1,227.3z"/>
<path id="path-4" class="st4" d="M332.3,150.8c1.6,0,3.3,0,4.9,0.1l-1.8,77.4c-1.1,0-2.2,0-3.3,0L332.3,150.8z"/>
<path id="path-6" class="st5" d="M371.5-128.4c2.1,0,4.2,0,6.4,0.1l-1.4,93.5c-1.7,0-3.4,0-5.1,0L371.5-128.4z"/>
<path id="path-7" class="st6" d="M371.6-220.9c2.5,0,5.1,0,7.6,0.1l-1.4,93.5c-2.1,0-4.2,0-6.3-0.1L371.6-220.9z"/>
<path id="path-8" class="st7" d="M371.8-313.4c3,0,5.9,0,8.9,0.1l-1.4,93.5c-2.5,0-5.1-0.1-7.6-0.1L371.8-313.4z"/>
<path id="path-9" class="st8" d="M371.9-405.9c1.5,0,3,0,4.5,0l-0.7,93.5c-1.3,0-2.6,0-3.9,0L371.9-405.9z"/>
<path id="path-10" class="st9" d="M376.4-405.9c1.9,0,3.8,0,5.6,0.1l-1.4,93.5c-1.6,0-3.3,0-4.9-0.1L376.4-405.9z"/>
<path id="path-12" class="st10" d="M377.8-128.4c1.2,0,2.4,0,3.5,0.1l-2.1,93.5c-0.9,0-1.9,0-2.8-0.1L377.8-128.4z"/>
<path id="path-13" class="st11" d="M379.3-220.9c0.3,0,0.6,0,0.8,0l-1.6,93.5c-0.2,0-0.5,0-0.7,0L379.3-220.9z"/>
<path id="path-14" class="st12" d="M380.7-313.4c0.3,0,0.7,0,1,0l-1.6,93.5c-0.3,0-0.6,0-0.8,0L380.7-313.4z"/>
<path id="path-15" class="st13" d="M382.1-405.9c0.4,0,0.8,0,1.1,0l-1.6,93.5c-0.3,0-0.7,0-1,0L382.1-405.9z"/>
<path id="path-16" class="st14" d="M380.1-220.9c1.1,0,2.3,0,3.4,0.1l-2.1,93.5c-0.9,0-1.9,0-2.8-0.1L380.1-220.9z"/>
<path id="path-17" class="st15" d="M381.7-313.3c1.3,0,2.6,0,4,0.1l-2.1,93.5c-1.1,0-2.3,0-3.4-0.1L381.7-313.3z"/>
<path id="path-18" class="st16" d="M383.2-405.8c1.5,0,3,0.1,4.5,0.1l-2.1,93.5c-1.3,0-2.6-0.1-3.9-0.1L383.2-405.8z"/>
<path id="path-19" class="st17" d="M337.2,150.8c4.6,0.1,9.1,0.3,13.7,0.7l-6.4,77.1c-3-0.2-6.1-0.4-9.1-0.5L337.2,150.8z"/>
<path id="path-21" class="st18" d="M381.4-128.3c5.2,0.1,10.3,0.3,15.5,0.6l-5.3,93.4c-4.1-0.2-8.3-0.4-12.4-0.5L381.4-128.3z"/>
<path id="path-22" class="st19" d="M383.5-220.8c5.9,0.1,11.9,0.4,17.8,0.7l-5.1,93.4c-4.9-0.3-9.9-0.5-14.8-0.6L383.5-220.8z"/>
<path id="path-23" class="st20" d="M385.6-313.3c6.6,0.2,13.2,0.4,19.7,0.8l-5,93.4c-5.6-0.3-11.3-0.5-16.9-0.6L385.6-313.3z"/>
<path id="path-24" class="st9" d="M405.3-312.5c0.3,0,0.7,0,1,0.1l-5.1,93.4c-0.3,0-0.6,0-0.8,0L405.3-312.5z"/>
<path id="path-25" class="st21" d="M401.3-220.1c0.3,0,0.6,0,0.8,0l-5.3,93.4c-0.2,0-0.5,0-0.7,0L401.3-220.1z"/>
<path id="path-26" class="st22" d="M406.3-312.5c0.3,0,0.7,0,1,0.1l-5.3,93.4c-0.3,0-0.6,0-0.8,0L406.3-312.5z"/>
<path id="path-27" class="st23" d="M411.4-404.8c0.4,0,0.8,0,1.1,0.1l-5.3,93.4c-0.3,0-0.7,0-1-0.1L411.4-404.8z"/>
<path id="path-29" class="st24" d="M396.9-127.7c3.3,0.2,6.6,0.4,9.9,0.7l-7.3,93.2c-2.6-0.2-5.2-0.4-7.9-0.5L396.9-127.7z"/>
<path id="path-30" class="st25" d="M402.1-220.1c3.9,0.2,7.9,0.5,11.8,0.8l-7.3,93.2c-3.3-0.3-6.6-0.5-9.8-0.7L402.1-220.1z"/>
<path id="path-31" class="st26" d="M407.3-312.4c4.6,0.3,9.2,0.6,13.8,0.9l-7.3,93.2c-3.9-0.3-7.9-0.6-11.8-0.8L407.3-312.4z"/>
<path id="path-32" class="st27" d="M412.5-404.8c0.4,0,0.8,0,1.1,0.1l-5.4,93.3c-0.3,0-0.7,0-1-0.1L412.5-404.8z"/>
<path id="path-33" class="st9" d="M413.7-404.7c4.9,0.3,9.8,0.6,14.6,1l-7.3,93.2c-4.3-0.3-8.5-0.6-12.8-0.9L413.7-404.7z"/>
<path id="path-35" class="st28" d="M350.9,151.5c0.1,0,0.2,0,0.3,0l-6.5,77.1c-0.1,0-0.2,0-0.2,0L350.9,151.5z"/>
<path id="path-36" class="st29" d="M351.2,151.6c0.2,0,0.5,0,0.7,0.1l-6.7,77.1c-0.2,0-0.3,0-0.5,0L351.2,151.6z"/>
<path id="path-38" class="st30" d="M409.6-126.8c0.2,0,0.5,0,0.7,0.1l-8,93.2c-0.2,0-0.4,0-0.6,0L409.6-126.8z"/>
<path id="path-39" class="st31" d="M417.3-219c0.3,0,0.6,0,0.8,0.1l-8,93.2c-0.2,0-0.5,0-0.7-0.1L417.3-219z"/>
<path id="path-40" class="st32" d="M425.1-311.2c0.3,0,0.7,0.1,1,0.1l-8,93.2c-0.3,0-0.6,0-0.8-0.1L425.1-311.2z"/>
<path id="path-41" class="st33" d="M432.8-403.3c0.4,0,0.7,0.1,1.1,0.1l-8,93.2c-0.3,0-0.7-0.1-1-0.1L432.8-403.3z"/>
<path id="path-43" class="st34" d="M351.9,151.6c126.8,11,220.7,122.8,209.6,249.6c-8.2,94.2-73.1,173.8-163.7,200.9L375.7,528
	c81-24.2,127.1-109.5,102.9-190.5c-18-60.2-70.9-103.3-133.4-108.7L351.9,151.6z"/>
<path id="path-45" class="st35" d="M411-126.7c2.6,0.2,5.2,0.5,7.7,0.7L409-33c-2.1-0.2-4.1-0.4-6.2-0.6L411-126.7z"/>
<path id="path-46" class="st36" d="M419-218.8c3.1,0.3,6.2,0.6,9.3,0.9l-9.7,93c-2.6-0.3-5.1-0.5-7.7-0.7L419-218.8z"/>
<path id="path-47" class="st37" d="M427-311c2,0.2,3.9,0.4,5.9,0.5l-9,93.1c-1.7-0.2-3.4-0.3-5.1-0.5L427-311z"/>
<path id="path-48" class="st9" d="M432.9-310.5c1.6,0.2,3.3,0.3,4.9,0.5l-9.7,93c-1.4-0.1-2.8-0.3-4.2-0.4L432.9-310.5z"/>
<path id="path-50" class="st38" d="M418.7-126C673.3-99.5,858.3,128.4,831.8,383C817.6,519.2,744,642.2,630.5,719l-52.4-77.4
	C747.4,527,791.7,297,677.2,127.7C616,37.2,517.8-21.7,409-33L418.7-126z"/>
<path id="path-51" class="st39" d="M428.3-218c47,4.9,93.1,15.7,137.3,32.3l-32.8,87.6c-36.8-13.8-75.2-22.8-114.2-26.8L428.3-218z"
	/>
<path id="path-52" class="st40" d="M437.8-310c4.9,0.5,9.8,1.1,14.7,1.7l-11.8,92.8c-4.2-0.5-8.4-1-12.6-1.5L437.8-310z"/>
<path id="path-53" class="st41" d="M447.4-402c4.1,0.4,8.2,0.9,12.3,1.4l-11.2,92.8c-3.6-0.4-7.2-0.8-10.8-1.2L447.4-402z"/>
<path id="path-54" class="st9" d="M459.7-400.6c1.5,0.2,3,0.4,4.5,0.6l-11.8,92.8c-1.3-0.2-2.6-0.3-3.9-0.5L459.7-400.6z"/>
<path id="path-55" class="st42" d="M452.6-308.3c44.8,5.7,88.9,16,131.5,30.9l-30.7,88.3c-36.5-12.7-74.2-21.6-112.5-26.4
	L452.6-308.3z"/>
<path id="path-56" class="st43" d="M464.2-400c0.4,0,0.7,0.1,1.1,0.1l-11.9,92.7c-0.3,0-0.7-0.1-1-0.1L464.2-400z"/>
<path id="path-57" class="st44" d="M465.3-399.9c5.2,0.7,10.4,1.4,15.6,2.2l-13.9,92.5c-4.6-0.7-9.1-1.3-13.7-1.9L465.3-399.9z"/>
<path id="path-58" class="st9" d="M481-397.7c45.4,6.8,90.1,17.9,133.5,33l-30.7,88.3c-37.9-13.2-77-22.8-116.6-28.8L481-397.7z"/>
<path id="path-59" class="st45" d="M584.1-277.4c0.3,0.1,0.6,0.2,0.9,0.3l-30.9,88.3c-0.3-0.1-0.5-0.2-0.8-0.3L584.1-277.4z"/>
<path id="path-60" class="st46" d="M614.5-364.7c0.4,0.1,0.7,0.2,1.1,0.4l-30.9,88.3c-0.3-0.1-0.6-0.2-0.9-0.3L614.5-364.7z"/>
<path id="path-61" class="st47" d="M585-277c2.8,1,5.6,2,8.4,3l-32.1,87.8c-2.4-0.9-4.8-1.7-7.2-2.6L585-277z"/>
<path id="path-62" class="st48" d="M615.5-364.3c3.2,1.1,6.4,2.3,9.6,3.4L593-273.1c-2.8-1-5.6-2-8.4-3L615.5-364.3z"/>
<path id="path-63" class="st49" d="M593.4-274c0.3,0.1,0.6,0.2,0.9,0.3l-32.2,87.8c-0.3-0.1-0.5-0.2-0.8-0.3L593.4-274z"/>
<path id="path-64" class="st50" d="M625.1-360.9c0.4,0.1,0.7,0.3,1.1,0.4l-32.2,87.8c-0.3-0.1-0.6-0.2-0.9-0.3L625.1-360.9z"/>
<path id="path-65" class="st9" d="M594.3-273.7c1.2,0.5,2.5,0.9,3.7,1.4l-32.8,87.6c-1.1-0.4-2.1-0.8-3.2-1.2L594.3-273.7z"/>
<path id="path-66" class="st51" d="M565.6-185.7c8.7,3.3,17.4,6.7,25.9,10.4l-37.1,85.8c-7.1-3.1-14.3-6-21.6-8.7L565.6-185.7z"/>
<path id="path-67" class="st52" d="M598-272.3c9.9,3.7,19.6,7.6,29.3,11.8l-37,85.9c-8.3-3.6-16.7-6.9-25.1-10.1L598-272.3z"/>
<path id="path-68" class="st53" d="M630.4-359c0.4,0.1,0.7,0.3,1.1,0.4l-32.9,87.5c-0.3-0.1-0.6-0.2-0.9-0.3L630.4-359z"/>
<path id="path-69" class="st54" d="M631.5-358.6c0.4,0.1,0.7,0.3,1.1,0.4l-33,87.5c-0.3-0.1-0.6-0.2-0.9-0.3L631.5-358.6z"/>
<path id="path-70" class="st55" d="M632.5-358.2c0.7,0.3,1.4,0.5,2.1,0.8L601.3-270c-0.6-0.2-1.2-0.5-1.8-0.7L632.5-358.2z"/>
<path id="path-71" class="st9" d="M634.6-357.4c9.8,3.8,19.6,7.7,29.3,11.9l-37,85.9c-8.5-3.6-17-7.1-25.6-10.4L634.6-357.4z"/>
<path id="path-72" class="st9" d="M627.3-260.5c0.3,0.1,0.6,0.3,0.9,0.4l-37.1,85.8c-0.3-0.1-0.5-0.2-0.8-0.3L627.3-260.5z"/>
<path id="path-73" class="st56" d="M591.5-175.3c9.8,4.3,19.6,8.8,29.2,13.6l-42,83.5c-8-4-16.1-7.8-24.2-11.3L591.5-175.3z"/>
<path id="path-74" class="st57" d="M628.2-260.2c3,1.3,6,2.6,9,4l-38.4,85.2c-2.6-1.2-5.1-2.3-7.7-3.4L628.2-260.2z"/>
<path id="path-75" class="st9" d="M637.3-256.2c8.4,3.8,16.7,7.8,25,11.9l-42,83.5c-7-3.5-14.2-6.9-21.4-10.2L637.3-256.2z"/>
<path id="path-76" class="st58" d="M620.7-161.6C733.2-105,823.2-11.9,875.8,102.6l-84.9,39.1C747.1,46.5,672.2-31,578.6-78.1
	L620.7-161.6z"/>
<path id="path-77" class="st59" d="M662.2-244.3c8.5,4.3,17,8.8,25.3,13.4l-45.7,81.6c-7.1-4-14.3-7.8-21.7-11.5L662.2-244.3z"/>
<path id="path-78" class="st60" d="M703.8-326.9c2,1,4,2,6,3.1l-42.8,83.1c-1.8-0.9-3.5-1.8-5.3-2.7L703.8-326.9z"/>
<path id="path-79" class="st61" d="M709.8-323.8c3,1.5,6,3.1,9,4.7l-43.9,82.5c-2.6-1.4-5.2-2.8-7.9-4.1L709.8-323.8z"/>
<path id="path-80" class="st62" d="M718.8-319.1c4.3,2.3,8.6,4.6,12.9,7l-45.5,81.7c-3.7-2.1-7.5-4.1-11.3-6.1L718.8-319.1z"/>
<path id="path-81" class="st9" d="M731.7-312.1c0.3,0.2,0.7,0.4,1,0.6L687-230c-0.3-0.2-0.6-0.3-0.9-0.5L731.7-312.1z"/>
<path id="path-82" class="st63" d="M687.5-230.8c2.6,1.4,5.2,2.9,7.7,4.4l-46.8,81c-2.2-1.3-4.4-2.5-6.6-3.8L687.5-230.8z"/>
<path id="path-83" class="st64" d="M695.3-226.4c2.9,1.6,5.7,3.3,8.5,5l-48,80.2c-2.4-1.4-4.8-2.9-7.3-4.3L695.3-226.4z"/>
<path id="path-84" class="st65" d="M703.8-221.4c8.8,5.2,17.4,10.7,25.9,16.3l-51.7,77.9c-7.3-4.8-14.7-9.5-22.2-14L703.8-221.4z"/>
<path id="path-85" class="st66" d="M751.3-300.8c0.6,0.4,1.3,0.8,1.9,1.2l-48.3,80.1c-0.6-0.3-1.1-0.7-1.7-1L751.3-300.8z"/>
<path id="path-86" class="st67" d="M753.2-299.6c0.6,0.4,1.3,0.8,1.9,1.2l-48.5,79.9c-0.6-0.3-1.1-0.7-1.7-1L753.2-299.6z"/>
<path id="path-87" class="st9" d="M755.1-298.5c8.7,5.3,17.3,10.7,25.7,16.3l-51.7,77.9c-7.4-4.9-14.9-9.7-22.5-14.3L755.1-298.5z"
	/>
<path id="path-88" class="st68" d="M729.7-205.1c0.5,0.4,1.1,0.7,1.6,1.1l-52,77.7c-0.5-0.3-0.9-0.6-1.4-0.9L729.7-205.1z"/>
<path id="path-89" class="st69" d="M731.3-204c6.8,4.6,13.6,9.3,20.3,14.1l-54.9,75.7c-5.7-4.1-11.5-8.2-17.3-12.1L731.3-204z"/>
<path id="path-90" class="st70" d="M782.7-280.9c0.3,0.2,0.6,0.4,0.9,0.6l-52.1,77.6c-0.3-0.2-0.5-0.4-0.8-0.5L782.7-280.9z"/>
<path id="path-91" class="st9" d="M783.7-280.3c7.5,5,14.9,10.2,22.2,15.5L751-189.1c-6.4-4.6-12.9-9.1-19.4-13.5L783.7-280.3z"/>
<path id="path-92" class="st71" d="M751.6-189.9c37.3,27.1,71.7,58.1,102.5,92.5L784.4-35c-26.3-29.4-55.7-56-87.7-79.1L751.6-189.9
	z"/>
<path id="path-93" class="st72" d="M805.9-264.8c7.9,5.7,15.7,11.6,23.4,17.7l-57.9,73.5c-6.7-5.3-13.5-10.4-20.5-15.5L805.9-264.8z
	"/>
<path id="path-94" class="st73" d="M829.3-247.1c3,2.3,5.9,4.7,8.8,7.1l-59,72.6c-2.6-2.1-5.1-4.1-7.7-6.2L829.3-247.1z"/>
<path id="path-95" class="st74" d="M838.1-240c1.2,0.9,2.3,1.9,3.5,2.9l-59.4,72.2c-1-0.8-2-1.7-3.1-2.5L838.1-240z"/>
<path id="path-96" class="st75" d="M841.6-237.1c10.2,8.4,20.1,17,29.8,25.9l-63.2,68.9c-8.5-7.8-17.2-15.3-26.1-22.6L841.6-237.1z"
	/>
<path id="path-97" class="st9" d="M871.4-211.2c18,16.5,35.2,33.9,51.5,52.2l-69.7,62.4c-14.3-15.9-29.3-31.1-45-45.6L871.4-211.2z"
	/>
<path id="path-98" class="st9" d="M854-97.4C897.2-49.2,932.8,5.1,959.9,63.9L874.9,103c-23.1-50.3-53.7-96.8-90.6-138L854-97.4z"/>
<path id="path-99" class="st76" d="M875.8,102.6c1.4,3.1,2.8,6.2,4.2,9.3l-85.6,37.5c-1.1-2.6-2.3-5.2-3.5-7.7L875.8,102.6z"/>
<path id="path-100" class="st77" d="M959.9,63.9c1.7,3.6,3.3,7.2,4.9,10.8l-85.6,37.5c-1.4-3.1-2.7-6.2-4.2-9.3L959.9,63.9z"/>
<path id="path-101" class="st78" d="M880,111.8c13.8,31.6,24.7,64.3,32.5,97.9l-91.1,21.1c-6.5-27.9-15.5-55.2-27-81.5L880,111.8z"
	/>
<path id="path-102" class="st79" d="M964.7,74.7c16.1,36.8,28.8,75.1,37.9,114.2L911.5,210c-7.8-33.5-18.6-66.2-32.4-97.8
	L964.7,74.7z"/>
<path id="path-103" class="st80" d="M1049.4,37.5c0.5,1,0.9,2.1,1.4,3.1L965,77.8c-0.4-0.9-0.8-1.8-1.2-2.7L1049.4,37.5z"/>
<path id="path-104" class="st9" d="M1050.8,40.6c17.8,41.1,31.8,83.8,41.9,127.4l-91.1,21.1c-8.8-38.1-21.1-75.4-36.6-111.3
	L1050.8,40.6z"/>
<path id="path-105" class="st81" d="M912.5,209.7c0.1,0.3,0.1,0.6,0.2,0.8l-91.1,20.9c-0.1-0.2-0.1-0.5-0.2-0.7L912.5,209.7z"/>
<path id="path-106" class="st82" d="M1002.6,188.9c0.1,0.3,0.1,0.6,0.2,1l-91.1,20.9c-0.1-0.3-0.1-0.5-0.2-0.8L1002.6,188.9z"/>
<path id="path-107" class="st83" d="M912.7,210.6c0.6,2.5,1.1,5,1.7,7.4l-91.4,19.7c-0.4-2.1-0.9-4.1-1.4-6.2L912.7,210.6z"/>
<path id="path-108" class="st84" d="M1002.8,189.9c0.7,2.9,1.3,5.8,1.9,8.7l-91.4,19.7c-0.5-2.5-1.1-5-1.7-7.4L1002.8,189.9z"/>
<path id="path-109" class="st85" d="M1093,169.2c0.6,2.6,1.2,5.1,1.7,7.7l-91.3,20c-0.5-2.2-1-4.5-1.5-6.7L1093,169.2z"/>
<path id="path-110" class="st9" d="M1094.7,176.9c0.2,0.7,0.3,1.5,0.5,2.2l-91.4,19.7c-0.1-0.6-0.3-1.3-0.4-1.9L1094.7,176.9z"/>
<path id="path-111" class="st86" d="M914.3,218c0.7,3,1.3,6.1,1.9,9.1l-91.7,18.1c-0.5-2.5-1-5.1-1.6-7.6L914.3,218z"/>
<path id="path-112" class="st87" d="M1004.8,198.5c0.1,0.6,0.3,1.3,0.4,1.9l-91.5,19.4c-0.1-0.6-0.2-1.1-0.4-1.7L1004.8,198.5z"/>
<path id="path-113" class="st9" d="M1005.2,200.5c0.6,2.9,1.2,5.8,1.8,8.7l-91.7,18.1c-0.5-2.5-1-5-1.5-7.5L1005.2,200.5z"/>
<path id="path-114" class="st88" d="M916.2,227.1c8,40.5,11.5,81.7,10.4,123l-93.5-2.5c0.9-34.3-2-68.6-8.6-102.3L916.2,227.1z"/>
<path id="path-115" class="st89" d="M1007,209.2c0.1,0.3,0.1,0.6,0.2,1l-91.7,18c-0.1-0.3-0.1-0.6-0.2-0.8L1007,209.2z"/>
<path id="path-116" class="st90" d="M1007.1,210.2c1.6,8.4,3.1,16.8,4.4,25.3l-92.4,14.4c-1.1-7.2-2.4-14.5-3.8-21.6L1007.1,210.2z"
	/>
<path id="path-117" class="st91" d="M1097.9,192.3c1.9,9.6,3.6,19.2,5.1,28.9l-92.4,14.4c-1.3-8.4-2.8-16.9-4.4-25.3L1097.9,192.3z"
	/>
<path id="path-118" class="st92" d="M1011.6,235.4c0.1,0.3,0.1,0.7,0.2,1l-92.4,14.2c0-0.3-0.1-0.6-0.1-0.8L1011.6,235.4z"/>
<path id="path-119" class="st93" d="M1103,221.2c0.1,0.4,0.1,0.7,0.2,1.1l-92.4,14.2c0-0.3-0.1-0.6-0.2-1L1103,221.2z"/>
<path id="path-120" class="st94" d="M1011.7,236.4c2.9,18.9,5,37.9,6.2,56.9l-93.3,6c-1.1-16.3-2.8-32.6-5.3-48.7L1011.7,236.4z"/>
<path id="path-121" class="st95" d="M1103.2,222.3c0.7,4.5,1.3,8.9,1.9,13.4l-92.7,12.5c-0.5-3.9-1.1-7.8-1.7-11.7L1103.2,222.3z"/>
<path id="path-122" class="st96" d="M1105.1,235.8c0.8,6,1.5,11.9,2.2,17.9l-92.9,10.3c-0.6-5.2-1.2-10.4-1.9-15.7L1105.1,235.8z"/>
<path id="path-123" class="st97" d="M1107.3,253.7c0.1,0.7,0.2,1.5,0.2,2.2l-93,10c-0.1-0.7-0.1-1.3-0.2-2L1107.3,253.7z"/>
<path id="path-124" class="st98" d="M1107.5,255.9c0,0.4,0.1,0.7,0.1,1.1l-93,9.8c0-0.3-0.1-0.7-0.1-1L1107.5,255.9z"/>
<path id="path-125" class="st99" d="M1107.7,257c0.4,4.1,0.8,8.2,1.2,12.4l-93.1,8.3c-0.3-3.6-0.7-7.2-1.1-10.8L1107.7,257z"/>
<path id="path-126" class="st9" d="M1108.9,269.4c0.5,6,1,12,1.4,18l-93.3,6c-0.3-5.2-0.7-10.5-1.2-15.7L1108.9,269.4z"/>
<path id="path-127" class="st100" d="M1017.9,293.4c0,0.3,0,0.7,0.1,1l-93.3,5.9c0-0.3,0-0.6-0.1-0.8L1017.9,293.4z"/>
<path id="path-128" class="st9" d="M1018,294.3c1.2,19.4,1.6,38.8,1,58.3l-93.5-2.5c0.4-16.6,0.2-33.3-0.9-49.9L1018,294.3z"/>
<path id="path-129" class="st101" d="M926.6,350.1c0,0.3,0,0.6,0,0.8l-93.5-2.7c0-0.2,0-0.5,0-0.7L926.6,350.1z"/>
<path id="path-130" class="st9" d="M926.6,350.9c-5.1,178.9-96,344.4-244.2,444.6l-52.4-77.4c123.3-83.4,198.9-221.1,203.1-369.9
	L926.6,350.9z"/>
<path id="path-131" class="st9" d="M630.5,719c-1,0.7-2,1.3-2.9,2l-51.8-77.8c0.8-0.5,1.6-1,2.3-1.6L630.5,719z"/>
<path id="path-133" class="st102" d="M627.6,720.9c-3.5,2.3-7.1,4.6-10.7,6.9l-49.6-79.2c2.9-1.8,5.7-3.6,8.5-5.5L627.6,720.9z"/>
<path id="path-134" class="st103" d="M678.8,797.9c-4.2,2.8-8.5,5.6-12.8,8.3L616.4,727c3.6-2.2,7.1-4.5,10.7-6.9L678.8,797.9z"/>
<path id="path-135" class="st104" d="M730.1,874.9c-4.9,3.3-9.9,6.5-14.9,9.6l-49.6-79.2c4.3-2.7,8.6-5.4,12.8-8.3L730.1,874.9z"/>
<path id="path-136" class="st105" d="M781.3,951.9c-3.1,2.1-6.3,4.1-9.4,6.2l-50.6-78.6c2.8-1.8,5.5-3.6,8.3-5.4L781.3,951.9z"/>
<path id="path-137" class="st9" d="M771.9,958.1c-2.5,1.6-5.1,3.2-7.6,4.8l-49.6-79.2c2.2-1.4,4.4-2.8,6.7-4.2L771.9,958.1z"/>
<path id="path-139" class="st106" d="M616.9,727.8c-0.2,0.1-0.4,0.2-0.6,0.4l-49.5-79.3c0.2-0.1,0.3-0.2,0.5-0.3L616.9,727.8z"/>
<path id="path-140" class="st107" d="M666,806.2c-0.2,0.1-0.5,0.3-0.7,0.4l-49.5-79.3c0.2-0.1,0.4-0.2,0.6-0.4L666,806.2z"/>
<path id="path-141" class="st108" d="M715.1,884.6c-0.3,0.2-0.6,0.3-0.8,0.5l-49.5-79.3c0.2-0.1,0.5-0.3,0.7-0.4L715.1,884.6z"/>
<path id="path-142" class="st109" d="M764.3,963c-0.3,0.2-0.6,0.4-1,0.6l-49.5-79.3c0.3-0.2,0.6-0.3,0.8-0.5L764.3,963z"/>
<path id="path-144" class="st110" d="M397.9,602.1c-0.1,0-0.2,0.1-0.3,0.1l-22-74.2c0.1,0,0.1,0,0.2-0.1L397.9,602.1z"/>
<path id="path-146" class="st111" d="M503.4,779.2c-0.2,0.1-0.5,0.1-0.7,0.2l-26.6-89.6c0.2-0.1,0.4-0.1,0.5-0.2L503.4,779.2z"/>
<path id="path-147" class="st112" d="M397.5,602.2c-0.9,0.3-1.8,0.5-2.7,0.8l-21.1-74.4c0.6-0.2,1.2-0.3,1.8-0.5L397.5,602.2z"/>
<path id="path-149" class="st113" d="M502.7,779.4c-1.1,0.3-2.3,0.7-3.4,1l-25.9-89.8c0.9-0.3,1.8-0.5,2.7-0.8L502.7,779.4z"/>
<path id="path-150" class="st114" d="M529.1,868.1c-0.3,0.1-0.5,0.2-0.8,0.2l-26.5-89.7c0.2-0.1,0.5-0.1,0.7-0.2L529.1,868.1z"/>
<path id="path-151" class="st9" d="M528.2,868.3c-1.1,0.3-2.2,0.6-3.3,0.9l-25.9-89.8c0.9-0.3,1.8-0.5,2.7-0.8L528.2,868.3z"/>
<path id="path-152" class="st9" d="M499.3,780.4c-0.5,0.1-0.9,0.3-1.4,0.4l-25.7-89.9c0.4-0.1,0.7-0.2,1.1-0.3L499.3,780.4z"/>
<path id="path-155" class="st115" d="M254,514c-22.6-13.2-41.4-32-54.7-54.6l66.7-39.3c6.6,11.2,16,20.5,27.2,27.1L254,514z"/>
<path id="path-156" class="st116" d="M215.2,580c-26.3-15.5-49.3-36-67.6-60.4l61.9-46.5c12.2,16.2,27.4,29.9,44.9,40.1L215.2,580z"
	/>
<path id="path-158" class="st117" d="M136.1,734.8c-35.8-21-68.6-46.7-97.5-76.4l67-65.2c23.1,23.7,49.3,44.2,77.8,61L136.1,734.8z"
	/>
<path id="path-159" class="st118" d="M89.3,814.5c-42.2-24.8-80.9-55-115.2-89.9l66.7-65.5c28.5,29,60.7,54.2,95.8,74.8L89.3,814.5z
	"/>
<path id="path-160" class="st119" d="M42.5,894.3c-2-1.2-4-2.3-5.9-3.5l48.2-80.1c1.7,1,3.4,2,5.1,3L42.5,894.3z"/>
<path id="path-161" class="st120" d="M-4.3,974.1c-2.3-1.3-4.5-2.7-6.8-4l48.2-80.1c2,1.2,4,2.4,5.9,3.5L-4.3,974.1z"/>
<path id="path-162" class="st5" d="M-51.2,1053.9c-2.6-1.5-5.1-3-7.6-4.5l48.2-80.1c2.3,1.4,4.5,2.7,6.8,4L-51.2,1053.9z"/>
<path id="path-163" class="st6" d="M-98,1133.6c-2.4-1.4-4.9-2.9-7.3-4.3l48.1-80.2c2.2,1.3,4.4,2.6,6.5,3.9L-98,1133.6z"/>
<path id="path-164" class="st7" d="M-144.8,1213.4c-1.8-1-3.6-2.1-5.3-3.2l47.8-80.3c1.6,1,3.2,1.9,4.9,2.9L-144.8,1213.4z"/>
<path id="path-165" class="st8" d="M-191.7,1293.2c-1.9-1.1-3.9-2.3-5.8-3.4l47.8-80.3c1.8,1.1,3.6,2.1,5.3,3.2L-191.7,1293.2z"/>
<path id="path-166" class="st9" d="M-150.2,1210.2c-0.9-0.5-1.8-1.1-2.7-1.6l48.1-80.2c0.8,0.5,1.6,1,2.4,1.4L-150.2,1210.2z"/>
<path id="path-167" class="st9" d="M-105.3,1129.3c-0.4-0.2-0.8-0.5-1.2-0.7l48.2-80.1c0.4,0.2,0.7,0.4,1.1,0.7L-105.3,1129.3z"/>
<path id="path-168" class="st121" d="M36.5,890.8c-40.7-24.5-78.5-53.3-112.9-86l64.5-67.7c29.4,28,61.8,52.7,96.6,73.6L36.5,890.8z
	"/>
<path id="path-169" class="st11" d="M-11.1,970.1c-45.2-27.2-87.3-59.1-125.7-95.2l64.1-68.1c33.6,31.6,70.4,59.5,109.9,83.2
	L-11.1,970.1z"/>
<path id="path-170" class="st12" d="M-58.8,1049.3c-50.8-30.6-98.2-66.5-141.4-107.1l64.1-68.1c38.4,36.1,80.4,67.9,125.6,95.1
	L-58.8,1049.3z"/>
<path id="path-171" class="st13" d="M-106.5,1128.6c-28.2-17-55.5-35.4-81.7-55.3l56.4-74.5c23.6,17.9,48.1,34.5,73.5,49.7
	L-106.5,1128.6z"/>
<path id="path-172" class="st9" d="M-188.2,1073.3c-26.2-19.9-51.4-41.1-75.4-63.7l64.1-68.1c21.6,20.3,44.2,39.4,67.8,57.3
	L-188.2,1073.3z"/>
<path id="path-173" class="st9" d="M-136.9,874.8c-1.1-1-2.2-2.1-3.3-3.1l64.5-67.7c1,0.9,1.9,1.8,2.9,2.7L-136.9,874.8z"/>
<path id="path-174" class="st9" d="M-76.4,804.7c-5.2-5-10.4-10.1-15.5-15.2l66.7-65.5c4.3,4.4,8.8,8.8,13.3,13L-76.4,804.7z"/>
<path id="path-175" class="st122" d="M-25.9,724.7c-0.2-0.2-0.4-0.4-0.6-0.6l66.8-65.4c0.2,0.2,0.3,0.3,0.5,0.5L-25.9,724.7z"/>
<path id="path-176" class="st123" d="M-91.9,789.5c-0.2-0.2-0.5-0.5-0.7-0.7l66.8-65.4c0.2,0.2,0.4,0.4,0.6,0.6L-91.9,789.5z"/>
<path id="path-177" class="st124" d="M-157.8,854.3c-0.3-0.3-0.5-0.5-0.8-0.8l66.8-65.4c0.2,0.2,0.5,0.5,0.7,0.7L-157.8,854.3z"/>
<path id="path-178" class="st14" d="M-223.8,919.1c-0.3-0.3-0.6-0.6-0.9-0.9l66.8-65.4c0.3,0.3,0.5,0.5,0.8,0.8L-223.8,919.1z"/>
<path id="path-179" class="st15" d="M-289.8,984c-0.3-0.3-0.7-0.7-1-1l66.8-65.4c0.3,0.3,0.6,0.6,0.9,0.9L-289.8,984z"/>
<path id="path-180" class="st16" d="M-355.8,1048.8c-0.4-0.4-0.7-0.7-1.1-1.1l66.8-65.4c0.3,0.3,0.7,0.7,1,1L-355.8,1048.8z"/>
<path id="path-181" class="st9" d="M-26.5,724.1c-0.4-0.4-0.8-0.8-1.2-1.2l67-65.2c0.3,0.3,0.7,0.7,1,1L-26.5,724.1z"/>
<path id="path-182" class="st125" d="M38.6,658.3c-8.9-9.1-17.4-18.6-25.4-28.4l72.1-59.5c6.5,7.8,13.2,15.4,20.3,22.7L38.6,658.3z"
	/>
<path id="path-183" class="st126" d="M-27.6,722.9c-2.8-2.8-5.5-5.7-8.2-8.6l68.4-63.8c2.2,2.4,4.5,4.8,6.8,7.1L-27.6,722.9z"/>
<path id="path-184" class="st127" d="M-93.9,787.4c-3-3.1-5.9-6.2-8.9-9.3l68.3-63.9c2.5,2.7,5,5.3,7.6,8L-93.9,787.4z"/>
<path id="path-185" class="st128" d="M-160.2,851.9c-2.6-2.7-5.2-5.4-7.8-8.1l68-64.2c2.3,2.4,4.5,4.8,6.8,7.1L-160.2,851.9z"/>
<path id="path-186" class="st129" d="M-226.5,916.4c-3-3-5.9-6.1-8.8-9.2l68-64.2c2.6,2.7,5.2,5.4,7.8,8.1L-226.5,916.4z"/>
<path id="path-187" class="st130" d="M-292.8,980.9c-3-3-5.9-6.1-8.8-9.2l67.9-64.3c2.6,2.8,5.3,5.5,7.9,8.2L-292.8,980.9z"/>
<path id="path-188" class="st131" d="M-359.1,1045.4c-3.2-3.3-6.5-6.7-9.7-10.1l67.9-64.3c2.9,3.1,5.8,6.1,8.8,9.1L-359.1,1045.4z"
	/>
<path id="path-189" class="st19" d="M-425.4,1110c-3.5-3.6-7.1-7.3-10.5-11l67.9-64.3c3.2,3.4,6.4,6.7,9.7,10.1L-425.4,1110z"/>
<path id="path-190" class="st20" d="M-491.6,1174.5c-3.8-3.9-7.6-7.9-11.4-11.9l67.9-64.3c3.5,3.7,7,7.3,10.5,11L-491.6,1174.5z"/>
<path id="path-191" class="st9" d="M-301.6,971.8c-0.3-0.3-0.6-0.7-1-1l68-64.2c0.3,0.3,0.6,0.6,0.9,0.9L-301.6,971.8z"/>
<path id="path-192" class="st9" d="M-168,843.7c-0.8-0.8-1.5-1.6-2.3-2.5l68.3-63.9c0.7,0.7,1.3,1.4,2,2.2L-168,843.7z"/>
<path id="path-193" class="st9" d="M-102.8,778.1c-0.2-0.2-0.4-0.5-0.7-0.7l68.4-63.8c0.2,0.2,0.4,0.4,0.6,0.6L-102.8,778.1z"/>
<path id="path-194" class="st132" d="M-35.8,714.3c-5.6-6-11-12.1-16.3-18.3L19,635.3c4.4,5.2,9,10.3,13.6,15.2L-35.8,714.3z"/>
<path id="path-195" class="st133" d="M-103.5,777.4c-6.3-6.7-12.4-13.6-18.4-20.6l71-60.8c5.1,6,10.4,11.9,15.8,17.6L-103.5,777.4z"
	/>
<path id="path-196" class="st134" d="M-171.1,840.5c-7.2-7.7-14.2-15.6-21.1-23.6l71-60.8c6,7,12.1,13.9,18.4,20.6L-171.1,840.5z"/>
<path id="path-197" class="st21" d="M-238.8,903.5c-8.1-8.7-16-17.5-23.7-26.5l71-60.8c6.8,8,13.9,15.8,21,23.5L-238.8,903.5z"/>
<path id="path-198" class="st22" d="M-306.4,966.6c-9-9.6-17.8-19.4-26.3-29.4l71-60.8c7.7,9,15.6,17.8,23.7,26.5L-306.4,966.6z"/>
<path id="path-199" class="st23" d="M-374.1,1029.7c-9.9-10.6-19.5-21.4-28.9-32.4l71-60.8c8.6,10,17.3,19.8,26.3,29.4
	L-374.1,1029.7z"/>
<path id="path-200" class="st9" d="M-121.9,756.7c-0.2-0.3-0.4-0.5-0.6-0.8l71.1-60.7c0.2,0.2,0.4,0.4,0.5,0.6L-121.9,756.7z"/>
<path id="path-201" class="st135" d="M-52.2,696c-1.6-1.9-3.3-3.9-4.9-5.8l72-59.7c1.3,1.6,2.7,3.2,4.1,4.9L-52.2,696z"/>
<path id="path-202" class="st136" d="M-122.5,756c-1.5-1.8-3-3.5-4.5-5.3l71.8-59.9c1.3,1.5,2.5,3,3.8,4.5L-122.5,756z"/>
<path id="path-203" class="st24" d="M-192.9,816c-1.7-2-3.4-4-5.1-6l71.8-59.9c1.5,1.8,3,3.5,4.5,5.3L-192.9,816z"/>
<path id="path-204" class="st25" d="M-263.3,876.1c-1.9-2.3-3.8-4.5-5.7-6.8l71.8-59.9c1.7,2,3.4,4,5.1,6L-263.3,876.1z"/>
<path id="path-205" class="st26" d="M-333.6,936.1c-1.8-2.1-3.7-4.3-5.5-6.5l71.7-60c1.6,1.9,3.3,3.9,4.9,5.8L-333.6,936.1z"/>
<path id="path-206" class="st27" d="M-404,996.2c-2-2.4-4-4.7-6-7.1l71.7-60c1.8,2.2,3.6,4.3,5.5,6.5L-404,996.2z"/>
<path id="path-207" class="st9" d="M-339.1,929.7c-0.3-0.4-0.6-0.7-0.9-1.1l71.8-59.9c0.3,0.3,0.5,0.6,0.8,1L-339.1,929.7z"/>
<path id="path-208" class="st9" d="M-127,750.7c-0.4-0.5-0.8-1-1.3-1.5l72-59.7c0.4,0.4,0.7,0.9,1.1,1.3L-127,750.7z"/>
<path id="path-209" class="st9" d="M-57.1,690.1c-0.4-0.4-0.7-0.9-1.1-1.3L14,629.3c0.3,0.4,0.6,0.7,0.9,1.1L-57.1,690.1z"/>
<path id="path-210" class="st9" d="M13.2,630c-0.3-0.4-0.6-0.7-0.9-1.1l72.3-59.3c0.2,0.3,0.5,0.6,0.7,0.9L13.2,630z"/>
<path id="path-212" class="st137" d="M12.3,628.9c-3.1-3.8-6.2-7.7-9.2-11.6l74.2-56.9c2.4,3.1,4.9,6.2,7.4,9.3L12.3,628.9z"/>
<path id="path-213" class="st138" d="M-59.2,687.5c-3.8-4.6-7.4-9.2-11.1-13.9l74.2-56.9c3,3.9,6.1,7.8,9.2,11.6L-59.2,687.5z"/>
<path id="path-214" class="st139" d="M-130.8,746.1c-4.4-5.3-8.7-10.8-12.9-16.3l74.2-56.9c3.6,4.7,7.3,9.3,11,13.9L-130.8,746.1z"
	/>
<path id="path-215" class="st140" d="M-202.3,804.8c-4.1-4.9-8-9.9-12-15l73.8-57.4c3.4,4.4,6.9,8.8,10.5,13.1L-202.3,804.8z"/>
<path id="path-216" class="st141" d="M-273.9,863.4c-4.6-5.6-9-11.2-13.5-16.9l73.8-57.4c3.9,5,7.9,10,12,15L-273.9,863.4z"/>
<path id="path-217" class="st142" d="M-345.4,922c-5.1-6.2-10.1-12.4-15-18.7l73.8-57.4c4.4,5.7,8.9,11.3,13.4,16.8L-345.4,922z"/>
<path id="path-218" class="st9" d="M-214.3,789.8c-0.9-1.2-1.8-2.4-2.8-3.6l74.2-56.9c0.8,1,1.6,2.1,2.4,3.1L-214.3,789.8z"/>
<path id="path-220" class="st143" d="M3.1,617.3c-0.1-0.2-0.3-0.4-0.4-0.6l74.3-56.8c0.1,0.1,0.2,0.3,0.3,0.4L3.1,617.3z"/>
<path id="path-221" class="st144" d="M-70.3,673.6c-0.2-0.2-0.3-0.4-0.5-0.7l74.3-56.8c0.1,0.2,0.3,0.4,0.4,0.6L-70.3,673.6z"/>
<path id="path-222" class="st30" d="M-143.7,729.9c-0.2-0.3-0.4-0.5-0.6-0.8l74.3-56.8c0.2,0.2,0.3,0.4,0.5,0.7L-143.7,729.9z"/>
<path id="path-223" class="st31" d="M-217,786.2c-0.2-0.3-0.5-0.6-0.7-0.9l74.3-56.8c0.2,0.3,0.4,0.5,0.6,0.8L-217,786.2z"/>
<path id="path-224" class="st32" d="M-290.4,842.5c-0.3-0.3-0.5-0.7-0.8-1l74.3-56.8c0.2,0.3,0.5,0.6,0.7,0.9L-290.4,842.5z"/>
<path id="path-225" class="st33" d="M-363.8,898.8c-0.3-0.4-0.6-0.7-0.9-1.1l74.3-56.8c0.3,0.3,0.5,0.7,0.8,1L-363.8,898.8z"/>
<path id="path-227" class="st145" d="M147.6,519.6c-0.8-1-1.5-2.1-2.3-3.1l62.7-45.4c0.5,0.7,1,1.4,1.5,2.1L147.6,519.6z"/>
<path id="path-229" class="st146" d="M0.1,613.3c-0.1-0.2-0.3-0.4-0.4-0.6l74.9-56c0.1,0.2,0.2,0.3,0.3,0.5L0.1,613.3z"/>
<path id="path-230" class="st147" d="M-73.9,668.9c-0.2-0.2-0.3-0.5-0.5-0.7l74.9-56c0.1,0.2,0.3,0.4,0.4,0.6L-73.9,668.9z"/>
<path id="path-231" class="st148" d="M-147.8,724.4c-0.2-0.3-0.4-0.5-0.6-0.8l74.9-56c0.2,0.2,0.3,0.5,0.5,0.7L-147.8,724.4z"/>
<path id="path-232" class="st149" d="M-221.8,779.9c-0.2-0.3-0.5-0.6-0.7-0.9l74.9-56c0.2,0.3,0.4,0.5,0.6,0.8L-221.8,779.9z"/>
<path id="path-233" class="st150" d="M-295.8,835.4c-0.3-0.3-0.5-0.7-0.8-1l74.9-56c0.2,0.3,0.5,0.6,0.7,0.9L-295.8,835.4z"/>
<path id="path-234" class="st151" d="M-369.8,891c-0.3-0.4-0.6-0.8-0.8-1.1l74.9-56c0.3,0.3,0.5,0.7,0.8,1L-369.8,891z"/>
<path id="path-235" class="st152" d="M-443.7,946.5c-0.3-0.4-0.6-0.8-0.9-1.2l74.9-56c0.3,0.4,0.6,0.8,0.8,1.1L-443.7,946.5z"/>
<path id="path-236" class="st153" d="M-517.7,1002c-0.3-0.5-0.7-0.9-1-1.4l74.9-56c0.3,0.4,0.6,0.8,0.9,1.2L-517.7,1002z"/>
<path id="path-237" class="st35" d="M-591.7,1057.6c-0.4-0.5-0.7-1-1.1-1.5l74.9-56c0.3,0.5,0.7,0.9,1,1.4L-591.7,1057.6z"/>
<path id="path-238" class="st36" d="M-665.7,1113.1c-0.4-0.5-0.8-1.1-1.2-1.6l74.9-56c0.4,0.5,0.7,1,1.1,1.5L-665.7,1113.1z"/>
<path id="path-239" class="st37" d="M-739.7,1168.6c-0.4-0.6-0.8-1.1-1.3-1.7l74.9-56c0.4,0.5,0.8,1.1,1.2,1.6L-739.7,1168.6z"/>
<path id="path-240" class="st154" d="M-0.3,612.8c-0.1-0.2-0.3-0.4-0.4-0.6l74.9-55.9c0.1,0.2,0.2,0.3,0.3,0.5L-0.3,612.8z"/>
<path id="path-241" class="st155" d="M-74.4,668.2c-0.2-0.2-0.3-0.5-0.5-0.7l74.9-55.9c0.1,0.2,0.3,0.4,0.4,0.6L-74.4,668.2z"/>
<path id="path-242" class="st156" d="M-148.4,723.6c-0.2-0.3-0.4-0.5-0.6-0.8l74.9-55.9c0.2,0.2,0.3,0.5,0.5,0.7L-148.4,723.6z"/>
<path id="path-243" class="st157" d="M-222.5,779c-0.2-0.3-0.5-0.6-0.7-0.9l74.9-55.9c0.2,0.3,0.4,0.5,0.6,0.8L-222.5,779z"/>
<path id="path-244" class="st158" d="M-296.6,834.4c-0.3-0.3-0.5-0.7-0.8-1l74.9-55.9c0.2,0.3,0.4,0.6,0.7,0.9L-296.6,834.4z"/>
<path id="path-245" class="st159" d="M-370.6,889.9c-0.3-0.4-0.6-0.8-0.8-1.1l74.9-55.9c0.3,0.3,0.5,0.7,0.8,1L-370.6,889.9z"/>
<path id="path-246" class="st160" d="M-444.7,945.3c-0.3-0.4-0.6-0.8-0.9-1.2l74.9-55.9c0.3,0.4,0.6,0.8,0.8,1.1L-444.7,945.3z"/>
<path id="path-247" class="st161" d="M-518.7,1000.7c-0.3-0.5-0.7-0.9-1-1.4l74.9-55.9c0.3,0.4,0.6,0.8,0.9,1.2L-518.7,1000.7z"/>
<path id="path-248" class="st162" d="M-592.8,1056.1c-0.4-0.5-0.7-1-1.1-1.5l74.9-55.9c0.3,0.5,0.7,0.9,1,1.4L-592.8,1056.1z"/>
<path id="path-249" class="st163" d="M-666.9,1111.5c-0.4-0.5-0.8-1.1-1.2-1.6l74.9-55.9c0.4,0.5,0.7,1,1.1,1.5L-666.9,1111.5z"/>
<path id="path-250" class="st164" d="M-740.9,1166.9c-0.4-0.6-0.8-1.1-1.3-1.7l74.9-55.9c0.4,0.5,0.8,1.1,1.2,1.6L-740.9,1166.9z"/>
<path id="path-251" class="st40" d="M-815,1222.4c-0.5-0.6-0.9-1.2-1.4-1.8l74.9-55.9c0.4,0.6,0.8,1.1,1.3,1.7L-815,1222.4z"/>
<path id="path-252" class="st41" d="M-889,1277.8c-0.5-0.6-1-1.3-1.4-1.9l74.9-55.9c0.4,0.6,0.9,1.2,1.3,1.8L-889,1277.8z"/>
<path id="path-254" class="st165" d="M-0.7,612.2c-0.3-0.4-0.6-0.8-0.8-1.1l75.1-55.7c0.2,0.3,0.4,0.6,0.7,0.9L-0.7,612.2z"/>
<path id="path-255" class="st166" d="M-74.9,667.5c-0.2-0.2-0.3-0.5-0.5-0.7l75-55.8c0.1,0.2,0.3,0.4,0.4,0.6L-74.9,667.5z"/>
<path id="path-256" class="st167" d="M-149,722.8c-0.2-0.3-0.4-0.5-0.6-0.8l75-55.8c0.2,0.2,0.3,0.5,0.5,0.7L-149,722.8z"/>
<path id="path-257" class="st168" d="M-223.2,778.1c-0.2-0.3-0.4-0.6-0.7-0.9l75-55.8c0.2,0.3,0.4,0.5,0.6,0.8L-223.2,778.1z"/>
<path id="path-258" class="st43" d="M-297.3,833.4c-0.3-0.3-0.5-0.7-0.8-1l75-55.8c0.2,0.3,0.4,0.6,0.7,0.9L-297.3,833.4z"/>
<path id="path-259" class="st9" d="M-75.4,666.8c-0.2-0.2-0.3-0.5-0.5-0.7l75.1-55.7c0.1,0.2,0.3,0.4,0.4,0.6L-75.4,666.8z"/>
<text transform="matrix(6.123234e-17 1 -1 6.123234e-17 329.9297 384.5586)" class="st169 st170">Organism</text>
<text transform="matrix(7.616640e-04 -1 1 7.616640e-04 333.9618 301.3858)" class="st169 st170">Archaea</text>
<text transform="matrix(7.616640e-04 -1 1 7.616640e-04 327.9375 222.3685)" class="st169 st171">Candidatus Pacearchaeota archaeon</text>
<text transform="matrix(0.9648 0.263 -0.263 0.9648 408.4443 404.1725)" class="st169 st170">Bacteria</text>
<text transform="matrix(1.218526e-02 -0.9999 0.9999 1.218526e-02 335.8067 224.8659)" class="st169 st170">Actinobacteria</text>
<g class="st172">
	<text transform="matrix(8.377541e-03 -1 1 8.377541e-03 375.9212 -38.9087)" class="st174 st169 st178">Pseudonocardiales</text>
</g>
<g class="st172">
	<text transform="matrix(8.377541e-03 -1 1 8.377541e-03 376.4962 -131.4067)" class="st174 st169 st179">Pseudonocardiaceae</text>
</g>
<g class="st172">
	<text transform="matrix(8.377541e-03 -1 1 8.377541e-03 377.8711 -223.8989)" class="st174 st169 st175">Saccharothrix</text>
</g>
<g class="st172">
	<text transform="matrix(4.569569e-03 -1 1 4.569569e-03 375.5652 -316.4233)" class="st174 st169 st179">Saccharothrix carnea</text>
</g>
<g class="st172">
	<text transform="matrix(1.903885e-02 -0.9998 0.9998 1.903885e-02 380.1082 -38.8286)" class="st174 st169 st177">Coriobacteriales</text>
</g>
<g class="st172">
	<text transform="matrix(1.599293e-02 -0.9999 0.9999 1.599293e-02 380.6485 -131.3403)" class="st174 st169 st175">Atopobiaceae</text>
</g>
<g class="st172">
	<text transform="matrix(1.599293e-02 -0.9999 0.9999 1.599293e-02 382.1278 -223.8286)" class="st174 st169 st175">Atopobium</text>
</g>
<g class="st172">
	<text transform="matrix(1.599293e-02 -0.9999 0.9999 1.599293e-02 383.0073 -316.3266)" class="st174 st169 st179">Atopobium vaginae</text>
</g>
<g class="st172">
	<text transform="matrix(1.980024e-02 -0.9998 0.9998 1.980024e-02 382.0245 -131.307)" class="st174 st169 st178">Coriobacteriaceae</text>
</g>
<g class="st172">
	<text transform="matrix(1.980024e-02 -0.9998 0.9998 1.980024e-02 384.2559 -223.7816)" class="st174 st169 st175">Collinsella</text>
</g>
<g class="st172">
	
		<text transform="matrix(1.980024e-02 -0.9998 0.9998 1.980024e-02 385.2876 -316.2787)" class="st174 st169" style="font-size:8px;">Collinsella aerofaciens</text>
</g>
<text transform="matrix(5.252611e-02 -0.9986 0.9986 5.252611e-02 342.1148 225.1494)" class="st169 st170">Bacteroidetes</text>
<g class="st172">
	<text transform="matrix(3.959272e-02 -0.9992 0.9992 3.959272e-02 387.9939 -38.5502)" class="st174 st169 st175">Bacteroidales</text>
</g>
<g class="st172">
	<text transform="matrix(3.883177e-02 -0.9992 0.9992 3.883177e-02 391.3013 -130.9935)" class="st174 st169 st175">Bacteroidaceae</text>
</g>
<g class="st172">
	<text transform="matrix(3.807067e-02 -0.9993 0.9993 3.807067e-02 394.4678 -223.4423)" class="st174 st169 st175">Bacteroides</text>
</g>
<g class="st172">
	
		<text transform="matrix(5.556805e-02 -0.9985 0.9985 5.556805e-02 398.3081 -130.6284)" class="st174 st169" style="font-size:8px;">Williamwhitmaniaceae</text>
</g>
<g class="st172">
	<text transform="matrix(5.556805e-02 -0.9985 0.9985 5.556805e-02 403.8475 -222.9634)" class="st174 st169 st178">Williamwhitmania</text>
</g>
<g class="st172">
	
		<text transform="matrix(5.556805e-02 -0.9985 0.9985 5.556805e-02 408.3885 -315.354)" class="st174 st169" style="font-size:7px;">Williamwhitmania taraxaci</text>
</g>
<g class="st172">
	<text transform="matrix(6.697042e-02 -0.9978 0.9978 6.697042e-02 398.2297 -37.9381)" class="st174 st169 st175">Cytophagales</text>
</g>
<g class="st172">
	<text transform="matrix(6.697042e-02 -0.9978 0.9978 6.697042e-02 403.8257 -130.2701)" class="st174 st169 st179">Hymenobacteraceae</text>
</g>
<g class="st172">
	<text transform="matrix(6.697042e-02 -0.9978 0.9978 6.697042e-02 410.6192 -222.5231)" class="st174 st169 st175">Rufibacter</text>
</g>
<g class="st172">
	<text transform="matrix(5.708882e-02 -0.9984 0.9984 5.708882e-02 409.7785 -315.273)" class="st174 st169 st179">Rufibacter tibetensis</text>
</g>
<text transform="matrix(8.291888e-02 -0.9966 0.9966 8.291888e-02 345.8741 225.4507)" class="st169 st173">Candidatus Peregrinibacteria</text>
<text transform="matrix(8.519565e-02 -0.9964 0.9964 8.519565e-02 347.2195 225.5669)" class="st169 st170">Chlamydiae</text>
<g class="st172">
	<text transform="matrix(8.443673e-02 -0.9964 0.9964 8.443673e-02 404.7589 -37.4003)" class="st174 st169 st175">Chlamydiales</text>
</g>
<g class="st172">
	<text transform="matrix(8.443673e-02 -0.9964 0.9964 8.443673e-02 412.5692 -129.5703)" class="st174 st169 st175">Chlamydiaceae</text>
</g>
<g class="st172">
	<text transform="matrix(8.443673e-02 -0.9964 0.9964 8.443673e-02 420.3797 -221.7392)" class="st174 st169 st175">Chlamydia</text>
</g>
<g class="st172">
	
		<text transform="matrix(8.443673e-02 -0.9964 0.9964 8.443673e-02 427.3929 -313.9765)" class="st174 st169" style="font-size:8px;">Chlamydia trachomatis</text>
</g>
<text transform="matrix(0.9948 -0.1015 0.1015 0.9948 487.7271 367.3485)" class="st169 st170">Firmicutes</text>
<g class="st172">
	<text transform="matrix(9.505602e-02 -0.9955 0.9955 9.505602e-02 408.7281 -37.0171)" class="st174 st169 st175">Bacillales</text>
</g>
<g class="st172">
	<text transform="matrix(9.505602e-02 -0.9955 0.9955 9.505602e-02 417.5208 -129.0982)" class="st174 st169 st175">Bacillaceae</text>
</g>
<g class="st172">
	<text transform="matrix(9.126466e-02 -0.9958 0.9958 9.126466e-02 424.195 -221.3863)" class="st174 st169 st175">Paraliobacillus</text>
</g>
<g class="st172">
	<text transform="matrix(0.97 -0.2432 0.2432 0.97 734.1471 246.4502)" class="st174 st169 st175">Clostridiales</text>
</g>
<g class="st172">
	<text transform="matrix(0.2287 -0.9735 0.9735 0.2287 479.8231 -118.5235)" class="st174 st169 st175">Clostridiaceae</text>
</g>
<g class="st172">
	<text transform="matrix(0.1147 -0.9934 0.9934 0.1147 437.3163 -219.9709)" class="st174 st169 st175">Butyricicoccus</text>
</g>
<g class="st172">
	<text transform="matrix(0.1117 -0.9937 0.9937 0.1117 444.9657 -312.2033)" class="st174 st169" style="font-size:7px;">Butyricicoccus porcorum</text>
</g>
<g class="st172">
	<text transform="matrix(0.2287 -0.9735 0.9735 0.2287 500.9798 -208.5713)" class="st174 st169 st175">Clostridium</text>
</g>
<g class="st172">
	<text transform="matrix(0.1268 -0.9919 0.9919 0.1268 454.8158 -310.9983)" class="st174 st169" style="font-size:7px;">Clostridium argentinense</text>
</g>
<g class="st172">
	<text transform="matrix(0.1382 -0.9904 0.9904 0.1382 462.3889 -309.969)" class="st174 st169" style="font-size:8px;">Clostridium perfringens</text>
</g>
<g class="st172">
	<text transform="matrix(0.3296 -0.9441 0.9441 0.3296 557.2925 -191.9136)" class="st174 st169 st175">Fervidicella</text>
</g>
<g class="st172">
	<text transform="matrix(0.3296 -0.9441 0.9441 0.3296 586.835 -279.5747)" class="st174 st169" style="font-size:7px;">Fervidicella metallireducens</text>
</g>
<g class="st172">
	<text transform="matrix(0.3368 -0.9416 0.9416 0.3368 561.3005 -190.4783)" class="st174 st169 st175">Hungatella</text>
</g>
<g class="st172">
	<text transform="matrix(0.3368 -0.9416 0.9416 0.3368 591.8865 -277.7771)" class="st174 st169 st179">Hungatella hathewayi</text>
</g>
<g class="st172">
	<text transform="matrix(0.3439 -0.939 0.939 0.3439 565.2973 -189.0116)" class="st174 st169 st175">Lactonifactor</text>
</g>
<g class="st172">
	<text transform="matrix(0.3439 -0.939 0.939 0.3439 596.1718 -276.2127)" class="st174 st169" style="font-size:7px;">Lactonifactor longoviformis</text>
</g>
<g class="st172">
	<text transform="matrix(0.3738 -0.9275 0.9275 0.3738 547.3836 -96.728)" class="st174 st169 st175">Eubacteriaceae</text>
</g>
<g class="st172">
	<text transform="matrix(0.3731 -0.9278 0.9278 0.3731 581.5645 -182.6839)" class="st174 st169 st175">Eubacterium</text>
</g>
<g class="st172">
	<text transform="matrix(0.3511 -0.9363 0.9363 0.3511 600.6334 -274.5493)" class="st174 st169" style="font-size:6px;">Eubacterium coprostanoligenes</text>
</g>
<g class="st172">
	<text transform="matrix(0.3525 -0.9358 0.9358 0.3525 601.936 -274.0571)" class="st174 st169" style="font-size:8px;">Eubacterium ventriosum</text>
</g>
<g class="st172">
	<text transform="matrix(0.3546 -0.935 0.935 0.3546 603.5141 -273.4568)" class="st174 st169 st179">[Eubacterium] eligens</text>
</g>
<g class="st172">
	<text transform="matrix(0.4234 -0.906 0.906 0.4234 570.4626 -86.5522)" class="st176 st169 st175">Flavonifractor</text>
</g>
<g class="st172">
	<text transform="matrix(0.404 -0.9148 0.9148 0.404 598.2437 -175.574)" class="st176 st169 st179">Flavonifractor plautii</text>
</g>
<g class="st172">
	<text transform="matrix(0.7193 -0.6947 0.6947 0.7193 707.8473 12.543)" class="st176 st169 st177">Lachnospiraceae</text>
</g>
<g class="st172">
	<text transform="matrix(0.469 -0.8832 0.8832 0.469 635.0916 -157.5141)" class="st174 st169 st175">Blautia</text>
</g>
<g class="st172">
	<text transform="matrix(0.4535 -0.8913 0.8913 0.4535 668.192 -244.6003)" class="st174 st169 st177">Blautia hansenii</text>
</g>
<g class="st172">
	<text transform="matrix(0.4636 -0.886 0.886 0.4636 674.0857 -241.5361)" class="st174 st169" style="font-size:7px;">Blautia hydrogenotrophica</text>
</g>
<g class="st172">
	<text transform="matrix(0.4784 -0.8781 0.8781 0.4784 684.5818 -235.8948)" class="st176 st169 st175">Blautia obeum</text>
</g>
<g class="st172">
	<text transform="matrix(0.4944 -0.8692 0.8692 0.4944 649.2346 -149.6596)" class="st176 st169 st175">Butyrivibrio</text>
</g>
<g class="st172">
	<text transform="matrix(0.5069 -0.862 0.862 0.5069 656.2192 -145.5795)" class="st176 st169 st175">Dorea</text>
</g>
<g class="st172">
	<text transform="matrix(0.5336 -0.8458 0.8458 0.5336 670.7476 -136.6472)" class="st176 st169 st178">Lachnoclostridium</text>
</g>
<g class="st172">
	<text transform="matrix(0.5148 -0.8573 0.8573 0.5148 707.3583 -222.7689)" class="st176 st169" style="font-size:7px;">[Clostridium] asparagiforme</text>
</g>
<g class="st172">
	<text transform="matrix(0.5174 -0.8558 0.8558 0.5174 709.3985 -221.5341)" class="st176 st169 st179">[Clostridium] bolteae</text>
</g>
<g class="st172">
	<text transform="matrix(0.5547 -0.8321 0.8321 0.5547 682.0078 -129.2928)" class="st176 st169" style="font-size:7px;">Lachnospiraceae bacterium</text>
</g>
<g class="st172">
	<text transform="matrix(0.5717 -0.8205 0.8205 0.5717 692.3102 -122.2245)" class="st176 st169 st175">Oribacterium</text>
</g>
<g class="st172">
	<text transform="matrix(0.5566 -0.8308 0.8308 0.5566 734.882 -205.2078)" class="st176 st169 st179">Oribacterium parvum</text>
</g>
<g class="st172">
	<text transform="matrix(0.67 -0.7424 0.7424 0.67 747.0882 -78.3208)" class="st176 st169 st175">Roseburia</text>
</g>
<g class="st172">
	<text transform="matrix(0.6031 -0.7977 0.7977 0.6031 765.4506 -183.3002)" class="st176 st169 st177">Roseburia faecis</text>
</g>
<g class="st172">
	<text transform="matrix(0.6247 -0.7808 0.7808 0.6247 779.3564 -172.4105)" class="st176 st169 st178">Roseburia hominis</text>
</g>
<g class="st172">
	<text transform="matrix(0.633 -0.7741 0.7741 0.633 784.5892 -168.1526)" class="st176 st169 st179">Roseburia intestinalis</text>
</g>
<g class="st172">
	<text transform="matrix(0.6557 -0.755 0.755 0.6557 799.2001 -155.7724)" class="st176 st169" style="font-size:8px;">Roseburia inulinivorans</text>
</g>
<g class="st172">
	<text transform="matrix(0.9121 -0.4099 0.4099 0.9121 797.288 146.0485)" class="st176 st169 st175">Lawsonibacter</text>
</g>
<g class="st172">
	<text transform="matrix(0.9121 -0.4099 0.4099 0.9121 881.1696 107.0415)" class="st176 st169" style="font-size:6px;">Lawsonibacter asaccharolyticus</text>
</g>
<g class="st172">
	<text transform="matrix(0.9492 -0.3148 0.3148 0.9492 814.262 190.2928)" class="st176 st169 st177">Oscillospiraceae</text>
</g>
<g class="st172">
	<text transform="matrix(0.9492 -0.3148 0.3148 0.9492 902.1218 161.3631)" class="st176 st169 st175">Oscillibacter</text>
</g>
<g class="st172">
	<text transform="matrix(0.9168 -0.3994 0.3994 0.9168 968.6221 76.124)" class="st176 st169" style="font-size:7px;">Oscillibacter valericigenes</text>
</g>
<g class="st172">
	<text transform="matrix(0.9744 -0.2246 0.2246 0.9744 825.8592 232.4099)" class="st176 st169 st177">Peptococcaceae</text>
</g>
<g class="st172">
	<text transform="matrix(0.9744 -0.2246 0.2246 0.9744 915.9501 211.4356)" class="st176 st169 st178">Desulfotomaculum</text>
</g>
<g class="st172">
	<text transform="matrix(0.9761 -0.2172 0.2172 0.9761 826.4974 235.293)" class="st174 st169" style="font-size:8px;">Peptostreptococcaceae</text>
</g>
<g class="st172">
	<text transform="matrix(0.9761 -0.2172 0.2172 0.9761 916.9193 215.7863)" class="st174 st169 st177">Terrisporobacter</text>
</g>
<g class="st172">
	<text transform="matrix(0.9758 -0.2187 0.2187 0.9758 1006.8228 193.9442)" class="st174 st169" style="font-size:7px;">Terrisporobacter othiniensis</text>
</g>
<g class="st172">
	<text transform="matrix(0.9793 -0.2023 0.2023 0.9793 828.0047 242.4415)" class="st174 st169 st179">Pseudoflavonifractor</text>
</g>
<g class="st172">
	<text transform="matrix(0.9779 -0.209 0.209 0.9779 917.6903 219.3879)" class="st174 st169" style="font-size:6px;">Pseudoflavonifractor capillosus</text>
</g>
<g class="st172">
	<text transform="matrix(0.9965 -8.405730e-02 8.405730e-02 0.9965 835.8052 297.8417)" class="st174 st169 st178">Ruminococcaceae</text>
</g>
<g class="st172">
	<text transform="matrix(0.9811 -0.1934 0.1934 0.9811 919.5863 228.7378)" class="st174 st169 st179">Anaeromassilibacillus</text>
</g>
<g class="st172">
	<text transform="matrix(0.9849 -0.1731 0.1731 0.9849 921.7257 240.4384)" class="st174 st169 st177">Faecalibacterium</text>
</g>
<g class="st172">
	<text transform="matrix(0.9849 -0.1731 0.1731 0.9849 1012.6901 223.6343)" class="st174 st169" style="font-size:7px;">Faecalibacterium prausnitzii</text>
</g>
<g class="st172">
	<text transform="matrix(0.9882 -0.1529 0.1529 0.9882 923.4938 251.3913)" class="st174 st169 st179">Pseudobacteroides</text>
</g>
<g class="st172">
	<text transform="matrix(0.9882 -0.1529 0.1529 0.9882 1014.8149 236.6588)" class="st174 st169" style="font-size:6px;">Pseudobacteroides cellulosolvens</text>
</g>
<g class="st172">
	<text transform="matrix(0.9941 -0.1083 0.1083 0.9941 926.7593 276.8994)" class="st174 st169 st175">Ruminococcus</text>
</g>
<g class="st172">
	<text transform="matrix(0.9897 -0.1431 0.1431 0.9897 1015.7863 243.2379)" class="st174 st169" style="font-size:7px;">Ruminococcus bicirculans</text>
</g>
<g class="st172">
	<text transform="matrix(0.9925 -0.1219 0.1219 0.9925 1017.6219 257.2106)" class="st174 st169" style="font-size:8px;">Ruminococcus bromii</text>
</g>
<g class="st172">
	<text transform="matrix(0.9941 -0.1083 0.1083 0.9941 1018.5851 265.6873)" class="st174 st169" style="font-size:6px;">Ruminococcus champanellensis</text>
</g>
<g class="st172">
	<text transform="matrix(0.9944 -0.106 0.106 0.9944 1018.7631 267.3665)" class="st174 st169" style="font-size:7px;">Ruminococcus flavefaciens</text>
</g>
<g class="st172">
	
		<text transform="matrix(0.9953 -9.695125e-02 9.695125e-02 0.9953 1019.3741 273.4902)" class="st174 st169" style="font-size:8px;">Ruminococcus lactaris</text>
</g>
<g class="st172">
	<text transform="matrix(0.998 -6.355060e-02 6.355060e-02 0.998 928.7979 301.7322)" class="st174 st169 st177">Subdoligranulum</text>
</g>
<g class="st172">
	<text transform="matrix(0.9996 2.779476e-02 -2.779476e-02 0.9996 837.069 349.4272)" class="st174 st169" style="font-size:7px;">[Bacteroides] pectinophilus</text>
</g>
<g class="st172">
	<text transform="matrix(0.5426 0.84 -0.84 0.5426 572.0261 650.3126)" class="st174 st169 st178">Erysipelotrichales</text>
</g>
<g class="st172">
	<text transform="matrix(0.5426 0.84 -0.84 0.5426 622.3806 727.9056)" class="st174 st169 st179">Erysipelotrichaceae</text>
</g>
<g class="st172">
	<text transform="matrix(0.5426 0.84 -0.84 0.5426 672.7361 805.4987)" class="st174 st169" style="font-size:8px;">Erysipelatoclostridium</text>
</g>
<g class="st172">
	<text transform="matrix(0.5477 0.8367 -0.8367 0.5477 726.2559 881.0445)" class="st174 st169" style="font-size:8px;">[Clostridium] spiroforme</text>
</g>
<g class="st172">
	<text transform="matrix(0.5303 0.8478 -0.8478 0.5303 567.1043 653.4036)" class="st174 st169 st175">Veillonellales</text>
</g>
<g class="st172">
	<text transform="matrix(0.5303 0.8478 -0.8478 0.5303 616.1619 731.8232)" class="st174 st169 st175">Veillonellaceae</text>
</g>
<g class="st172">
	<text transform="matrix(0.5303 0.8478 -0.8478 0.5303 665.2186 810.2427)" class="st174 st169 st175">Megasphaera</text>
</g>
<g class="st172">
	<text transform="matrix(0.5303 0.8478 -0.8478 0.5303 715.2938 888.0259)" class="st174 st169" style="font-size:6px;">Megasphaera micronuciformis</text>
</g>
<text transform="matrix(0.2854 0.9584 -0.9584 0.2854 374.6517 531.7287)" class="st169 st170">Fusobacteria</text>
<g class="st172">
	<text transform="matrix(0.2854 0.9584 -0.9584 0.2854 475.4133 694.1359)" class="st174 st169 st177">Fusobacteriales</text>
</g>
<text transform="matrix(0.2788 0.9603 -0.9603 0.2788 373.6188 532.0181)" class="st169 st170">Proteobacteria</text>
<g class="st172">
	<text transform="matrix(0.281 0.9597 -0.9597 0.281 473.579 694.6664)" class="st174 st169 st175">Rhizobiales</text>
</g>
<g class="st172">
	<text transform="matrix(0.2839 0.9588 -0.9588 0.2839 500.9374 783.0449)" class="st174 st169 st175">Rhizobiaceae</text>
</g>
<text transform="matrix(0.7064 -0.7078 0.7078 0.7064 247.7952 468.3397)" class="st169 st170">Eukaryota</text>
<text transform="matrix(0.666 -0.7459 0.7459 0.666 215.0073 515.1676)" class="st169 st170">Fungi</text>
<g class="st172">
	<text transform="matrix(0.617 -0.787 0.787 0.617 103.1273 680.3788)" class="st174 st169 st175">Ascomycota</text>
</g>
<g class="st172">
	<text transform="matrix(0.6152 -0.7884 0.7884 0.6152 40.407 762.0598)" class="st174 st169 st177">Pezizomycotina</text>
</g>
<g class="st172">
	<text transform="matrix(0.5108 -0.8597 0.8597 0.5108 46.7543 885.0611)" class="st174 st169 st175">Eurotiomycetes</text>
</g>
<g class="st172">
	<text transform="matrix(0.5108 -0.8597 0.8597 0.5108 -0.9943 963.8482)" class="st174 st169" style="font-size:8px;">Chaetothyriomycetidae</text>
</g>
<g class="st172">
	<text transform="matrix(0.5108 -0.8597 0.8597 0.5108 -47.8556 1044.276)" class="st174 st169 st175">Chaetothyriales</text>
</g>
<g class="st172">
	<text transform="matrix(0.5102 -0.8601 0.8601 0.5102 -91.9289 1118.6268)" class="st174 st169 st179">Herpotrichiellaceae</text>
</g>
<g class="st172">
	<text transform="matrix(0.5089 -0.8608 0.8608 0.5089 -127.7117 1183.0621)" class="st174 st169 st175">Fonsecaea</text>
</g>
<g class="st172">
	<text transform="matrix(0.5089 -0.8608 0.8608 0.5089 -185.7027 1280.3756)" class="st174 st169 st178">Fonsecaea erecta</text>
</g>
<g class="st172">
	<text transform="matrix(0.6061 -0.7954 0.7954 0.6061 -11.3874 840.5328)" class="st174 st169 st175">Leotiomycetes</text>
</g>
<g class="st172">
	<text transform="matrix(0.6037 -0.7972 0.7972 0.6037 -67.0296 916.5487)" class="st174 st169 st178">Pseudeurotiaceae</text>
</g>
<g class="st172">
	<text transform="matrix(0.6037 -0.7972 0.7972 0.6037 -123.9212 991.3466)" class="st174 st169 st179">Pseudogymnoascus</text>
</g>
<g class="st172">
	<text transform="matrix(0.5603 -0.8283 0.8283 0.5603 -142.7836 1096.316)" class="st174 st169" style="font-size:6px;">Pseudogymnoascus verrucosus</text>
</g>
<g class="st172">
	<text transform="matrix(0.7139 -0.7002 0.7002 0.7139 -17.5145 718.6964)" class="st174 st169 st178">Saccharomycotina</text>
</g>
<g class="st172">
	<text transform="matrix(0.7139 -0.7002 0.7002 0.7139 -81.3051 781.2604)" class="st174 st169 st178">Saccharomycetes</text>
</g>
<g class="st172">
	<text transform="matrix(0.7139 -0.7002 0.7002 0.7139 -146.6356 845.0538)" class="st174 st169 st179">Saccharomycetales</text>
</g>
<g class="st172">
	<text transform="matrix(0.7139 -0.7002 0.7002 0.7139 -211.6249 908.5133)" class="st174 st169" style="font-size:8px;">Saccharomycetaceae</text>
</g>
<g class="st172">
	<text transform="matrix(0.7139 -0.7002 0.7002 0.7139 -281.9276 977.7433)" class="st174 st169 st179">Zygosaccharomyces</text>
</g>
<g class="st172">
	<text transform="matrix(0.7139 -0.7002 0.7002 0.7139 -348.4159 1042.3927)" class="st174 st169" style="font-size:7px;">Zygosaccharomyces rouxii</text>
</g>
<g class="st172">
	<text transform="matrix(0.7447 -0.6674 0.6674 0.7447 37.4466 637.0501)" class="st174 st169 st175">Basidiomycota</text>
</g>
<g class="st172">
	<text transform="matrix(0.724 -0.6898 0.6898 0.724 -22.4228 712.7401)" class="st174 st169 st177">Agaricomycotina</text>
</g>
<g class="st172">
	<text transform="matrix(0.7235 -0.6904 0.6904 0.7235 -86.5493 774.5053)" class="st174 st169 st177">Agaricomycetes</text>
</g>
<g class="st172">
	<text transform="matrix(0.7219 -0.692 0.692 0.7219 -153.4074 840.3256)" class="st174 st169 st178">Agaricomycetidae</text>
</g>
<g class="st172">
	<text transform="matrix(0.7219 -0.692 0.692 0.7219 -202.0058 887.4662)" class="st174 st169 st175">Agaricales</text>
</g>
<g class="st172">
	<text transform="matrix(0.7214 -0.6926 0.6926 0.7214 -276.0064 959.3519)" class="st174 st169 st175">Agaricaceae</text>
</g>
<g class="st172">
	<text transform="matrix(0.7214 -0.6926 0.6926 0.7214 -328.6321 1009.8759)" class="st174 st169 st175">Agaricus</text>
</g>
<g class="st172">
	<text transform="matrix(0.7214 -0.6926 0.6926 0.7214 -419.9276 1096.9706)" class="st174 st169 st178">Agaricus bisporus</text>
</g>
<g class="st172">
	<text transform="matrix(0.7214 -0.6926 0.6926 0.7214 -488.9749 1162.1522)" class="st174 st169" style="font-size:6px;">Agaricus bisporus var. burnettii</text>
</g>
<g class="st172">
	<text transform="matrix(0.7462 -0.6657 0.6657 0.7462 -32.287 697.3508)" class="st174 st169 st178">Pucciniomycotina</text>
</g>
<g class="st172">
	<text transform="matrix(0.7457 -0.6663 0.6663 0.7457 -96.8221 756.105)" class="st174 st169 st175">Mixiomycetes</text>
</g>
<g class="st172">
	<text transform="matrix(0.7457 -0.6663 0.6663 0.7457 -142.9178 797.293)" class="st174 st169 st175">Mixiales</text>
</g>
<g class="st172">
	<text transform="matrix(0.7457 -0.6663 0.6663 0.7457 -219.8487 866.0328)" class="st174 st169 st175">Mixiaceae</text>
</g>
<g class="st172">
	<text transform="matrix(0.7457 -0.6663 0.6663 0.7457 -269.6043 910.4913)" class="st174 st169 st175">Mixia</text>
</g>
<g class="st172">
	<text transform="matrix(0.7457 -0.6663 0.6663 0.7457 -377.8277 1006.9244)" class="st174 st169 st177">Mixia osmundae</text>
</g>
<g class="st172">
	<text transform="matrix(0.7651 -0.6439 0.6439 0.7651 -47.1312 689.3466)" class="st174 st169 st178">Ustilaginomycotina</text>
</g>
<g class="st172">
	<text transform="matrix(0.7642 -0.645 0.645 0.7642 -114.8694 747.6155)" class="st174 st169 st178">Ustilaginomycetes</text>
</g>
<g class="st172">
	<text transform="matrix(0.7642 -0.645 0.645 0.7642 -174.4162 798.4022)" class="st174 st169 st175">Ustilaginales</text>
</g>
<g class="st172">
	<text transform="matrix(0.7642 -0.645 0.645 0.7642 -253.2534 864.9471)" class="st174 st169 st175">Ustilaginaceae</text>
</g>
<g class="st172">
	<text transform="matrix(0.7637 -0.6456 0.6456 0.7637 -324.6814 926.1483)" class="st174 st169 st175">Moesziomyces</text>
</g>
<g class="st172">
	<text transform="matrix(0.7637 -0.6456 0.6456 0.7637 -398.2649 987.0463)" class="st174 st169" style="font-size:7px;">Moesziomyces antarcticus</text>
</g>
<g class="st172">
	<text transform="matrix(0.7835 -0.6214 0.6214 0.7835 17.4611 618.1321)" class="st174 st169 st177">Mucoromycotina</text>
</g>
<g class="st172">
	<text transform="matrix(0.7835 -0.6214 0.6214 0.7835 -52.2943 673.4627)" class="st174 st169 st177">Mucoromycetes</text>
</g>
<g class="st172">
	<text transform="matrix(0.7835 -0.6214 0.6214 0.7835 -106.4149 716.6473)" class="st174 st169 st175">Mucorales</text>
</g>
<g class="st172">
	<text transform="matrix(0.7816 -0.6238 0.6238 0.7816 -198.4396 791.9698)" class="st174 st169 st178">Phycomycetaceae</text>
</g>
<g class="st172">
	<text transform="matrix(0.7816 -0.6238 0.6238 0.7816 -259.9213 841.5553)" class="st174 st169 st175">Phycomyces</text>
</g>
<g class="st172">
	<text transform="matrix(0.7816 -0.6238 0.6238 0.7816 -346.6781 909.524)" class="st174 st169" style="font-size:7px;">Phycomyces blakesleeanus</text>
</g>
<g class="st172">
	<text transform="matrix(0.7938 -0.6082 0.6082 0.7938 13.9255 611.0341)" class="st174 st169 st178">Kickxellomycotina</text>
</g>
<g class="st172">
	<text transform="matrix(0.7938 -0.6082 0.6082 0.7938 -56.9971 665.3798)" class="st174 st169 st178">Kickxellomycetes</text>
</g>
<g class="st172">
	<text transform="matrix(0.7938 -0.6082 0.6082 0.7938 -118.1985 712.7802)" class="st174 st169 st175">Kickxellales</text>
</g>
<g class="st172">
	<text transform="matrix(0.7938 -0.6082 0.6082 0.7938 -200.0889 775.5302)" class="st174 st169 st175">Kickxellaceae</text>
</g>
<g class="st172">
	<text transform="matrix(0.7938 -0.6082 0.6082 0.7938 -254.3001 817.0707)" class="st174 st169 st175">Linderina</text>
</g>
<g class="st172">
	<text transform="matrix(0.7938 -0.6082 0.6082 0.7938 -356.0078 894.2504)" class="st174 st169 st179">Linderina pennispora</text>
</g>
<text transform="matrix(0.8047 -0.5936 0.5936 0.8047 179.1037 496.439)" class="st169 st170">Metazoa</text>
<g class="st172">
	<text transform="matrix(0.8002 -0.5997 0.5997 0.8002 32.2335 591.8014)" class="st174 st169 st175">Crustacea</text>
</g>
<g class="st172">
	<text transform="matrix(0.8002 -0.5997 0.5997 0.8002 -60.9989 661.6774)" class="st174 st169 st175">Multicrustacea</text>
</g>
<g class="st172">
	<text transform="matrix(0.8002 -0.5997 0.5997 0.8002 -129.8512 713.2809)" class="st174 st169 st175">Malacostraca</text>
</g>
<g class="st172">
	<text transform="matrix(0.8002 -0.5997 0.5997 0.8002 -209.2726 772.5558)" class="st174 st169 st177">Eumalacostraca</text>
</g>
<g class="st172">
	<text transform="matrix(0.8002 -0.5997 0.5997 0.8002 -266.1444 815.4303)" class="st174 st169 st175">Peracarida</text>
</g>
<g class="st172">
	<text transform="matrix(0.8002 -0.5997 0.5997 0.8002 -343.5719 873.4611)" class="st174 st169 st175">Amphipoda</text>
</g>
<g class="st172">
	<text transform="matrix(0.8002 -0.5997 0.5997 0.8002 -423.2748 933.1969)" class="st174 st169 st175">Gammaridea</text>
</g>
<g class="st172">
	<text transform="matrix(0.8002 -0.5997 0.5997 0.8002 -507.5968 996.3947)" class="st174 st169 st175">Lysianassoidea</text>
</g>
<g class="st172">
	<text transform="matrix(0.8002 -0.5997 0.5997 0.8002 -576.1031 1047.7389)" class="st174 st169 st175">Lysianassidae</text>
</g>
<g class="st172">
	<text transform="matrix(0.8002 -0.5997 0.5997 0.8002 -638.3776 1094.4127)" class="st174 st169 st175">Hirondellea</text>
</g>
<g class="st172">
	<text transform="matrix(0.8002 -0.5997 0.5997 0.8002 -726.0602 1159.629)" class="st174 st169 st178">Hirondellea gigas</text>
</g>
<g class="st172">
	<text transform="matrix(0.8011 -0.5985 0.5985 0.8011 31.4872 591.5513)" class="st174 st169 st175">Hexapoda</text>
</g>
<g class="st172">
	<text transform="matrix(0.8011 -0.5985 0.5985 0.8011 -29.4456 637.0748)" class="st174 st169 st175">Insecta</text>
</g>
<g class="st172">
	<text transform="matrix(0.8011 -0.5985 0.5985 0.8011 -114.046 700.2798)" class="st174 st169 st175">Pterygota</text>
</g>
<g class="st172">
	<text transform="matrix(0.8011 -0.5985 0.5985 0.8011 -186.3702 754.314)" class="st174 st169 st175">Neoptera</text>
</g>
<g class="st172">
	<text transform="matrix(0.8011 -0.5985 0.5985 0.8011 -272.4127 818.5967)" class="st174 st169 st175">Lepidoptera</text>
</g>
<g class="st172">
	<text transform="matrix(0.8011 -0.5985 0.5985 0.8011 -332.6148 863.5743)" class="st174 st169 st175">Glossata</text>
</g>
<g class="st172">
	<text transform="matrix(0.8011 -0.5985 0.5985 0.8011 -435.0281 940.088)" class="st174 st169 st175">Neolepidoptera</text>
</g>
<g class="st172">
	<text transform="matrix(0.8011 -0.5985 0.5985 0.8011 -495.9615 985.6114)" class="st174 st169 st175">Heteroneura</text>
</g>
<g class="st172">
	<text transform="matrix(0.8011 -0.5985 0.5985 0.8011 -576.6588 1045.9009)" class="st174 st169 st175">Bombycoidea</text>
</g>
<g class="st172">
	<text transform="matrix(0.8011 -0.5985 0.5985 0.8011 -645.2437 1097.1411)" class="st174 st169 st175">Bombycidae</text>
</g>
<g class="st172">
	<text transform="matrix(0.8011 -0.5985 0.5985 0.8011 -718.9908 1152.2378)" class="st174 st169 st175">Bombycinae</text>
</g>
<g class="st172">
	<text transform="matrix(0.8011 -0.5985 0.5985 0.8011 -775.1075 1194.1631)" class="st174 st169 st175">Bombyx</text>
</g>
<g class="st172">
	<text transform="matrix(0.8011 -0.5985 0.5985 0.8011 -870.9361 1265.7573)" class="st174 st169 st175">Bombyx mori</text>
</g>
<g class="st172">
	<text transform="matrix(0.8025 -0.5967 0.5967 0.8025 39.1063 584.675)" class="st174 st169 st175">Craniata</text>
</g>
<g class="st172">
	<text transform="matrix(0.802 -0.5973 0.5973 0.802 -57.8822 657.3001)" class="st174 st169 st175">Actinopterygii</text>
</g>
<g class="st172">
	<text transform="matrix(0.802 -0.5973 0.5973 0.802 -119.5965 703.2606)" class="st174 st169 st175">Actinopteri</text>
</g>
<g class="st172">
	<text transform="matrix(0.802 -0.5973 0.5973 0.802 -196.4493 760.4959)" class="st174 st169 st175">Neopterygii</text>
</g>
<g class="st172">
	<text transform="matrix(0.802 -0.5973 0.5973 0.802 -258.8758 806.9871)" class="st174 st169 st175">Teleostei</text>
</g>
</svg>
