<svg version="1.1" xmlns="http://www.w3.org/2000/svg" viewBox="0 0 916 600" width="916" height="600" style="font-family: &quot;Helvetica Neue&quot;, Helvetica, Arial, sans-serif;"><g transform="translate(5,5)"><g transform="translate(217.5032507293858,351.28963453065603)scale(0.9353242313030901)"><path class="link" d="M360,-4.091537132987909C450,-4.091537132987909 450,-4.091537132987909 540,-4.091537132987909" style="fill: none; stroke-opacity: 0.5; stroke-linecap: round; stroke: rgb(21, 101, 192); stroke-width: 17.7732px;"></path><path class="link" d="M360,-67.18796776050664C450,-67.18796776050664 450,-76.32397812320093 540,-76.32397812320093" style="fill: none; stroke-opacity: 0.5; stroke-linecap: round; stroke: rgb(21, 101, 192); stroke-width: 18.4847px;"></path><path class="link" d="M360,-67.18796776050664C450,-67.18796776050664 450,-58.05195739781233 540,-58.05195739781233" style="fill: none; stroke-opacity: 0.5; stroke-linecap: round; stroke: rgb(21, 101, 192); stroke-width: 2.0593px;"></path><path class="link" d="M180,-20.49150834772597C270,-20.49150834772597 270,-86.31980426021877 360,-86.31980426021877" style="fill: none; stroke-opacity: 0.5; stroke-linecap: round; stroke: rgb(21, 101, 192); stroke-width: 2.1186px;"></path><path class="link" d="M180,-20.49150834772597C270,-20.49150834772597 270,-67.18796776050664 360,-67.18796776050664" style="fill: none; stroke-opacity: 0.5; stroke-linecap: round; stroke: rgb(21, 101, 192); stroke-width: 20.1451px;"></path><path class="link" d="M180,-20.49150834772597C270,-20.49150834772597 270,-48.085780080598745 360,-48.085780080598745" style="fill: none; stroke-opacity: 0.5; stroke-linecap: round; stroke: rgb(21, 101, 192); stroke-width: 2.0593px;"></path><path class="link" d="M180,-20.49150834772597C270,-20.49150834772597 270,-38.02648244099022 360,-38.02648244099022" style="fill: none; stroke-opacity: 0.5; stroke-linecap: round; stroke: rgb(21, 101, 192); stroke-width: 2.0593px;"></path><path class="link" d="M180,-20.49150834772597C270,-20.49150834772597 270,-25.239493379389756 360,-25.239493379389756" style="fill: none; stroke-opacity: 0.5; stroke-linecap: round; stroke: rgb(21, 101, 192); stroke-width: 7.51468px;"></path><path class="link" d="M180,-20.49150834772597C270,-20.49150834772597 270,-4.091537132987909 360,-4.091537132987909" style="fill: none; stroke-opacity: 0.5; stroke-linecap: round; stroke: rgb(21, 101, 192); stroke-width: 18.7812px;"></path><path class="link" d="M180,-20.49150834772597C270,-20.49150834772597 270,14.328727691421989 360,14.328727691421989" style="fill: none; stroke-opacity: 0.5; stroke-linecap: round; stroke: rgb(21, 101, 192); stroke-width: 2.0593px;"></path><path class="link" d="M180,-20.49150834772597C270,-20.49150834772597 270,24.388025331030505 360,24.388025331030505" style="fill: none; stroke-opacity: 0.5; stroke-linecap: round; stroke: rgb(21, 101, 192); stroke-width: 2.0593px;"></path><path class="link" d="M180,-20.49150834772597C270,-20.49150834772597 270,34.65486470926885 360,34.65486470926885" style="fill: none; stroke-opacity: 0.5; stroke-linecap: round; stroke: rgb(21, 101, 192); stroke-width: 2.47438px;"></path><path class="link" d="M180,-20.49150834772597C270,-20.49150834772597 270,45.33678756476684 360,45.33678756476684" style="fill: none; stroke-opacity: 0.5; stroke-linecap: round; stroke: rgb(21, 101, 192); stroke-width: 2.88946px;"></path><path class="link" d="M0,0C90,0 90,-20.49150834772597 180,-20.49150834772597" style="fill: none; stroke-opacity: 0.5; stroke-linecap: round; stroke: rgb(21, 101, 192); stroke-width: 63.4324px;"></path><path class="link" d="M0,0C90,0 90,20.491508347725954 180,20.491508347725954" style="fill: none; stroke-opacity: 0.5; stroke-linecap: round; stroke: rgb(46, 125, 50); stroke-width: 2.53368px;"></path><g class="node" transform="translate(180,20.49150848388672)" style="cursor: pointer;"><circle r="1.266839378238342" style="stroke-width: 1.5px; stroke: rgb(46, 125, 50); fill: rgb(46, 125, 50);"></circle><path d="M7.757153947967043e-17,-1.266839378238342A1.266839378238342,1.266839378238342 0 1,1 -0.4332845857156788,1.1904396154515784L0,0Z" style="fill: rgb(46, 125, 50); fill-opacity: 0.8;"></path><text x="-10" dy=".35em" text-anchor="end" style="font: 10px sans-serif; fill-opacity: 1;">Eukaryota</text></g><g class="node" transform="translate(360,45.336788177490234)" style="cursor: pointer;"><circle r="1.4447322970639034" style="stroke-width: 1.5px; stroke: rgb(21, 101, 192); fill: rgb(21, 101, 192);"></circle><path d="M8.846433916120561e-17,-1.4447322970639034A1.4447322970639034,1.4447322970639034 0 0,1 8.846433916120561e-17,-1.4447322970639034L0,0Z" style="fill: rgb(21, 101, 192); fill-opacity: 0.8;"></path><text x="-10" dy=".35em" text-anchor="end" style="font: 10px sans-serif; fill-opacity: 1;">Verrucomicrobia</text></g><g class="node" transform="translate(360,34.65486526489258)" style="cursor: pointer;"><circle r="1.2371905584340817" style="stroke-width: 1.5px; stroke: rgb(21, 101, 192); fill: rgb(21, 101, 192);"></circle><path d="M7.575607286608122e-17,-1.2371905584340817A1.2371905584340817,1.2371905584340817 0 0,1 7.575607286608122e-17,-1.2371905584340817L0,0Z" style="fill: rgb(21, 101, 192); fill-opacity: 0.8;"></path><text x="-10" dy=".35em" text-anchor="end" style="font: 10px sans-serif; fill-opacity: 1;">Proteobacteria</text></g><g class="node" transform="translate(360,24.388025283813477)" style="cursor: pointer;"><circle r="1.0296488198042602" style="stroke-width: 1.5px; stroke: rgb(21, 101, 192); fill: rgb(255, 255, 255); fill-opacity: 0;"></circle><path d="M0,1.0296488198042602A1.0296488198042602,1.0296488198042602 0 1,1 0,-1.0296488198042602A1.0296488198042602,1.0296488198042602 0 1,1 0,1.0296488198042602Z" style="fill: rgb(21, 101, 192); fill-opacity: 0.8;"></path><text x="10" dy=".35em" text-anchor="start" style="font: 10px sans-serif; fill-opacity: 1;">Ignavibacteriae</text></g><g class="node" transform="translate(360,14.328727722167969)" style="cursor: pointer;"><circle r="1.0296488198042602" style="stroke-width: 1.5px; stroke: rgb(21, 101, 192); fill: rgb(21, 101, 192);"></circle><path d="M6.304780657095686e-17,-1.0296488198042602A1.0296488198042602,1.0296488198042602 0 0,1 6.304780657095686e-17,-1.0296488198042602L0,0Z" style="fill: rgb(21, 101, 192); fill-opacity: 0.8;"></path><text x="-10" dy=".35em" text-anchor="end" style="font: 10px sans-serif; fill-opacity: 1;">Fusobacteria</text></g><g class="node" transform="translate(540,-4.091536998748779)" style="cursor: pointer;"><circle r="8.88658606793322" style="stroke-width: 1.5px; stroke: rgb(21, 101, 192); fill: rgb(21, 101, 192);"></circle><path d="M5.441464591720941e-16,-8.88658606793322A8.88658606793322,8.88658606793322 0 0,1 5.441464591720941e-16,-8.88658606793322L0,0Z" style="fill: rgb(21, 101, 192); fill-opacity: 0.8;"></path><text x="-10" dy=".35em" text-anchor="end" style="font: 10px sans-serif; fill-opacity: 1;">Clostridia</text></g><g class="node" transform="translate(360,-4.091536998748779)" style="cursor: pointer;"><circle r="9.390616004605643" style="stroke-width: 1.5px; stroke: rgb(21, 101, 192); fill: rgb(255, 255, 255); fill-opacity: 0;"></circle><path d="M5.750093916031104e-16,-9.390616004605643A9.390616004605643,9.390616004605643 0 0,1 3.460792977590544,-8.729638074526093L0,0Z" style="fill: rgb(21, 101, 192); fill-opacity: 0.8;"></path><text x="-10" dy=".35em" text-anchor="end" style="font: 10px sans-serif; fill-opacity: 1;">Firmicutes</text></g><g class="node" transform="translate(360,-25.23949432373047)" style="cursor: pointer;"><circle r="3.7573402417962005" style="stroke-width: 1.5px; stroke: rgb(21, 101, 192); fill: rgb(21, 101, 192);"></circle><path d="M2.3007073502116294e-16,-3.7573402417962005A3.7573402417962005,3.7573402417962005 0 0,1 2.3007073502116294e-16,-3.7573402417962005L0,0Z" style="fill: rgb(21, 101, 192); fill-opacity: 0.8;"></path><text x="-10" dy=".35em" text-anchor="end" style="font: 10px sans-serif; fill-opacity: 1;">Deferribacteres</text></g><g class="node" transform="translate(360,-38.02648162841797)" style="cursor: pointer;"><circle r="1.0296488198042602" style="stroke-width: 1.5px; stroke: rgb(21, 101, 192); fill: rgb(255, 255, 255); fill-opacity: 0;"></circle><path d="M0,1.0296488198042602A1.0296488198042602,1.0296488198042602 0 1,1 0,-1.0296488198042602A1.0296488198042602,1.0296488198042602 0 1,1 0,1.0296488198042602Z" style="fill: rgb(21, 101, 192); fill-opacity: 0.8;"></path><text x="10" dy=".35em" text-anchor="start" style="font: 10px sans-serif; fill-opacity: 1;">Candidatus Zambryskibacteria</text></g><g class="node" transform="translate(360,-48.08578109741211)" style="cursor: pointer;"><circle r="1.0296488198042602" style="stroke-width: 1.5px; stroke: rgb(21, 101, 192); fill: rgb(255, 255, 255); fill-opacity: 0;"></circle><path d="M0,1.0296488198042602A1.0296488198042602,1.0296488198042602 0 1,1 0,-1.0296488198042602A1.0296488198042602,1.0296488198042602 0 1,1 0,1.0296488198042602Z" style="fill: rgb(21, 101, 192); fill-opacity: 0.8;"></path><text x="10" dy=".35em" text-anchor="start" style="font: 10px sans-serif; fill-opacity: 1;">Candidatus Daviesbacteria</text></g><g class="node" transform="translate(540,-58.05195617675781)" style="cursor: pointer;"><circle r="1.0296488198042602" style="stroke-width: 1.5px; stroke: rgb(21, 101, 192); fill: rgb(21, 101, 192);"></circle><path d="M6.304780657095686e-17,-1.0296488198042602A1.0296488198042602,1.0296488198042602 0 0,1 6.304780657095686e-17,-1.0296488198042602L0,0Z" style="fill: rgb(21, 101, 192); fill-opacity: 0.8;"></path><text x="-10" dy=".35em" text-anchor="end" style="font: 10px sans-serif; fill-opacity: 1;">Flavobacteriia</text></g><g class="node" transform="translate(540,-76.323974609375)" style="cursor: pointer;"><circle r="9.24237190558434" style="stroke-width: 1.5px; stroke: rgb(21, 101, 192); fill: rgb(21, 101, 192);"></circle><path d="M5.659320585351643e-16,-9.24237190558434A9.24237190558434,9.24237190558434 0 0,1 1.04223045314318,-9.183419522360703L0,0Z" style="fill: rgb(21, 101, 192); fill-opacity: 0.8;"></path><text x="-10" dy=".35em" text-anchor="end" style="font: 10px sans-serif; fill-opacity: 1;">Bacteroidia</text></g><g class="node" transform="translate(360,-67.1879653930664)" style="cursor: pointer;"><circle r="10.072538860103625" style="stroke-width: 1.5px; stroke: rgb(21, 101, 192); fill: rgb(255, 255, 255); fill-opacity: 0;"></circle><path d="M6.167651237156617e-16,-10.072538860103625A10.072538860103625,10.072538860103625 0 0,1 5.302508417790568,-8.563845139162536L0,0Z" style="fill: rgb(21, 101, 192); fill-opacity: 0.8;"></path><text x="-10" dy=".35em" text-anchor="end" style="font: 10px sans-serif; fill-opacity: 1;">Bacteroidetes</text></g><g class="node" transform="translate(360,-86.3198013305664)" style="cursor: pointer;"><circle r="1.0592976396085203" style="stroke-width: 1.5px; stroke: rgb(21, 101, 192); fill: rgb(21, 101, 192);"></circle><path d="M6.486327318454604e-17,-1.0592976396085203A1.0592976396085203,1.0592976396085203 0 0,1 6.486327318454604e-17,-1.0592976396085203L0,0Z" style="fill: rgb(21, 101, 192); fill-opacity: 0.8;"></path><text x="-10" dy=".35em" text-anchor="end" style="font: 10px sans-serif; fill-opacity: 1;">Actinobacteria</text></g><g class="node" transform="translate(180,-20.49150848388672)" style="cursor: pointer;"><circle r="31.71617731721359" style="stroke-width: 1.5px; stroke: rgb(21, 101, 192); fill: rgb(255, 255, 255); fill-opacity: 0;"></circle><path d="M1.9420557516357755e-15,-31.71617731721359A31.71617731721359,31.71617731721359 0 0,1 29.209072626840133,12.359044457275504L0,0Z" style="fill: rgb(21, 101, 192); fill-opacity: 0.8;"></path><text x="-10" dy=".35em" text-anchor="end" style="font: 10px sans-serif; fill-opacity: 1;">Bacteria</text></g><g class="node" transform="translate(0,0)" style="cursor: pointer;"><circle r="52.5" style="stroke-width: 1.5px; stroke: rgb(170, 170, 170); fill: rgb(255, 255, 255); fill-opacity: 0;"></circle><path d="M3.214697847761802e-15,-52.5A52.5,52.5 0 0,1 31.287320379277546,42.158671509956804L0,0Z" style="fill: rgb(170, 170, 170); fill-opacity: 0.8;"></path><text x="-10" dy=".35em" text-anchor="end" style="font: 10px sans-serif; fill-opacity: 1;">Organism</text></g></g></g></svg>