<?xml version="1.0" encoding="utf-8"?>
<!-- Generator: Adobe Illustrator 23.0.6, SVG Export Plug-In . SVG Version: 6.00 Build 0)  -->
<svg version="1.1" id="Layer_1" xmlns="http://www.w3.org/2000/svg" xmlns:xlink="http://www.w3.org/1999/xlink" x="0px" y="0px"
	 viewBox="0 0 740 740" style="enable-background:new 0 0 740 740;" xml:space="preserve">
<style type="text/css">
	.st0{fill-rule:evenodd;clip-rule:evenodd;fill:#B9CD6F;}
	.st1{fill-rule:evenodd;clip-rule:evenodd;fill:#E9E994;}
	.st2{fill-rule:evenodd;clip-rule:evenodd;fill:#F7EB8D;}
	.st3{display:none;fill-rule:evenodd;clip-rule:evenodd;fill:#F8ED9B;fill-opacity:0.2;}
	.st4{display:none;fill-rule:evenodd;clip-rule:evenodd;fill:#F8EFA3;fill-opacity:0.2;}
	.st5{display:none;fill-rule:evenodd;clip-rule:evenodd;fill:#F9F0AB;fill-opacity:0.2;}
	.st6{fill-rule:evenodd;clip-rule:evenodd;fill:#D5DB9D;}
	.st7{display:none;fill-rule:evenodd;clip-rule:evenodd;fill:#EAE08F;fill-opacity:0.2;}
	.st8{display:none;fill-rule:evenodd;clip-rule:evenodd;fill:#E5E28A;fill-opacity:0.2;}
	.st9{display:none;fill-rule:evenodd;clip-rule:evenodd;fill:#E7E390;fill-opacity:0.2;}
	.st10{display:none;fill-rule:evenodd;clip-rule:evenodd;fill:#E8E596;fill-opacity:0.2;}
	.st11{display:none;fill-rule:evenodd;clip-rule:evenodd;fill:#FFFFFF;fill-opacity:0.2;}
	.st12{display:none;fill-rule:evenodd;clip-rule:evenodd;fill:#EEDE95;fill-opacity:0.2;}
	.st13{display:none;fill-rule:evenodd;clip-rule:evenodd;fill:#EFE09C;fill-opacity:0.2;}
	.st14{display:none;fill-rule:evenodd;clip-rule:evenodd;fill:#F0E2A3;fill-opacity:0.2;}
	.st15{display:none;fill-rule:evenodd;clip-rule:evenodd;fill:#EBE17A;fill-opacity:0.2;}
	.st16{display:none;fill-rule:evenodd;clip-rule:evenodd;fill:#ECE381;fill-opacity:0.2;}
	.st17{display:none;fill-rule:evenodd;clip-rule:evenodd;fill:#EDE487;fill-opacity:0.2;}
	.st18{display:none;fill-rule:evenodd;clip-rule:evenodd;fill:#EFD580;fill-opacity:0.2;}
	.st19{display:none;fill-rule:evenodd;clip-rule:evenodd;fill:#F0C675;fill-opacity:0.2;}
	.st20{display:none;fill-rule:evenodd;clip-rule:evenodd;fill:#F0C87B;fill-opacity:0.2;}
	.st21{display:none;fill-rule:evenodd;clip-rule:evenodd;fill:#F1CB82;fill-opacity:0.2;}
	.st22{display:none;fill-rule:evenodd;clip-rule:evenodd;fill:#F0BE91;fill-opacity:0.2;}
	.st23{display:none;fill-rule:evenodd;clip-rule:evenodd;fill:#F1C298;fill-opacity:0.2;}
	.st24{display:none;fill-rule:evenodd;clip-rule:evenodd;fill:#E5AC8C;fill-opacity:0.2;}
	.st25{display:none;fill-rule:evenodd;clip-rule:evenodd;fill:#E7B092;fill-opacity:0.2;}
	.st26{display:none;fill-rule:evenodd;clip-rule:evenodd;fill:#E8B598;fill-opacity:0.2;}
	.st27{display:none;fill-rule:evenodd;clip-rule:evenodd;fill:#D0D996;fill-opacity:0.2;}
	.st28{display:none;fill-rule:evenodd;clip-rule:evenodd;fill:#D2DB9B;fill-opacity:0.2;}
	.st29{display:none;fill-rule:evenodd;clip-rule:evenodd;fill:#D5DDA1;fill-opacity:0.2;}
	.st30{display:none;fill-rule:evenodd;clip-rule:evenodd;fill:#C9D2B5;fill-opacity:0.2;}
	.st31{display:none;fill-rule:evenodd;clip-rule:evenodd;fill:#A6BBA5;fill-opacity:0.2;}
	.st32{display:none;fill-rule:evenodd;clip-rule:evenodd;fill:#AABEA9;fill-opacity:0.2;}
	.st33{display:none;fill-rule:evenodd;clip-rule:evenodd;fill:#AEC1AD;fill-opacity:0.2;}
	.st34{fill-rule:evenodd;clip-rule:evenodd;fill:#A7B8A8;}
	.st35{fill-rule:evenodd;clip-rule:evenodd;fill:#B49A3D;}
	.st36{fill-rule:evenodd;clip-rule:evenodd;fill:#B28647;}
	.st37{fill-rule:evenodd;clip-rule:evenodd;fill:#9F762F;}
	.st38{display:none;fill-rule:evenodd;clip-rule:evenodd;fill:#A67A31;fill-opacity:0.2;}
	.st39{display:none;fill-rule:evenodd;clip-rule:evenodd;fill:#A97D32;fill-opacity:0.2;}
	.st40{fill-rule:evenodd;clip-rule:evenodd;fill:#C3824C;}
	.st41{display:none;fill-rule:evenodd;clip-rule:evenodd;fill:#C98D4C;fill-opacity:0.2;}
	.st42{display:none;fill-rule:evenodd;clip-rule:evenodd;fill:#CA9050;fill-opacity:0.2;}
	.st43{display:none;fill-rule:evenodd;clip-rule:evenodd;fill:#CB9355;fill-opacity:0.2;}
	.st44{display:none;fill-rule:evenodd;clip-rule:evenodd;fill:#B68334;fill-opacity:0.2;}
	.st45{display:none;fill-rule:evenodd;clip-rule:evenodd;fill:#D6A680;fill-opacity:0.2;}
	.st46{display:none;fill-rule:evenodd;clip-rule:evenodd;fill:#BF7D54;fill-opacity:0.2;}
	.st47{display:none;fill-rule:evenodd;clip-rule:evenodd;fill:#C38C5F;fill-opacity:0.2;}
	.st48{display:none;fill-rule:evenodd;clip-rule:evenodd;fill:#DEAA6B;fill-opacity:0.2;}
	.st49{display:none;fill-rule:evenodd;clip-rule:evenodd;fill:#DFAD70;fill-opacity:0.2;}
	.st50{display:none;fill-rule:evenodd;clip-rule:evenodd;fill:#9F745B;fill-opacity:0.2;}
	.st51{display:none;fill-rule:evenodd;clip-rule:evenodd;fill:#A2765D;fill-opacity:0.2;}
	.st52{display:none;fill-rule:evenodd;clip-rule:evenodd;fill:#9C6450;fill-opacity:0.2;}
	.st53{display:none;fill-rule:evenodd;clip-rule:evenodd;fill:#9F6652;fill-opacity:0.2;}
	.st54{display:none;fill-rule:evenodd;clip-rule:evenodd;fill:#BC6D49;fill-opacity:0.2;}
	.st55{display:none;fill-rule:evenodd;clip-rule:evenodd;fill:#BD704D;fill-opacity:0.2;}
	.st56{display:none;fill-rule:evenodd;clip-rule:evenodd;fill:#B9763F;fill-opacity:0.2;}
	.st57{display:none;fill-rule:evenodd;clip-rule:evenodd;fill:#BF6E5D;fill-opacity:0.2;}
	.st58{display:none;fill-rule:evenodd;clip-rule:evenodd;fill:#AF643C;fill-opacity:0.2;}
	.st59{display:none;fill-rule:evenodd;clip-rule:evenodd;fill:#984A3E;fill-opacity:0.2;}
	.st60{display:none;fill-rule:evenodd;clip-rule:evenodd;fill:#9B4C3F;fill-opacity:0.2;}
	.st61{display:none;fill-rule:evenodd;clip-rule:evenodd;fill:#7C669B;fill-opacity:0.2;}
	.st62{display:none;fill-rule:evenodd;clip-rule:evenodd;fill:#6F629B;fill-opacity:0.2;}
	.st63{display:none;fill-rule:evenodd;clip-rule:evenodd;fill:#72659D;fill-opacity:0.2;}
	.st64{display:none;fill-rule:evenodd;clip-rule:evenodd;fill:#876B9C;fill-opacity:0.2;}
	.st65{display:none;fill-rule:evenodd;clip-rule:evenodd;fill:#8A6E9E;fill-opacity:0.2;}
	.st66{display:none;fill-rule:evenodd;clip-rule:evenodd;fill:#8C5A82;fill-opacity:0.2;}
	.st67{display:none;fill-rule:evenodd;clip-rule:evenodd;fill:#8F5C85;fill-opacity:0.2;}
	.st68{display:none;fill-rule:evenodd;clip-rule:evenodd;fill:#984D89;fill-opacity:0.2;}
	.st69{display:none;fill-rule:evenodd;clip-rule:evenodd;fill:#934B8B;fill-opacity:0.2;}
	.st70{display:none;fill-rule:evenodd;clip-rule:evenodd;fill:#9D4E87;fill-opacity:0.2;}
	.st71{display:none;fill-rule:evenodd;clip-rule:evenodd;fill:#915B95;fill-opacity:0.2;}
	.st72{display:none;fill-rule:evenodd;clip-rule:evenodd;fill:#92538C;fill-opacity:0.2;}
	.st73{display:none;fill-rule:evenodd;clip-rule:evenodd;fill:#8B6397;fill-opacity:0.2;}
	.st74{display:none;fill-rule:evenodd;clip-rule:evenodd;fill:#716084;fill-opacity:0.2;}
	.st75{display:none;fill-rule:evenodd;clip-rule:evenodd;fill:#2E6093;fill-opacity:0.2;}
	.st76{display:none;fill-rule:evenodd;clip-rule:evenodd;fill:#395785;fill-opacity:0.2;}
	.st77{display:none;fill-rule:evenodd;clip-rule:evenodd;fill:#3A5988;fill-opacity:0.2;}
	.st78{display:none;fill-rule:evenodd;clip-rule:evenodd;fill:#41476B;fill-opacity:0.2;}
	.st79{display:none;fill-rule:evenodd;clip-rule:evenodd;fill:#4A5072;fill-opacity:0.2;}
	.st80{display:none;fill-rule:evenodd;clip-rule:evenodd;fill:#393E64;fill-opacity:0.2;}
	.st81{display:none;fill-rule:evenodd;clip-rule:evenodd;fill:#AAA1CC;fill-opacity:0.2;}
	.st82{display:none;fill-rule:evenodd;clip-rule:evenodd;fill:#E0B5C9;fill-opacity:0.2;}
	.st83{display:none;fill-rule:evenodd;clip-rule:evenodd;fill:#DE92AC;fill-opacity:0.2;}
	.st84{display:none;fill-rule:evenodd;clip-rule:evenodd;fill:#E098B0;fill-opacity:0.2;}
	.st85{display:none;fill-rule:evenodd;clip-rule:evenodd;fill:#ED7C9D;fill-opacity:0.2;}
	.st86{display:none;fill-rule:evenodd;clip-rule:evenodd;fill:#EE82A2;fill-opacity:0.2;}
	.st87{display:none;fill-rule:evenodd;clip-rule:evenodd;fill:#EF91AC;fill-opacity:0.2;}
	.st88{display:none;fill-rule:evenodd;clip-rule:evenodd;fill:#EEB096;fill-opacity:0.2;}
	.st89{display:none;fill-rule:evenodd;clip-rule:evenodd;fill:#EDA994;fill-opacity:0.2;}
	.st90{display:none;fill-rule:evenodd;clip-rule:evenodd;fill:#EEB798;fill-opacity:0.2;}
	.st91{display:none;fill-rule:evenodd;clip-rule:evenodd;fill:#ECC099;fill-opacity:0.2;}
	.st92{display:none;fill-rule:evenodd;clip-rule:evenodd;fill:#F6D5AA;fill-opacity:0.2;}
	.st93{display:none;fill-rule:evenodd;clip-rule:evenodd;fill:#EFD283;fill-opacity:0.2;}
	.st94{display:none;fill-rule:evenodd;clip-rule:evenodd;fill:#F0D48A;fill-opacity:0.2;}
	.st95{display:none;fill-rule:evenodd;clip-rule:evenodd;fill:#EED653;fill-opacity:0.2;}
	.st96{display:none;fill-rule:evenodd;clip-rule:evenodd;fill:#EED859;fill-opacity:0.2;}
	.st97{display:none;fill-rule:evenodd;clip-rule:evenodd;fill:#EFD95F;fill-opacity:0.2;}
	.st98{display:none;fill-rule:evenodd;clip-rule:evenodd;fill:#EDE363;fill-opacity:0.2;}
	.st99{display:none;fill-rule:evenodd;clip-rule:evenodd;fill:#EEE469;fill-opacity:0.2;}
	.st100{display:none;fill-rule:evenodd;clip-rule:evenodd;fill:#DBDC7F;fill-opacity:0.2;}
	.st101{display:none;fill-rule:evenodd;clip-rule:evenodd;fill:#E4DD66;fill-opacity:0.2;}
	.st102{display:none;fill-rule:evenodd;clip-rule:evenodd;fill:#DED85C;fill-opacity:0.2;}
	.st103{display:none;fill-rule:evenodd;clip-rule:evenodd;fill:#DFD961;fill-opacity:0.2;}
	.st104{display:none;fill-rule:evenodd;clip-rule:evenodd;fill:#EAE272;fill-opacity:0.2;}
	.st105{display:none;fill-rule:evenodd;clip-rule:evenodd;fill:#EBE378;fill-opacity:0.2;}
	.st106{display:none;fill-rule:evenodd;clip-rule:evenodd;fill:#F5E24B;fill-opacity:0.2;}
	.st107{display:none;fill-rule:evenodd;clip-rule:evenodd;fill:#F5E351;fill-opacity:0.2;}
	.st108{display:none;fill-rule:evenodd;clip-rule:evenodd;fill:#ECE39C;fill-opacity:0.2;}
	.st109{fill-rule:evenodd;clip-rule:evenodd;fill:#DFCB91;}
	.st110{display:none;fill-rule:evenodd;clip-rule:evenodd;fill:#BFC9A7;fill-opacity:0.2;}
	.st111{display:none;fill-rule:evenodd;clip-rule:evenodd;fill:#C2CCAB;fill-opacity:0.2;}
	.st112{display:none;fill-rule:evenodd;clip-rule:evenodd;fill:#C5CFB0;fill-opacity:0.2;}
	.st113{display:none;fill-rule:evenodd;clip-rule:evenodd;fill:#A2B8A1;fill-opacity:0.2;}
	.st114{fill-rule:evenodd;clip-rule:evenodd;fill:#82A257;}
	.st115{fill-rule:evenodd;clip-rule:evenodd;fill:#879E88;}
	.st116{display:none;fill-rule:evenodd;clip-rule:evenodd;fill:#8DA38F;fill-opacity:0.2;}
	.st117{display:none;fill-rule:evenodd;clip-rule:evenodd;fill:#91A692;fill-opacity:0.2;}
	.st118{display:none;fill-rule:evenodd;clip-rule:evenodd;fill:#94A996;fill-opacity:0.2;}
	.st119{display:none;fill-rule:evenodd;clip-rule:evenodd;fill:#98AC99;fill-opacity:0.2;}
	.st120{display:none;fill-rule:evenodd;clip-rule:evenodd;fill:#9CAF9D;fill-opacity:0.2;}
	.st121{display:none;fill-rule:evenodd;clip-rule:evenodd;fill:#9FB2A0;fill-opacity:0.2;}
	.st122{display:none;fill-rule:evenodd;clip-rule:evenodd;fill:#A3B5A4;fill-opacity:0.2;}
	.st123{display:none;fill-rule:evenodd;clip-rule:evenodd;fill:#A7B8A8;fill-opacity:0.2;}
	.st124{fill-rule:evenodd;clip-rule:evenodd;fill:#998334;}
	.st125{display:none;fill-rule:evenodd;clip-rule:evenodd;fill:#9F8836;fill-opacity:0.2;}
	.st126{display:none;fill-rule:evenodd;clip-rule:evenodd;fill:#A38B37;fill-opacity:0.2;}
	.st127{display:none;fill-rule:evenodd;clip-rule:evenodd;fill:#A68E38;fill-opacity:0.2;}
	.st128{display:none;fill-rule:evenodd;clip-rule:evenodd;fill:#A99139;fill-opacity:0.2;}
	.st129{display:none;fill-rule:evenodd;clip-rule:evenodd;fill:#AD943B;fill-opacity:0.2;}
	.st130{display:none;fill-rule:evenodd;clip-rule:evenodd;fill:#B0973C;fill-opacity:0.2;}
	.st131{display:none;fill-rule:evenodd;clip-rule:evenodd;fill:#B49A3D;fill-opacity:0.2;}
	.st132{font-family:'HelveticaNeue';}
	.st133{font-size:12px;}
	.st134{display:none;enable-background:new    ;}
	.st135{display:inline;}
	.st136{font-size:11px;}
	.st137{font-size:6px;}
	.st138{fill:#EEEEEE;}
	.st139{font-size:9px;}
</style>
<path id="path-0" class="st0" d="M370,463.5c-51.6,0-93.5-41.9-93.5-93.5s41.9-93.5,93.5-93.5s93.5,41.9,93.5,93.5
	S421.6,463.5,370,463.5z"/>
<path id="path-1" class="st1" d="M370,184c102.7,0,186,83.3,186,186s-83.3,186-186,186c-67.6,0-129.8-36.6-162.6-95.7l81.7-45.4
	c24.8,44.7,81.1,60.8,125.8,36s60.8-81.1,36-125.8c-16.3-29.4-47.3-47.6-80.9-47.6V184z"/>
<path id="path-2" class="st2" d="M370,91.5c0.2,0,0.3,0,0.5,0l-0.2,93.5c-0.1,0-0.2,0-0.3,0V91.5z"/>
<path id="path-4" class="st3" d="M370-93.5c0.3,0,0.5,0,0.8,0L370.6,0c-0.2,0-0.4,0-0.6,0V-93.5z"/>
<path id="path-5" class="st4" d="M370-186c0.3,0,0.6,0,0.9,0l-0.2,93.5c-0.3,0-0.5,0-0.8,0V-186z"/>
<path id="path-6" class="st5" d="M370-278.5c0.4,0,0.7,0,1.1,0l-0.2,93.5c-0.3,0-0.6,0-0.9,0V-278.5z"/>
<path id="path-7" class="st6" d="M370.5,91.5c16.1,0,32.1,1.4,47.9,4.2l-16.2,92.1c-10.5-1.9-21.1-2.8-31.8-2.8L370.5,91.5z"/>
<path id="path-9" class="st7" d="M370.8-93.5c24.7,0,49.4,2.1,73.7,6l-15,92.3C410,1.6,390.3,0,370.6,0L370.8-93.5z"/>
<path id="path-10" class="st8" d="M370.9-186c3.6,0,7.3,0,10.9,0.1l-2,93.5c-3-0.1-6-0.1-9-0.1L370.9-186z"/>
<path id="path-11" class="st9" d="M371.1-278.5c4.2,0,8.5,0.1,12.7,0.1l-2,93.5c-3.6-0.1-7.2-0.1-10.9-0.1L371.1-278.5z"/>
<path id="path-12" class="st10" d="M371.2-371c0.4,0,0.8,0,1.2,0l-0.3,93.5c-0.4,0-0.7,0-1.1,0L371.2-371z"/>
<path id="path-13" class="st11" d="M372.4-371c4.4,0,8.9,0.1,13.3,0.2l-2,93.5c-3.9-0.1-7.7-0.1-11.6-0.1L372.4-371z"/>
<path id="path-14" class="st12" d="M381.8-185.9c0.3,0,0.6,0,0.9,0l-2.1,93.5c-0.3,0-0.5,0-0.8,0L381.8-185.9z"/>
<path id="path-15" class="st13" d="M383.7-278.4c0.4,0,0.7,0,1.1,0l-2.1,93.5c-0.3,0-0.6,0-0.9,0L383.7-278.4z"/>
<path id="path-16" class="st14" d="M385.7-370.8c0.4,0,0.8,0,1.2,0l-2.1,93.5c-0.4,0-0.7,0-1.1,0L385.7-370.8z"/>
<path id="path-17" class="st15" d="M382.7-185.9c0.6,0,1.2,0,1.8,0l-2.4,93.5c-0.5,0-1,0-1.5,0L382.7-185.9z"/>
<path id="path-18" class="st16" d="M384.8-278.3c0.7,0,1.4,0,2.1,0.1l-2.4,93.5c-0.6,0-1.2,0-1.8,0L384.8-278.3z"/>
<path id="path-19" class="st17" d="M386.9-370.8c0.8,0,1.6,0,2.4,0.1l-2.4,93.5c-0.7,0-1.4,0-2.1-0.1L386.9-370.8z"/>
<path id="path-20" class="st18" d="M384.5-185.8c0.3,0,0.6,0,0.9,0l-2.6,93.5c-0.3,0-0.5,0-0.8,0L384.5-185.8z"/>
<path id="path-21" class="st19" d="M385.4-185.8c4.2,0.1,8.5,0.3,12.7,0.5l-4.7,93.4c-3.5-0.2-7-0.3-10.6-0.4L385.4-185.8z"/>
<path id="path-22" class="st20" d="M388-278.3c4.6,0.1,9.2,0.3,13.7,0.5l-4.6,93.4c-3.9-0.2-7.8-0.3-11.8-0.5L388-278.3z"/>
<path id="path-23" class="st21" d="M390.5-370.7c4,0.1,8.1,0.3,12.1,0.4l-4.1,93.4c-3.5-0.2-7-0.3-10.6-0.4L390.5-370.7z"/>
<path id="path-24" class="st11" d="M402.6-370.3c1.2,0.1,2.4,0.1,3.6,0.2l-4.6,93.4c-1.1-0.1-2.1-0.1-3.2-0.1L402.6-370.3z"/>
<path id="path-25" class="st11" d="M401.7-277.7c0.4,0,0.7,0,1.1,0.1l-4.7,93.4c-0.3,0-0.6,0-0.9,0L401.7-277.7z"/>
<path id="path-26" class="st22" d="M398.1-185.3c0.3,0,0.6,0,0.9,0l-4.9,93.4c-0.3,0-0.5,0-0.8,0L398.1-185.3z"/>
<path id="path-27" class="st23" d="M402.8-277.7c0.4,0,0.7,0,1.1,0.1l-4.9,93.4c-0.3,0-0.6,0-0.9,0L402.8-277.7z"/>
<path id="path-28" class="st24" d="M399-185.2c0.3,0,0.6,0,0.9,0l-5,93.4c-0.3,0-0.5,0-0.8,0L399-185.2z"/>
<path id="path-29" class="st25" d="M403.8-277.6c0.4,0,0.7,0,1.1,0.1l-5,93.4c-0.3,0-0.6,0-0.9,0L403.8-277.6z"/>
<path id="path-30" class="st26" d="M408.7-370c0.4,0,0.8,0,1.2,0.1l-5,93.4c-0.4,0-0.7,0-1.1-0.1L408.7-370z"/>
<path id="path-31" class="st27" d="M399.9-185.2c0.3,0,0.6,0,0.9,0l-5.2,93.4c-0.3,0-0.5,0-0.8,0L399.9-185.2z"/>
<path id="path-32" class="st28" d="M404.9-277.6c0.4,0,0.7,0,1.1,0.1l-5.2,93.4c-0.3,0-0.6,0-0.9,0L404.9-277.6z"/>
<path id="path-33" class="st29" d="M409.9-369.9c0.4,0,0.8,0,1.2,0.1l-5.2,93.4c-0.4,0-0.7,0-1.1-0.1L409.9-369.9z"/>
<path id="path-34" class="st11" d="M400.8-185.1c19.6,1.1,39.2,3.2,58.6,6.4l-15,92.3c-16.1-2.6-32.4-4.4-48.7-5.3L400.8-185.1z"/>
<path id="path-35" class="st11" d="M444.5-87.5c0.2,0,0.5,0.1,0.7,0.1L430.1,4.9c-0.2,0-0.4-0.1-0.6-0.1L444.5-87.5z"/>
<path id="path-37" class="st30" d="M445.2-87.4c0.2,0,0.5,0.1,0.7,0.1L430.7,5c-0.2,0-0.4-0.1-0.6-0.1L445.2-87.4z"/>
<path id="path-39" class="st31" d="M446-87.2c0.2,0,0.5,0.1,0.7,0.1L431.3,5.1c-0.2,0-0.4-0.1-0.6-0.1L446-87.2z"/>
<path id="path-40" class="st32" d="M461.2-178.5c0.3,0,0.6,0.1,0.9,0.1l-15.5,92.2c-0.2,0-0.5-0.1-0.7-0.1L461.2-178.5z"/>
<path id="path-41" class="st33" d="M476.3-269.7c0.3,0.1,0.7,0.1,1,0.2l-15.5,92.2c-0.3,0-0.6-0.1-0.9-0.1L476.3-269.7z"/>
<path id="path-43" class="st34" d="M418.3,95.7c0.1,0,0.3,0.1,0.4,0.1l-16.4,92.1c-0.1,0-0.2,0-0.3-0.1L418.3,95.7z"/>
<path id="path-44" class="st35" d="M418.8,95.8c0.1,0,0.3,0.1,0.4,0.1l-16.5,92c-0.1,0-0.2,0-0.3-0.1L418.8,95.8z"/>
<path id="path-45" class="st36" d="M419.2,95.9c0.1,0,0.3,0.1,0.4,0.1L403,188c-0.1,0-0.2,0-0.3-0.1L419.2,95.9z"/>
<path id="path-46" class="st37" d="M419.7,96c0.1,0,0.3,0.1,0.4,0.1l-16.8,92c-0.1,0-0.2,0-0.3-0.1L419.7,96z"/>
<path id="path-48" class="st38" d="M452.7-86.1c0.2,0,0.5,0.1,0.7,0.1L436.6,6c-0.2,0-0.4-0.1-0.6-0.1L452.7-86.1z"/>
<path id="path-49" class="st39" d="M469.2-177.1c0.3,0.1,0.6,0.1,0.9,0.2l-16.8,92c-0.2,0-0.5-0.1-0.7-0.1L469.2-177.1z"/>
<path id="path-50" class="st40" d="M420.1,96.1c151.3,27.7,251.5,172.8,223.8,324.1S471.2,671.6,319.9,643.9
	c-14.1-2.6-27.9-6.2-41.5-10.9l30.8-88.3c96.5,33.6,201.9-17.4,235.6-113.9c33.6-96.5-17.4-201.9-113.9-235.6
	c-9-3.1-18.2-5.6-27.5-7.3L420.1,96.1z"/>
<path id="path-52" class="st41" d="M453.4-85.9c14.1,2.6,28.1,5.8,42,9.7l-25.3,90c-11-3.1-22.2-5.7-33.5-7.8L453.4-85.9z"/>
<path id="path-53" class="st42" d="M470.1-176.9c16.4,3,32.6,6.7,48.6,11.2l-25,90.1c-13.3-3.7-26.8-6.8-40.4-9.3L470.1-176.9z"/>
<path id="path-54" class="st43" d="M486.7-267.9c18,3.3,35.9,7.4,53.6,12.2l-24.6,90.2c-15.1-4.1-30.4-7.6-45.9-10.4L486.7-267.9z"
	/>
<path id="path-55" class="st44" d="M503.4-358.9c14.7,2.7,29.2,5.8,43.7,9.4l-22.3,90.8c-12.6-3.1-25.4-5.8-38.2-8.2L503.4-358.9z"
	/>
<path id="path-56" class="st45" d="M547.1-349.5c0.4,0.1,0.8,0.2,1.2,0.3l-22.5,90.8c-0.3-0.1-0.7-0.2-1-0.3L547.1-349.5z"/>
<path id="path-57" class="st11" d="M548.3-349.2c5.5,1.4,10.9,2.8,16.4,4.3l-24.6,90.2c-4.8-1.3-9.5-2.5-14.3-3.7L548.3-349.2z"/>
<path id="path-58" class="st11" d="M540.4-255.7c1,0.3,2,0.6,3.1,0.8l-25,90.1c-0.9-0.2-1.7-0.5-2.6-0.7L540.4-255.7z"/>
<path id="path-59" class="st11" d="M518.7-165.8c0.6,0.2,1.2,0.3,1.7,0.5l-25.3,90c-0.5-0.1-1-0.3-1.5-0.4L518.7-165.8z"/>
<path id="path-61" class="st46" d="M495.4-76.2C741.8-7,885.5,249,816.2,495.4c-57.3,203.9-245.5,343-457.2,338l2.2-93.5
	c204.3,4.8,373.8-156.9,378.6-361.1c4-169-107.1-319.2-269.8-364.9L495.4-76.2z"/>
<path id="path-62" class="st47" d="M520.4-165.3c34.4,9.7,67.7,22.6,99.6,38.6l-42,83.5c-26.5-13.3-54.3-24.1-82.8-32.1L520.4-165.3
	z"/>
<path id="path-63" class="st48" d="M545.5-254.3c32.6,9.2,64.4,20.9,95.2,35l-39,85c-26.3-12.1-53.6-22.1-81.5-29.9L545.5-254.3z"/>
<path id="path-64" class="st49" d="M570.5-343.4c0.4,0.1,0.8,0.2,1.2,0.3l-25.4,90c-0.3-0.1-0.7-0.2-1-0.3L570.5-343.4z"/>
<path id="path-65" class="st11" d="M571.6-343c36.8,10.4,72.8,23.7,107.6,39.7l-39,85c-30.4-14-61.8-25.5-94-34.6L571.6-343z"/>
<path id="path-66" class="st50" d="M640.6-219.3c0.3,0.1,0.6,0.3,1,0.4L602.4-134c-0.3-0.1-0.5-0.3-0.8-0.4L640.6-219.3z"/>
<path id="path-67" class="st51" d="M679.2-303.4c0.4,0.2,0.7,0.3,1.1,0.5L641.2-218c-0.3-0.1-0.6-0.3-1-0.4L679.2-303.4z"/>
<path id="path-68" class="st52" d="M641.6-218.9c4.8,2.2,9.6,4.5,14.3,6.8l-41.2,83.9c-4.1-2-8.1-3.9-12.3-5.8L641.6-218.9z"/>
<path id="path-69" class="st53" d="M680.3-302.9c5.5,2.5,10.9,5.1,16.4,7.8l-41.2,83.9c-4.7-2.3-9.5-4.6-14.3-6.8L680.3-302.9z"/>
<path id="path-70" class="st11" d="M655.9-212.1c1.9,0.9,3.8,1.9,5.7,2.8l-42,83.5c-1.6-0.8-3.2-1.6-4.9-2.4L655.9-212.1z"/>
<path id="path-71" class="st54" d="M620-126.6c5.9,3,11.8,6.1,17.7,9.3l-45,82c-4.8-2.7-9.7-5.2-14.7-7.7L620-126.6z"/>
<path id="path-72" class="st55" d="M661.6-209.2c6.9,3.5,13.8,7.1,20.6,10.8l-45,82c-5.8-3.2-11.7-6.3-17.6-9.3L661.6-209.2z"/>
<path id="path-73" class="st56" d="M703.2-291.9c4,2,7.9,4,11.8,6.1L671.5-203c-3.4-1.8-6.9-3.6-10.3-5.3L703.2-291.9z"/>
<path id="path-74" class="st57" d="M715-285.8c0.7,0.4,1.4,0.8,2.1,1.1L673.4-202c-0.6-0.3-1.2-0.7-1.9-1L715-285.8z"/>
<path id="path-75" class="st58" d="M717.2-284.6c2.5,1.3,5,2.7,7.5,4l-44.7,82.1c-2.2-1.2-4.3-2.3-6.5-3.5L717.2-284.6z"/>
<path id="path-76" class="st11" d="M724.6-280.6c0.7,0.4,1.4,0.8,2.1,1.2l-45,82c-0.6-0.3-1.2-0.7-1.9-1L724.6-280.6z"/>
<path id="path-77" class="st59" d="M637.7-117.3c6.4,3.5,12.6,7.1,18.9,10.8l-48.2,80.1c-5.2-3.1-10.4-6.1-15.7-9L637.7-117.3z"/>
<path id="path-78" class="st60" d="M682.2-198.4c0.9,0.5,1.9,1,2.8,1.5l-45.4,81.7c-0.8-0.4-1.6-0.9-2.4-1.3L682.2-198.4z"/>
<path id="path-79" class="st11" d="M685-196.9c6.5,3.6,12.9,7.3,19.2,11.1L656-105.6c-5.4-3.3-10.9-6.4-16.5-9.5L685-196.9z"/>
<path id="path-80" class="st61" d="M656.5-106.5C861.9,17,965.1,258.3,912.4,492.1l-91.2-20.5C865,277,779.2,76.4,608.3-26.4
	L656.5-106.5z"/>
<path id="path-81" class="st62" d="M704.2-185.8c5.1,3.1,10.2,6.2,15.3,9.5l-50.4,78.8c-4.3-2.8-8.7-5.5-13.1-8.1L704.2-185.8z"/>
<path id="path-82" class="st63" d="M751.9-265c5.9,3.5,11.7,7.1,17.5,10.8l-50.4,78.8c-5-3.2-10.1-6.4-15.3-9.5L751.9-265z"/>
<path id="path-83" class="st64" d="M719.5-176.3c5.6,3.6,11.2,7.3,16.8,11.1L683.4-88c-4.7-3.2-9.5-6.4-14.3-9.5L719.5-176.3z"/>
<path id="path-84" class="st65" d="M769.3-254.2c6.4,4.1,12.8,8.3,19.1,12.7l-52.8,77.2c-5.5-3.8-11.1-7.5-16.7-11.1L769.3-254.2z"
	/>
<path id="path-85" class="st66" d="M736.2-165.2c2.9,2,5.8,4,8.7,6l-54.1,76.3c-2.5-1.7-4.9-3.5-7.4-5.2L736.2-165.2z"/>
<path id="path-86" class="st67" d="M788.5-241.5c2.7,1.8,5.3,3.7,7.9,5.5l-53.8,76.5c-2.3-1.6-4.6-3.2-6.9-4.8L788.5-241.5z"/>
<path id="path-87" class="st11" d="M796.4-236c0.7,0.5,1.3,0.9,2,1.4l-54.1,76.3c-0.6-0.4-1.1-0.8-1.7-1.2L796.4-236z"/>
<path id="path-88" class="st68" d="M744.9-159.1c6.3,4.5,12.6,9.1,18.7,13.8l-56.8,74.3c-5.3-4-10.6-8-16-11.8L744.9-159.1z"/>
<path id="path-89" class="st69" d="M798.4-234.6c5.6,4,11.1,8,16.6,12.1l-56.1,74.8c-4.8-3.6-9.6-7.1-14.5-10.6L798.4-234.6z"/>
<path id="path-90" class="st70" d="M815-222.5c0.3,0.2,0.6,0.5,1,0.7l-56.3,74.7c-0.3-0.2-0.6-0.4-0.8-0.6L815-222.5z"/>
<path id="path-91" class="st11" d="M815.9-221.8c1.3,1,2.6,1.9,3.9,2.9L763-144.6c-1.1-0.9-2.2-1.7-3.4-2.6L815.9-221.8z"/>
<path id="path-92" class="st71" d="M763.6-145.4c4.5,3.4,8.9,6.9,13.3,10.4l-58.7,72.8c-3.8-3-7.6-6-11.4-8.9L763.6-145.4z"/>
<path id="path-93" class="st72" d="M819.8-218.9c1.9,1.5,3.8,2.9,5.7,4.4l-57.5,73.7c-1.7-1.3-3.3-2.6-5-3.9L819.8-218.9z"/>
<path id="path-94" class="st73" d="M825.5-214.4c0.3,0.2,0.6,0.5,1,0.7L768.9-140c-0.3-0.2-0.6-0.4-0.8-0.6L825.5-214.4z"/>
<path id="path-95" class="st74" d="M826.5-213.7c0.6,0.5,1.3,1,1.9,1.5l-57.8,73.5c-0.6-0.4-1.1-0.9-1.7-1.3L826.5-213.7z"/>
<path id="path-96" class="st75" d="M828.4-212.2c0.6,0.5,1.3,1,1.9,1.5l-58.1,73.3c-0.6-0.4-1.1-0.9-1.7-1.3L828.4-212.2z"/>
<path id="path-97" class="st11" d="M830.3-210.7c1.6,1.3,3.2,2.5,4.7,3.8l-58.7,72.8c-1.4-1.1-2.7-2.2-4.1-3.3L830.3-210.7z"/>
<path id="path-98" class="st76" d="M777-134.9c4.7,3.8,9.3,7.6,13.8,11.5l-60.7,71.1c-3.9-3.3-7.9-6.6-11.8-9.8L777-134.9z"/>
<path id="path-99" class="st77" d="M835-206.9c5,4,10,8.2,14.9,12.3l-60.6,71.2c-4.3-3.6-8.6-7.2-13-10.8L835-206.9z"/>
<path id="path-100" class="st11" d="M849.9-194.6c0.3,0.3,0.6,0.5,0.9,0.8l-60.7,71.1c-0.3-0.2-0.5-0.5-0.8-0.7L849.9-194.6z"/>
<path id="path-101" class="st78" d="M790.8-123.4c2.4,2.1,4.8,4.1,7.2,6.2L736.3-47c-2-1.8-4.1-3.6-6.2-5.3L790.8-123.4z"/>
<path id="path-102" class="st79" d="M850.8-193.8c1.8,1.6,3.7,3.1,5.5,4.7l-61.4,70.5c-1.6-1.4-3.2-2.8-4.8-4.1L850.8-193.8z"/>
<path id="path-103" class="st80" d="M856.3-189.1c0.6,0.5,1.2,1.1,1.8,1.6l-61.6,70.3c-0.5-0.5-1.1-0.9-1.6-1.4L856.3-189.1z"/>
<path id="path-104" class="st11" d="M858.1-187.5c0.3,0.3,0.6,0.5,0.9,0.8l-61.7,70.2c-0.3-0.2-0.5-0.5-0.8-0.7L858.1-187.5z"/>
<path id="path-105" class="st81" d="M798-117.2c0.3,0.2,0.5,0.5,0.8,0.7L737-46.4c-0.2-0.2-0.5-0.4-0.7-0.6L798-117.2z"/>
<path id="path-106" class="st82" d="M798.8-116.5c0.3,0.2,0.5,0.5,0.8,0.7l-61.9,70c-0.2-0.2-0.5-0.4-0.7-0.6L798.8-116.5z"/>
<path id="path-107" class="st83" d="M799.6-115.8c4,3.5,7.9,7.1,11.8,10.7l-63.6,68.5c-3.3-3.1-6.7-6.1-10.1-9.1L799.6-115.8z"/>
<path id="path-108" class="st84" d="M860.9-185.1c4.5,4,9,8.1,13.4,12.2l-63.6,68.5c-3.9-3.6-7.8-7.1-11.7-10.6L860.9-185.1z"/>
<path id="path-109" class="st85" d="M811.3-105.2c5.7,5.3,11.3,10.7,16.8,16.1l-66,66.2c-4.7-4.7-9.5-9.3-14.3-13.8L811.3-105.2z"/>
<path id="path-110" class="st86" d="M874.3-172.9c0.3,0.3,0.6,0.5,0.9,0.8l-63.7,68.4c-0.3-0.2-0.5-0.5-0.8-0.7L874.3-172.9z"/>
<path id="path-111" class="st11" d="M875.2-172.1c6.2,5.8,12.3,11.6,18.3,17.6l-66,66.2c-5.2-5.2-10.6-10.4-16-15.4L875.2-172.1z"/>
<path id="path-112" class="st87" d="M828.1-89c1.7,1.7,3.5,3.5,5.2,5.3l-66.8,65.4c-1.5-1.5-3-3-4.5-4.5L828.1-89z"/>
<path id="path-113" class="st88" d="M833.3-83.8c19,19.4,36.8,40,53.2,61.6L812,34.4C798,15.9,782.8-1.7,766.5-18.3L833.3-83.8z"/>
<path id="path-114" class="st89" d="M899.4-148.5c1.7,1.7,3.4,3.5,5,5.2L837-78.5c-1.5-1.5-2.9-3-4.4-4.5L899.4-148.5z"/>
<path id="path-115" class="st90" d="M904.4-143.3c4.7,4.9,9.4,9.9,14,15l-69.2,62.9c-4-4.4-8.1-8.8-12.3-13.1L904.4-143.3z"/>
<path id="path-116" class="st91" d="M918.5-128.3c3.8,4.2,7.5,8.4,11.2,12.7l-70.6,61.3c-3.2-3.7-6.5-7.4-9.8-11.1L918.5-128.3z"/>
<path id="path-117" class="st11" d="M929.7-115.6c10.6,12.2,20.7,24.7,30.5,37.5l-74.5,56.5c-8.5-11.2-17.4-22.1-26.6-32.8
	L929.7-115.6z"/>
<path id="path-118" class="st92" d="M886.5-22.2c0.2,0.3,0.4,0.6,0.6,0.8l-74.6,56.4c-0.2-0.2-0.4-0.5-0.5-0.7L886.5-22.2z"/>
<path id="path-119" class="st11" d="M887.1-21.3c115.2,152.2,157.5,347.5,115.6,533.7l-91.2-20.5c35.9-159.4-0.3-326.5-98.9-456.8
	L887.1-21.3z"/>
<path id="path-120" class="st93" d="M912.4,492.1c-0.7,2.9-1.4,5.9-2.1,8.8l-90.9-22c0.6-2.4,1.2-4.9,1.7-7.3L912.4,492.1z"/>
<path id="path-121" class="st94" d="M1002.7,512.4c-0.8,3.4-1.6,6.9-2.4,10.3l-90.9-22c0.7-2.9,1.4-5.9,2.1-8.8L1002.7,512.4z"/>
<path id="path-122" class="st95" d="M910.4,500.9c-3.6,15-7.9,29.8-12.7,44.4l-88.7-29.5c4-12.2,7.6-24.5,10.6-37L910.4,500.9z"/>
<path id="path-123" class="st96" d="M1000.3,522.7c-4.2,17.5-9.2,34.8-14.9,51.8L896.7,545c4.9-14.6,9.1-29.4,12.7-44.4
	L1000.3,522.7z"/>
<path id="path-124" class="st97" d="M1090.2,544.5c-0.1,0.4-0.2,0.8-0.3,1.2L999,523.5c0.1-0.3,0.2-0.7,0.2-1L1090.2,544.5z"/>
<path id="path-125" class="st11" d="M1089.9,545.6c-4.8,19.6-10.3,38.9-16.7,58l-88.7-29.5c5.6-16.7,10.4-33.6,14.6-50.7
	L1089.9,545.6z"/>
<path id="path-126" class="st98" d="M897.6,545.3c-0.1,0.3-0.2,0.6-0.3,0.9l-88.7-29.6c0.1-0.2,0.2-0.5,0.2-0.7L897.6,545.3z"/>
<path id="path-127" class="st99" d="M985.4,574.5c-0.1,0.3-0.2,0.7-0.3,1l-88.7-29.6c0.1-0.3,0.2-0.6,0.3-0.9L985.4,574.5z"/>
<path id="path-128" class="st100" d="M897.3,546.2c-0.9,2.6-1.7,5.2-2.6,7.7L806.5,523c0.7-2.1,1.5-4.3,2.2-6.4L897.3,546.2z"/>
<path id="path-129" class="st101" d="M894.7,553.9c-14.2,40.5-33.1,79.3-56.2,115.5l-78.8-50.4c19.2-30.1,34.9-62.4,46.8-96.1
	L894.7,553.9z"/>
<path id="path-130" class="st102" d="M982,584.5c-1.2,3.3-2.4,6.6-3.6,10l-87.7-32.4c1-2.8,2.1-5.7,3.1-8.5L982,584.5z"/>
<path id="path-131" class="st103" d="M1069.3,615.1c-1.3,3.8-2.7,7.6-4.1,11.4l-87.7-32.4c1.2-3.3,2.4-6.6,3.6-9.9L1069.3,615.1z"/>
<path id="path-132" class="st104" d="M978.4,594.5c-2.7,7.3-5.5,14.5-8.4,21.7l-86.5-35.5c2.5-6.1,4.9-12.3,7.2-18.6L978.4,594.5z"
	/>
<path id="path-133" class="st105" d="M1065.2,626.5c-0.3,0.8-0.6,1.5-0.8,2.3l-87.6-32.7c0.2-0.7,0.5-1.3,0.7-2L1065.2,626.5z"/>
<path id="path-134" class="st11" d="M1064.4,628.8c-2.8,7.5-5.7,15.1-8.8,22.5L969,615.8c2.7-6.5,5.2-13.1,7.7-19.7L1064.4,628.8z"
	/>
<path id="path-135" class="st106" d="M970,616.2c-0.1,0.3-0.3,0.7-0.4,1l-86.4-35.6c0.1-0.3,0.2-0.6,0.3-0.8L970,616.2z"/>
<path id="path-136" class="st107" d="M1055.5,651.3c-0.2,0.4-0.3,0.7-0.5,1.1l-86.4-35.6c0.1-0.3,0.3-0.7,0.4-1L1055.5,651.3z"/>
<path id="path-137" class="st5" d="M969.6,617.1c-0.1,0.3-0.3,0.7-0.4,1l-86.4-35.8c0.1-0.3,0.2-0.6,0.3-0.8L969.6,617.1z"/>
<path id="path-138" class="st108" d="M969.2,618.1c-5.1,12.4-10.6,24.6-16.5,36.6l-84-41.1c5-10.3,9.7-20.8,14.1-31.3L969.2,618.1z"
	/>
<path id="path-139" class="st10" d="M1054.6,653.5c-3.1,7.4-6.3,14.8-9.6,22.2l-85.2-38.6c2.9-6.4,5.7-12.9,8.4-19.4L1054.6,653.5z"
	/>
<path id="path-140" class="st14" d="M1045,675.7c-0.2,0.4-0.3,0.7-0.5,1.1l-85.1-38.7c0.1-0.3,0.3-0.6,0.4-1L1045,675.7z"/>
<path id="path-141" class="st17" d="M1044.5,676.8c-0.7,1.5-1.3,2.9-2,4.4l-84.9-39.3c0.6-1.3,1.2-2.6,1.8-3.8L1044.5,676.8z"/>
<path id="path-142" class="st18" d="M1042.5,681.2c-0.2,0.4-0.3,0.7-0.5,1.1l-84.8-39.4c0.1-0.3,0.3-0.6,0.4-1L1042.5,681.2z"/>
<path id="path-143" class="st11" d="M1042,682.3c-2,4.4-4.1,8.7-6.2,13.1l-84-41.1c1.9-3.8,3.7-7.6,5.5-11.4L1042,682.3z"/>
<path id="path-144" class="st21" d="M952.6,654.7c-1.2,2.5-2.5,5.1-3.8,7.6l-83.5-42.1c1.1-2.2,2.2-4.3,3.2-6.5L952.6,654.7z"/>
<path id="path-145" class="st11" d="M948.9,662.3c-9.9,19.5-20.7,38.5-32.5,56.9l-78.8-50.4c10.1-15.8,19.3-32,27.8-48.7
	L948.9,662.3z"/>
<path id="path-146" class="st23" d="M838.5,669.4c-0.2,0.3-0.3,0.5-0.5,0.8l-78.7-50.5c0.1-0.2,0.3-0.4,0.4-0.6L838.5,669.4z"/>
<path id="path-147" class="st11" d="M838,670.2C733.2,833.5,550.9,930.4,356.9,925.8l2.2-93.5c161.4,3.8,313.1-76.8,400.2-212.7
	L838,670.2z"/>
<path id="path-148" class="st11" d="M359,833.4c-1.3,0-2.5-0.1-3.8-0.1l3-93.5c1,0,2,0.1,3,0.1L359,833.4z"/>
<path id="path-150" class="st109" d="M278.4,633c-0.6-0.2-1.1-0.4-1.7-0.6l31.3-88.1c0.4,0.1,0.8,0.3,1.1,0.4L278.4,633z"/>
<path id="path-152" class="st24" d="M217.6,807.7c-0.2-0.1-0.5-0.2-0.7-0.2l30.9-88.2c0.2,0.1,0.4,0.1,0.6,0.2L217.6,807.7z"/>
<path id="path-153" class="st25" d="M187.1,895.1c-0.3-0.1-0.6-0.2-0.9-0.3l30.9-88.2c0.2,0.1,0.5,0.2,0.7,0.2L187.1,895.1z"/>
<path id="path-154" class="st26" d="M156.7,982.4c-0.3-0.1-0.7-0.2-1-0.3l30.9-88.2c0.3,0.1,0.6,0.2,0.9,0.3L156.7,982.4z"/>
<path id="path-156" class="st29" d="M216.9,807.5c-0.2-0.1-0.5-0.2-0.7-0.3l31-88.2c0.2,0.1,0.4,0.1,0.6,0.2L216.9,807.5z"/>
<path id="path-158" class="st110" d="M216.1,807.2c-0.2-0.1-0.5-0.2-0.7-0.3l31.2-88.1c0.2,0.1,0.4,0.1,0.6,0.2L216.1,807.2z"/>
<path id="path-159" class="st111" d="M185.4,894.5c-0.3-0.1-0.6-0.2-0.9-0.3l31.2-88.1c0.2,0.1,0.5,0.2,0.7,0.3L185.4,894.5z"/>
<path id="path-160" class="st112" d="M154.7,981.7c-0.3-0.1-0.7-0.2-1-0.4l31.2-88.1c0.3,0.1,0.6,0.2,0.9,0.3L154.7,981.7z"/>
<path id="path-161" class="st30" d="M124,1069c-0.4-0.1-0.8-0.3-1.1-0.4l31.2-88.1c0.3,0.1,0.7,0.2,1,0.4L124,1069z"/>
<path id="path-162" class="st113" d="M215.4,807c-0.2-0.1-0.5-0.2-0.7-0.3l31.3-88.1c0.2,0.1,0.4,0.1,0.6,0.2L215.4,807z"/>
<path id="path-163" class="st31" d="M184.6,894.2c-0.3-0.1-0.6-0.2-0.9-0.3l31.3-88.1c0.2,0.1,0.5,0.2,0.7,0.3L184.6,894.2z"/>
<path id="path-164" class="st32" d="M153.7,981.4c-0.3-0.1-0.7-0.2-1-0.4l31.3-88.1c0.3,0.1,0.6,0.2,0.9,0.3L153.7,981.4z"/>
<path id="path-165" class="st33" d="M122.9,1068.6c-0.4-0.1-0.8-0.3-1.1-0.4l31.3-88.1c0.3,0.1,0.7,0.2,1,0.4L122.9,1068.6z"/>
<path id="path-167" class="st114" d="M207.4,460.3c-0.1-0.2-0.2-0.4-0.3-0.5l81.9-45.1c0,0.1,0.1,0.2,0.1,0.3L207.4,460.3z"/>
<path id="path-168" class="st115" d="M126.5,505.2c-0.1-0.1-0.1-0.3-0.2-0.4l81.8-45.2c0,0.1,0.1,0.2,0.1,0.3L126.5,505.2z"/>
<path id="path-170" class="st116" d="M-35.3,595c-0.1-0.2-0.2-0.4-0.4-0.7L46.2,549c0.1,0.2,0.2,0.4,0.3,0.5L-35.3,595z"/>
<path id="path-171" class="st117" d="M-116.1,639.8c-0.1-0.3-0.3-0.5-0.4-0.8l81.8-45.2c0.1,0.2,0.2,0.4,0.4,0.7L-116.1,639.8z"/>
<path id="path-172" class="st118" d="M-197,684.7c-0.2-0.3-0.3-0.6-0.5-0.9l81.8-45.2c0.1,0.3,0.3,0.5,0.4,0.8L-197,684.7z"/>
<path id="path-173" class="st119" d="M-277.9,729.6c-0.2-0.4-0.4-0.7-0.6-1.1l81.8-45.2c0.2,0.3,0.3,0.6,0.5,0.9L-277.9,729.6z"/>
<path id="path-174" class="st120" d="M-358.8,774.5c-0.2-0.4-0.4-0.8-0.7-1.2l81.8-45.2c0.2,0.4,0.4,0.7,0.6,1.1L-358.8,774.5z"/>
<path id="path-175" class="st121" d="M-439.6,819.4c-0.2-0.4-0.5-0.9-0.7-1.3l81.8-45.2c0.2,0.4,0.4,0.8,0.7,1.2L-439.6,819.4z"/>
<path id="path-176" class="st122" d="M-520.5,864.3c-0.3-0.5-0.5-1-0.8-1.5l81.8-45.2c0.2,0.4,0.5,0.9,0.7,1.3L-520.5,864.3z"/>
<path id="path-177" class="st123" d="M-601.4,909.2c-0.3-0.5-0.6-1.1-0.9-1.6l81.8-45.2c0.3,0.5,0.5,1,0.8,1.5L-601.4,909.2z"/>
<path id="path-178" class="st124" d="M126.3,504.8c-0.1-0.1-0.1-0.3-0.2-0.4l81.9-45.1c0,0.1,0.1,0.2,0.1,0.3L126.3,504.8z"/>
<path id="path-180" class="st125" d="M-35.6,594.3c-0.1-0.2-0.2-0.4-0.4-0.7l81.9-45.1c0.1,0.2,0.2,0.4,0.3,0.5L-35.6,594.3z"/>
<path id="path-181" class="st126" d="M-116.6,639.1c-0.1-0.3-0.3-0.5-0.4-0.8l81.9-45.1c0.1,0.2,0.2,0.4,0.4,0.7L-116.6,639.1z"/>
<path id="path-182" class="st127" d="M-197.5,683.8c-0.2-0.3-0.3-0.6-0.5-0.9l81.9-45.1c0.1,0.3,0.3,0.5,0.4,0.8L-197.5,683.8z"/>
<path id="path-183" class="st128" d="M-278.5,728.6c-0.2-0.4-0.4-0.7-0.6-1.1l81.9-45.1c0.2,0.3,0.3,0.6,0.5,0.9L-278.5,728.6z"/>
<path id="path-184" class="st129" d="M-359.4,773.3c-0.2-0.4-0.4-0.8-0.7-1.2l81.9-45.1c0.2,0.4,0.4,0.7,0.6,1.1L-359.4,773.3z"/>
<path id="path-185" class="st130" d="M-440.4,818.1c-0.2-0.4-0.5-0.9-0.7-1.3l81.9-45.1c0.2,0.4,0.4,0.8,0.7,1.2L-440.4,818.1z"/>
<path id="path-186" class="st131" d="M-521.3,862.9c-0.3-0.5-0.5-1-0.8-1.5l81.9-45.1c0.2,0.4,0.5,0.9,0.7,1.3L-521.3,862.9z"/>
<text transform="matrix(6.123234e-17 1 -1 6.123234e-17 367.5996 374)" class="st132 st133">Organism</text>
<text transform="matrix(0.8618 0.5073 -0.5073 0.8618 451.9445 421.0208)" class="st132 st133">Bacteria</text>
<text transform="matrix(8.153267e-04 -1 1 8.153267e-04 372.5541 181.0019)" class="st132 st133">Actinobacteria</text>
<g class="st134">
	<text transform="matrix(8.153267e-04 -1 1 8.153267e-04 372.3049 -3.9981)" class="st135 st132" style="font-size:10px;">Streptomycetales</text>
</g>
<g class="st134">
	<text transform="matrix(8.153267e-04 -1 1 8.153267e-04 372.1804 -96.4981)" class="st135 st132 st139">Streptomycetaceae</text>
</g>
<g class="st134">
	<text transform="matrix(8.153267e-04 -1 1 8.153267e-04 372.8558 -188.9981)" class="st135 st132 st133">Streptomyces</text>
</g>
<text transform="matrix(8.794539e-02 -0.9961 0.9961 8.794539e-02 389.0125 181.9433)" class="st132 st133">Bacteroidetes</text>
<g class="st134">
	<text transform="matrix(8.144595e-02 -0.9967 0.9967 8.144595e-02 402.8528 -2.5617)" class="st135 st132 st133">Bacteroidales</text>
</g>
<g class="st134">
	<text transform="matrix(1.141486e-02 -0.9999 0.9999 1.141486e-02 377.7249 -96.4418)" class="st135 st132 st133">Bacteroidaceae</text>
</g>
<g class="st134">
	<text transform="matrix(1.141486e-02 -0.9999 0.9999 1.141486e-02 378.7808 -188.9359)" class="st135 st132 st133">Bacteroides</text>
</g>
<g class="st134">
	<text transform="matrix(2.446111e-03 -1 1 2.446111e-03 373.1936 -281.4937)" class="st135 st132" style="font-size:8px;">Bacteroides massiliensis</text>
</g>
<g class="st134">
	
		<text transform="matrix(2.201298e-02 -0.9998 0.9998 2.201298e-02 381.8686 -96.3514)" class="st135 st132" style="font-size:8px;">Dysgonamonadaceae</text>
</g>
<g class="st134">
	<text transform="matrix(2.201298e-02 -0.9998 0.9998 2.201298e-02 384.7047 -188.8114)" class="st135 st132 st133">Proteiniphilum</text>
</g>
<g class="st134">
	
		<text transform="matrix(2.201298e-02 -0.9998 0.9998 2.201298e-02 385.3412 -281.3202)" class="st135 st132" style="font-size:5px;">Proteiniphilum saccharofermentans</text>
</g>
<g class="st134">
	<text transform="matrix(2.445843e-02 -0.9997 0.9997 2.445843e-02 383.6092 -96.3067)" class="st135 st132 st136">Muribaculaceae</text>
</g>
<g class="st134">
	<text transform="matrix(2.445843e-02 -0.9997 0.9997 2.445843e-02 386.0716 -188.7745)" class="st135 st132 st133">Muribaculum</text>
</g>
<g class="st134">
	
		<text transform="matrix(2.445843e-02 -0.9997 0.9997 2.445843e-02 387.5342 -281.2657)" class="st135 st132" style="font-size:8px;">Muribaculum intestinale</text>
</g>
<g class="st134">
	<text transform="matrix(2.690374e-02 -0.9996 0.9996 2.690374e-02 384.15 -96.2885)" class="st135 st132" style="font-size:8px;">Porphyromonadaceae</text>
</g>
<g class="st134">
	<text transform="matrix(3.912742e-02 -0.9992 0.9992 3.912742e-02 390.6511 -96.0488)" class="st135 st132 st133">Prevotellaceae</text>
</g>
<g class="st134">
	<text transform="matrix(3.831271e-02 -0.9993 0.9993 3.831271e-02 393.815 -188.4978)" class="st135 st132 st133">Prevotella</text>
</g>
<g class="st134">
	<text transform="matrix(3.586828e-02 -0.9994 0.9994 3.586828e-02 395.167 -281.0166)" class="st135 st132 st139">Prevotella ruminicola</text>
</g>
<g class="st134">
	<text transform="matrix(5.134526e-02 -0.9987 0.9987 5.134526e-02 396.3494 -95.7611)" class="st135 st132 st133">Rikenellaceae</text>
</g>
<g class="st134">
	<text transform="matrix(5.134526e-02 -0.9987 0.9987 5.134526e-02 401.0988 -188.139)" class="st135 st132 st133">Alistipes</text>
</g>
<g class="st134">
	<text transform="matrix(5.297383e-02 -0.9986 0.9986 5.297383e-02 397.1089 -95.7175)" class="st135 st132 st133">Tannerellaceae</text>
</g>
<g class="st134">
	<text transform="matrix(5.297383e-02 -0.9986 0.9986 5.297383e-02 401.8093 -188.0983)" class="st135 st132 st136">Parabacteroides</text>
</g>
<g class="st134">
	
		<text transform="matrix(5.297383e-02 -0.9986 0.9986 5.297383e-02 405.9105 -280.5114)" class="st135 st132" style="font-size:7px;">Parabacteroides gordonii</text>
</g>
<g class="st134">
	<text transform="matrix(5.460212e-02 -0.9985 0.9985 5.460212e-02 397.0695 -95.717)" class="st135 st132" style="font-size:8px;">Williamwhitmaniaceae</text>
</g>
<g class="st134">
	
		<text transform="matrix(5.460212e-02 -0.9985 0.9985 5.460212e-02 402.5196 -188.0569)" class="st135 st132" style="font-size:10px;">Williamwhitmania</text>
</g>
<g class="st134">
	
		<text transform="matrix(5.460212e-02 -0.9985 0.9985 5.460212e-02 406.9712 -280.4514)" class="st135 st132" style="font-size:7px;">Williamwhitmania taraxaci</text>
</g>
<g class="st134">
	<text transform="matrix(0.1632 -0.9866 0.9866 0.1632 433.3879 1.4027)" class="st135 st132 st133">Cytophagales</text>
</g>
<g class="st134">
	<text transform="matrix(0.1648 -0.9863 0.9863 0.1648 433.7917 1.4736)" class="st135 st132 st136">Flavobacteriales</text>
</g>
<g class="st134">
	<text transform="matrix(0.1648 -0.9863 0.9863 0.1648 448.835 -89.795)" class="st135 st132" style="font-size:10px;">Flavobacteriaceae</text>
</g>
<g class="st134">
	<text transform="matrix(0.1648 -0.9863 0.9863 0.1648 463.2867 -181.1621)" class="st135 st132 st137">Flavobacteriaceae bacterium</text>
</g>
<text transform="matrix(0.1744 -0.9847 0.9847 0.1744 404.1444 184.1062)" class="st132 st137">Candidatus Beckwithbacteria</text>
<text transform="matrix(0.176 -0.9844 0.9844 0.176 404.4476 184.1618)" class="st132 st137">Candidatus Zambryskibacteria</text>
<text transform="matrix(0.1776 -0.9841 0.9841 0.1776 405.9314 184.4317)" class="st132 st133">Chlamydiae</text>
<text transform="matrix(0.1792 -0.9838 0.9838 0.1792 406.234 184.4908)" class="st138 st132 st133">Chloroflexi</text>
<g class="st134">
	<text transform="matrix(0.1792 -0.9838 0.9838 0.1792 439.39 2.4859)" class="st135 st132 st133">Anaerolineales</text>
</g>
<g class="st134">
	<text transform="matrix(0.1792 -0.9838 0.9838 0.1792 455.7712 -88.5522)" class="st135 st132 st136">Anaerolineaceae</text>
</g>
<text transform="matrix(0.9669 0.2552 -0.2552 0.9669 552.129 420.5547)" class="st132 st133">Firmicutes</text>
<g class="st134">
	<text transform="matrix(0.2255 -0.9742 0.9742 0.2255 456.6861 6.1771)" class="st135 st132 st133">Lactobacillales</text>
</g>
<g class="st134">
	<text transform="matrix(0.2239 -0.9746 0.9746 0.2239 476.6122 -84.1593)" class="st135 st132 st136">Lactobacillaceae</text>
</g>
<g class="st134">
	<text transform="matrix(0.2216 -0.9751 0.9751 0.2216 496.1899 -174.5761)" class="st135 st132 st133">Lactobacillus</text>
</g>
<g class="st134">
	<text transform="matrix(0.2096 -0.9778 0.9778 0.2096 508.1272 -266.6916)" class="st135 st132" style="font-size:8px;">Lactobacillus animalis</text>
</g>
<g class="st134">
	<text transform="matrix(0.2398 -0.9708 0.9708 0.2398 527.7849 -262.1068)" class="st135 st132" style="font-size:8px;">Lactobacillus murinus</text>
</g>
<g class="st134">
	<text transform="matrix(0.9889 0.1483 -0.1483 0.9889 739.511 427.8209)" class="st135 st132 st133">Clostridiales</text>
</g>
<g class="st134">
	<text transform="matrix(0.3618 -0.9323 0.9323 0.3618 541.0071 -64.0333)" class="st135 st132 st133">Clostridiaceae</text>
</g>
<g class="st134">
	<text transform="matrix(0.345 -0.9386 0.9386 0.345 565.1066 -153.851)" class="st135 st132 st133">Clostridium</text>
</g>
<g class="st134">
	<text transform="matrix(0.2713 -0.9625 0.9625 0.2713 548.1206 -256.6799)" class="st135 st132" style="font-size:7px;">Clostridium argentinense</text>
</g>
<g class="st134">
	<text transform="matrix(0.4181 -0.9084 0.9084 0.4181 605.8851 -136.799)" class="st135 st132 st133">Hathewaya</text>
</g>
<g class="st134">
	<text transform="matrix(0.4181 -0.9084 0.9084 0.4181 643.8304 -221.1613)" class="st135 st132" style="font-size:8px;">Hathewaya proteolytica</text>
</g>
<g class="st134">
	
		<text transform="matrix(0.4299 -0.9029 0.9029 0.4299 612.4763 -133.678)" class="st132 st133" style="display:inline;fill:#EEEEEE;">Hungatella</text>
</g>
<g class="st134">
	
		<text transform="matrix(0.4299 -0.9029 0.9029 0.4299 651.6995 -217.4524)" class="st132 st139" style="display:inline;fill:#EEEEEE;">Hungatella hathewayi</text>
</g>
<g class="st134">
	<text transform="matrix(0.4656 -0.885 0.885 0.4656 589.3316 -41.7301)" class="st135 st132 st133">Eubacteriaceae</text>
</g>
<g class="st134">
	<text transform="matrix(0.4656 -0.885 0.885 0.4656 632.4007 -123.5914)" class="st135 st132 st133">Eubacterium</text>
</g>
<g class="st134">
	<text transform="matrix(0.4577 -0.8891 0.8891 0.4577 669.2296 -208.7192)" class="st135 st132 st137">Eubacterium coprostanoligenes</text>
</g>
<g class="st134">
	<text transform="matrix(0.4671 -0.8842 0.8842 0.4671 675.7004 -205.328)" class="st135 st132" style="font-size:8px;">Eubacterium ventriosum</text>
</g>
<g class="st134">
	
		<text transform="matrix(0.4735 -0.8808 0.8808 0.4735 680.0903 -202.9741)" class="st132 st139" style="display:inline;fill:#EEEEEE;">[Eubacterium] eligens</text>
</g>
<g class="st134">
	
		<text transform="matrix(0.4985 -0.8669 0.8669 0.4985 604.6165 -33.2158)" class="st132 st133" style="display:inline;fill:#EEEEEE;">Flavonifractor</text>
</g>
<g class="st134">
	
		<text transform="matrix(0.4836 -0.8753 0.8753 0.4836 641.8818 -118.431)" class="st132 st139" style="display:inline;fill:#EEEEEE;">Flavonifractor plautii</text>
</g>
<g class="st134">
	
		<text transform="matrix(0.9195 -0.3931 0.3931 0.9195 799.8076 188.6367)" class="st132 st136" style="display:inline;fill:#EEEEEE;">Lachnospiraceae</text>
</g>
<g class="st134">
	
		<text transform="matrix(0.5272 -0.8498 0.8498 0.5272 666.7253 -103.7521)" class="st132 st133" style="display:inline;fill:#EEEEEE;">Anaerocolumna</text>
</g>
<g class="st134">
	
		<text transform="matrix(0.5272 -0.8498 0.8498 0.5272 714.6384 -182.882)" class="st132" style="display:inline;fill:#EEEEEE; font-size:7px;">Anaerocolumna jejuensis</text>
</g>
<g class="st134">
	
		<text transform="matrix(0.5519 -0.8339 0.8339 0.5519 680.5015 -94.8397)" class="st132 st133" style="display:inline;fill:#EEEEEE;">Anaerostipes</text>
</g>
<g class="st134">
	
		<text transform="matrix(0.5519 -0.8339 0.8339 0.5519 731.0498 -172.3084)" class="st132 st139" style="display:inline;fill:#EEEEEE;">Anaerostipes caccae</text>
</g>
<g class="st134">
	
		<text transform="matrix(0.5714 -0.8206 0.8206 0.5714 691.4051 -87.368)" class="st132 st133" style="display:inline;fill:#EEEEEE;">Anaerotignum</text>
</g>
<g class="st134">
	
		<text transform="matrix(0.5701 -0.8216 0.8216 0.5701 742.4072 -164.5709)" class="st132 st137" style="display:inline;fill:#EEEEEE;">Anaerotignum lactatifermentans</text>
</g>
<g class="st134">
	
		<text transform="matrix(0.5927 -0.8055 0.8055 0.5927 703.2277 -78.8276)" class="st132 st133" style="display:inline;fill:#EEEEEE;">Blautia</text>
</g>
<g class="st134">
	
		<text transform="matrix(0.5894 -0.8079 0.8079 0.5894 755.1039 -155.499)" class="st132" style="display:inline;fill:#EEEEEE; font-size:7px;">Blautia hydrogenotrophica</text>
</g>
<g class="st134">
	
		<text transform="matrix(0.6012 -0.7991 0.7991 0.6012 763.5737 -149.1895)" class="st132 st133" style="display:inline;fill:#EEEEEE;">Blautia obeum</text>
</g>
<g class="st134">
	
		<text transform="matrix(0.6173 -0.7867 0.7867 0.6173 716.9719 -68.2892)" class="st132 st133" style="display:inline;fill:#EEEEEE;">Butyrivibrio</text>
</g>
<g class="st134">
	
		<text transform="matrix(0.6109 -0.7917 0.7917 0.6109 769.2607 -144.8258)" class="st132" style="display:inline;fill:#EEEEEE; font-size:8px;">Butyrivibrio crossotus</text>
</g>
<g class="st134">
	
		<text transform="matrix(0.6154 -0.7882 0.7882 0.6154 772.1925 -142.5384)" class="st132" style="display:inline;fill:#EEEEEE; font-size:8px;">Butyrivibrio fibrisolvens</text>
</g>
<g class="st134">
	
		<text transform="matrix(0.6173 -0.7867 0.7867 0.6173 773.6022 -141.4299)" class="st132 st139" style="display:inline;fill:#EEEEEE;">Butyrivibrio hungatei</text>
</g>
<g class="st134">
	
		<text transform="matrix(0.6199 -0.7847 0.7847 0.6199 774.9542 -140.3591)" class="st132" style="display:inline;fill:#EEEEEE; font-size:7px;">Butyrivibrio proteoclasticus</text>
</g>
<g class="st134">
	
		<text transform="matrix(0.6383 -0.7698 0.7698 0.6383 728.6379 -58.7959)" class="st132 st133" style="display:inline;fill:#EEEEEE;">Dorea</text>
</g>
<g class="st134">
	
		<text transform="matrix(0.6376 -0.7703 0.7703 0.6376 786.9615 -130.5992)" class="st132" style="display:inline;fill:#EEEEEE; font-size:10px;">Dorea longicatena</text>
</g>
<g class="st134">
	
		<text transform="matrix(0.6544 -0.7561 0.7561 0.6544 737.3445 -51.3585)" class="st132" style="display:inline;fill:#EEEEEE; font-size:10px;">Lachnoclostridium</text>
</g>
<g class="st134">
	
		<text transform="matrix(0.6526 -0.7577 0.7577 0.6526 795.9194 -122.9966)" class="st132" style="display:inline;fill:#EEEEEE; font-size:5px;">Lachnoclostridium phytofermentans</text>
</g>
<g class="st134">
	
		<text transform="matrix(0.6575 -0.7534 0.7534 0.6575 799.7289 -119.682)" class="st132 st139" style="display:inline;fill:#EEEEEE;">[Clostridium] bolteae</text>
</g>
<g class="st134">
	<text transform="matrix(0.6606 -0.7508 0.7508 0.6606 741.068 -48.0854)" class="st135 st132 st133">Lachnospira</text>
</g>
<g class="st134">
	<text transform="matrix(0.6618 -0.7497 0.7497 0.6618 740.9998 -48.1413)" class="st135 st132" style="font-size:7px;">Lachnospiraceae bacterium</text>
</g>
<g class="st134">
	<text transform="matrix(0.6715 -0.741 0.741 0.6715 747.164 -42.5942)" class="st135 st132 st133">Marvinbryantia</text>
</g>
<g class="st134">
	<text transform="matrix(0.6715 -0.741 0.741 0.6715 808.3913 -111.9404)" class="st135 st132 st137">Marvinbryantia formatexigens</text>
</g>
<g class="st134">
	<text transform="matrix(0.6936 -0.7204 0.7204 0.6936 759.4379 -31.0301)" class="st135 st132 st133">Oribacterium</text>
</g>
<g class="st134">
	<text transform="matrix(0.6811 -0.7322 0.7322 0.6811 815.0806 -105.7717)" class="st135 st132 st139">Oribacterium parvum</text>
</g>
<g class="st134">
	<text transform="matrix(0.7104 -0.7038 0.7038 0.7104 768.5292 -21.9944)" class="st135 st132" style="font-size:10px;">Pseudobutyrivibrio</text>
</g>
<g class="st134">
	<text transform="matrix(0.7569 -0.6535 0.6535 0.7569 794.6829 6.5014)" class="st135 st132 st133">Roseburia</text>
</g>
<g class="st134">
	<text transform="matrix(0.7178 -0.6962 0.6962 0.7178 839.0612 -82.1478)" class="st135 st132" style="font-size:10px;">Roseburia hominis</text>
</g>
<g class="st134">
	<text transform="matrix(0.7308 -0.6826 0.6826 0.7308 847.321 -73.4187)" class="st135 st132 st139">Roseburia intestinalis</text>
</g>
<g class="st134">
	<text transform="matrix(0.7478 -0.6639 0.6639 0.7478 858.2427 -61.3632)" class="st135 st132" style="font-size:8px;">Roseburia inulinivorans</text>
</g>
<g class="st134">
	<text transform="matrix(0.7969 -0.6041 0.6041 0.7969 816.5643 33.7491)" class="st135 st132 st139">[Eubacterium] rectale</text>
</g>
<g class="st134">
	<text transform="matrix(0.9738 0.2275 -0.2275 0.9738 823.7199 478.4726)" class="st135 st132 st133">Lawsonibacter</text>
</g>
<g class="st134">
	<text transform="matrix(0.9738 0.2275 -0.2275 0.9738 914.0671 498.3492)" class="st135 st132 st137">Lawsonibacter asaccharolyticus</text>
</g>
<g class="st134">
	<text transform="matrix(0.9613 0.2756 -0.2756 0.9613 817.8209 500.7038)" class="st135 st132 st136">Oscillospiraceae</text>
</g>
<g class="st134">
	<text transform="matrix(0.9613 0.2756 -0.2756 0.9613 906.6823 526.3932)" class="st135 st132 st133">Oscillibacter</text>
</g>
<g class="st134">
	<text transform="matrix(0.9717 0.2362 -0.2362 0.9717 1002.7286 525.2702)" class="st135 st132" style="font-size:7px;">Oscillibacter valericigenes</text>
</g>
<g class="st134">
	<text transform="matrix(0.9487 0.3161 -0.3161 0.9487 811.8785 519.5677)" class="st135 st132 st136">Peptococcaceae</text>
</g>
<g class="st134">
	<text transform="matrix(0.9487 0.3161 -0.3161 0.9487 899.6976 548.6209)" class="st135 st132" style="font-size:10px;">Desulfotomaculum</text>
</g>
<g class="st134">
	<text transform="matrix(0.9461 0.3239 -0.3239 0.9461 810.7739 522.7871)" class="st135 st132 st139">Pseudoflavonifractor</text>
</g>
<g class="st134">
	<text transform="matrix(0.8992 0.4376 -0.4376 0.8992 788.586 575.9414)" class="st135 st132" style="font-size:10px;">Ruminococcaceae</text>
</g>
<g class="st134">
	<text transform="matrix(0.941 0.3385 -0.3385 0.941 895.1911 561.4714)" class="st135 st132 st133">Acetivibrio</text>
</g>
<g class="st134">
	<text transform="matrix(0.941 0.3385 -0.3385 0.941 982.5695 591.8403)" class="st135 st132" style="font-size:7px;">Acetivibrio ethanolgignens</text>
</g>
<g class="st134">
	<text transform="matrix(0.9318 0.3629 -0.3629 0.9318 890.0168 575.1075)" class="st135 st132 st133">Anaerotruncus</text>
</g>
<g class="st134">
	<text transform="matrix(0.9376 0.3477 -0.3477 0.9376 980.3694 597.8229)" class="st135 st132" style="font-size:7px;">Anaerotruncus colihominis</text>
</g>
<g class="st134">
	<text transform="matrix(0.9249 0.3803 -0.3803 0.9249 886.1552 584.6382)" class="st135 st132 st136">Faecalibacterium</text>
</g>
<g class="st134">
	<text transform="matrix(0.9249 0.3803 -0.3803 0.9249 972.0082 619.0786)" class="st135 st132" style="font-size:7px;">Faecalibacterium prausnitzii</text>
</g>
<g class="st134">
	<text transform="matrix(0.9242 0.3818 -0.3818 0.9242 886.1866 584.5552)" class="st135 st132 st137">Ruminococcaceae bacterium</text>
</g>
<g class="st134">
	<text transform="matrix(0.9116 0.411 -0.411 0.9116 878.611 601.9524)" class="st135 st132 st133">Ruminococcus</text>
</g>
<g class="st134">
	<text transform="matrix(0.9176 0.3976 -0.3976 0.9176 967.2316 630.3239)" class="st135 st132" style="font-size:7px;">Ruminococcus bicirculans</text>
</g>
<g class="st134">
	<text transform="matrix(0.9106 0.4133 -0.4133 0.9106 962.6042 640.6934)" class="st135 st132" style="font-size:8px;">Ruminococcus bromii</text>
</g>
<g class="st134">
	<text transform="matrix(0.9089 0.417 -0.417 0.9089 961.6627 642.7435)" class="st135 st132 st137">Ruminococcus champanellensis</text>
</g>
<g class="st134">
	<text transform="matrix(0.9072 0.4207 -0.4207 0.9072 960.4615 645.3347)" class="st135 st132" style="font-size:7px;">Ruminococcus flavefaciens</text>
</g>
<g class="st134">
	<text transform="matrix(0.8956 0.4449 -0.4449 0.8956 869.6442 620.682)" class="st135 st132 st136">Subdoligranulum</text>
</g>
<g class="st134">
	<text transform="matrix(0.8422 0.5392 -0.5392 0.8422 762.1097 622.733)" class="st135 st132" style="font-size:7px;">[Bacteroides] pectinophilus</text>
</g>
<text transform="matrix(0.332 -0.9433 0.9433 0.332 284.6656 619.7191)" class="st132 st133">Proteobacteria</text>
<g class="st134">
	<text transform="matrix(0.3296 -0.9441 0.9441 0.3296 224.1208 793.2568)" class="st135 st132 st139">Sphingomonadales</text>
</g>
<g class="st134">
	<text transform="matrix(0.3296 -0.9441 0.9441 0.3296 190.9912 888.1396)" class="st135 st132 st139">Sphingomonadaceae</text>
</g>
<g class="st134">
	<text transform="matrix(0.3296 -0.9441 0.9441 0.3296 162.6384 971.1611)" class="st135 st132 st133">Sphingomonas</text>
</g>
<g class="st134">
	<text transform="matrix(0.3312 -0.9436 0.9436 0.3312 222.2006 798.334)" class="st135 st132 st133">Burkholderiales</text>
</g>
<g class="st134">
	<text transform="matrix(0.3327 -0.943 0.943 0.3327 221.4443 797.6562)" class="st135 st132 st136">Alteromonadales</text>
</g>
<g class="st134">
	<text transform="matrix(0.3327 -0.943 0.943 0.3327 191.093 884.2812)" class="st135 st132 st133">Idiomarinaceae</text>
</g>
<g class="st134">
	<text transform="matrix(0.3327 -0.943 0.943 0.3327 168.8921 947.204)" class="st135 st132 st133">Idiomarina</text>
</g>
<g class="st134">
	<text transform="matrix(0.3327 -0.943 0.943 0.3327 129.1013 1057.5771)" class="st135 st132" style="font-size:8px;">Idiomarina planktonica</text>
</g>
<g class="st134">
	<text transform="matrix(0.3343 -0.9425 0.9425 0.3343 220.6147 797.7863)" class="st135 st132 st136">Methylococcales</text>
</g>
<g class="st134">
	<text transform="matrix(0.3343 -0.9425 0.9425 0.3343 190.4457 882.8517)" class="st135 st132 st136">Crenotrichaceae</text>
</g>
<g class="st134">
	<text transform="matrix(0.3343 -0.9425 0.9425 0.3343 168.1035 946.4455)" class="st135 st132 st133">Crenothrix</text>
</g>
<g class="st134">
	<text transform="matrix(0.3343 -0.9425 0.9425 0.3343 127.1284 1060.1829)" class="st135 st132 st139">Crenothrix polyspora</text>
</g>
<text transform="matrix(0.8751 -0.4839 0.4839 0.8751 243.1463 442.888)" class="st132 st133">Eukaryota</text>
<text transform="matrix(0.8747 -0.4846 0.4846 0.8747 183.287 476.1884)" class="st132 st133">Fungi</text>
<g class="st134">
	<text transform="matrix(0.8747 -0.4846 0.4846 0.8747 -11.0026 583.8311)" class="st135 st132 st133">Ascomycota</text>
</g>
<g class="st134">
	<text transform="matrix(0.8747 -0.4846 0.4846 0.8747 -101.1825 633.5649)" class="st135 st132 st136">Pezizomycotina</text>
</g>
<g class="st134">
	<text transform="matrix(0.8747 -0.4846 0.4846 0.8747 -183.2016 678.7773)" class="st135 st132" style="font-size:10px;">Dothideomycetes</text>
</g>
<g class="st134">
	<text transform="matrix(0.8747 -0.4846 0.4846 0.8747 -264.0475 723.3398)" class="st135 st132 st139">Dothideomycetidae</text>
</g>
<g class="st134">
	<text transform="matrix(0.8747 -0.4846 0.4846 0.8747 -334.8385 763.2461)" class="st135 st132 st133">Capnodiales</text>
</g>
<g class="st134">
	<text transform="matrix(0.8747 -0.4846 0.4846 0.8747 -429.6498 815.0884)" class="st135 st132 st139">Mycosphaerellaceae</text>
</g>
<g class="st134">
	<text transform="matrix(0.8747 -0.4846 0.4846 0.8747 -512.0187 860.9521)" class="st135 st132" style="font-size:10px;">Pseudocercospora</text>
</g>
<g class="st134">
	<text transform="matrix(0.8747 -0.4846 0.4846 0.8747 -591.0277 904.0396)" class="st135 st132" style="font-size:7px;">Pseudocercospora musae</text>
</g>
<text transform="matrix(0.8755 -0.4832 0.4832 0.8755 118.4551 509.472)" class="st132 st133">Viridiplantae</text>
<g class="st134">
	<text transform="matrix(0.8755 -0.4832 0.4832 0.8755 -21.8669 589.013)" class="st135 st132 st133">Streptophytina</text>
</g>
<g class="st134">
	<text transform="matrix(0.8755 -0.4832 0.4832 0.8755 -70.924 616.0877)" class="st135 st132 st133">asterids</text>
</g>
<g class="st134">
	<text transform="matrix(0.8755 -0.4832 0.4832 0.8755 -160.2717 665.3987)" class="st135 st132 st133">Solanales</text>
</g>
<g class="st134">
	<text transform="matrix(0.8755 -0.4832 0.4832 0.8755 -250.5964 715.2493)" class="st135 st132 st133">Solanaceae</text>
</g>
<g class="st134">
	<text transform="matrix(0.8755 -0.4832 0.4832 0.8755 -346.9511 768.4276)" class="st135 st132 st133">Nicotianoideae</text>
</g>
<g class="st134">
	<text transform="matrix(0.8755 -0.4832 0.4832 0.8755 -413.3432 805.0696)" class="st135 st132 st133">Nicotianeae</text>
</g>
<g class="st134">
	<text transform="matrix(0.8755 -0.4832 0.4832 0.8755 -483.0449 843.5379)" class="st135 st132 st133">Nicotiana</text>
</g>
</svg>
