<svg version="1.1" xmlns="http://www.w3.org/2000/svg" viewBox="0 0 916 600" width="916" height="600" style="font-family: &quot;Helvetica Neue&quot;, Helvetica, Arial, sans-serif;"><g transform="translate(5,5)"><g transform="translate(143.24279587262737,317.6722666362498)scale(0.7592683109622652)"><path class="link" d="M540,33.88598759048604C630,33.88598759048604 630,22.015770423991725 720,22.015770423991725" style="fill: none; stroke-opacity: 0.5; stroke-linecap: round; stroke: rgb(46, 125, 50); stroke-width: 25.7528px;"></path><path class="link" d="M540,33.88598759048604C630,33.88598759048604 630,45.75620475698035 720,45.75620475698035" style="fill: none; stroke-opacity: 0.5; stroke-linecap: round; stroke: rgb(46, 125, 50); stroke-width: 5.72802px;"></path><path class="link" d="M360,20.33815925542916C450,20.33815925542916 450,6.790330920372284 540,6.790330920372284" style="fill: none; stroke-opacity: 0.5; stroke-linecap: round; stroke: rgb(46, 125, 50); stroke-width: 8.49741px;"></path><path class="link" d="M360,20.33815925542916C450,20.33815925542916 450,33.88598759048604 540,33.88598759048604" style="fill: none; stroke-opacity: 0.5; stroke-linecap: round; stroke: rgb(46, 125, 50); stroke-width: 29.6939px;"></path><path class="link" d="M180,20.33815925542916C270,20.33815925542916 270,20.33815925542916 360,20.33815925542916" style="fill: none; stroke-opacity: 0.5; stroke-linecap: round; stroke: rgb(46, 125, 50); stroke-width: 38.0021px;"></path><path class="link" d="M0,0C90,0 90,-20.33815925542916 180,-20.33815925542916" style="fill: none; stroke-opacity: 0.5; stroke-linecap: round; stroke: rgb(21, 101, 192); stroke-width: 19.8945px;"></path><path class="link" d="M0,0C90,0 90,20.33815925542916 180,20.33815925542916" style="fill: none; stroke-opacity: 0.5; stroke-linecap: round; stroke: rgb(46, 125, 50); stroke-width: 45.4581px;"></path><g class="node" transform="translate(720,45.75620651245117)" style="cursor: pointer;"><circle r="2.8640124095139607" style="stroke-width: 1.5px; stroke: rgb(46, 125, 50); fill: rgb(46, 125, 50);"></circle><path d="M1.7537018150147852e-16,-2.8640124095139607A2.8640124095139607,2.8640124095139607 0 0,1 0.5113891625075743,-2.8179865518344416L0,0Z" style="fill: rgb(46, 125, 50); fill-opacity: 0.8;"></path><text x="-10" dy=".35em" text-anchor="end" style="font: 10px sans-serif; fill-opacity: 1;">Basidiomycota</text></g><g class="node" transform="translate(720,22.015769958496094)" style="cursor: pointer;"><circle r="12.876421923474663" style="stroke-width: 1.5px; stroke: rgb(46, 125, 50); fill: rgb(46, 125, 50);"></circle><path d="M7.884534446527025e-16,-12.876421923474663A12.876421923474663,12.876421923474663 0 0,1 1.4481395308954268,-12.794730690811624L0,0Z" style="fill: rgb(46, 125, 50); fill-opacity: 0.8;"></path><text x="-10" dy=".35em" text-anchor="end" style="font: 10px sans-serif; fill-opacity: 1;">Ascomycota</text></g><g class="node" transform="translate(540,33.885986328125)" style="cursor: pointer;"><circle r="14.846949327817995" style="stroke-width: 1.5px; stroke: rgb(46, 125, 50); fill: rgb(255, 255, 255); fill-opacity: 0;"></circle><path d="M9.091134485707628e-16,-14.846949327817995A14.846949327817995,14.846949327817995 0 0,1 0.7173062976708425,-14.829611458771163L0,0Z" style="fill: rgb(46, 125, 50); fill-opacity: 0.8;"></path><text x="-10" dy=".35em" text-anchor="end" style="font: 10px sans-serif; fill-opacity: 1;">Dikarya</text></g><g class="node" transform="translate(540,6.79033088684082)" style="cursor: pointer;"><circle r="4.24870734229576" style="stroke-width: 1.5px; stroke: rgb(46, 125, 50); fill: rgb(46, 125, 50);"></circle><path d="M2.6015829236281806e-16,-4.24870734229576A4.24870734229576,4.24870734229576 0 0,1 0.43685632547967446,-4.226188664904384L0,0Z" style="fill: rgb(46, 125, 50); fill-opacity: 0.8;"></path><text x="-10" dy=".35em" text-anchor="end" style="font: 10px sans-serif; fill-opacity: 1;">Chytridiomycota</text></g><g class="node" transform="translate(360,20.338159561157227)" style="cursor: pointer;"><circle r="19.001034126163393" style="stroke-width: 1.5px; stroke: rgb(46, 125, 50); fill: rgb(255, 255, 255); fill-opacity: 0;"></circle><path d="M1.1634777811547813e-15,-19.001034126163393A19.001034126163393,19.001034126163393 0 0,1 5.905225132031801,-18.060111129327137L0,0Z" style="fill: rgb(46, 125, 50); fill-opacity: 0.8;"></path><text x="-10" dy=".35em" text-anchor="end" style="font: 10px sans-serif; fill-opacity: 1;">Fungi</text></g><g class="node" transform="translate(180,20.338159561157227)" style="cursor: pointer;"><circle r="22.729058945191312" style="stroke-width: 1.5px; stroke: rgb(46, 125, 50); fill: rgb(255, 255, 255); fill-opacity: 0;"></circle><path d="M1.391753464243003e-15,-22.729058945191312A22.729058945191312,22.729058945191312 0 0,1 20.024578095353938,-10.752971339915888L0,0Z" style="fill: rgb(46, 125, 50); fill-opacity: 0.8;"></path><text x="-10" dy=".35em" text-anchor="end" style="font: 10px sans-serif; fill-opacity: 1;">Eukaryota</text></g><g class="node" transform="translate(180,-20.338159561157227)" style="cursor: pointer;"><circle r="9.94725956566701" style="stroke-width: 1.5px; stroke: rgb(21, 101, 192); fill: rgb(21, 101, 192);"></circle><path d="M6.090939793690998e-16,-9.94725956566701A9.94725956566701,9.94725956566701 0 0,1 8.962171189610517,-4.3159541743245L0,0Z" style="fill: rgb(21, 101, 192); fill-opacity: 0.8;"></path><text x="-10" dy=".35em" text-anchor="end" style="font: 10px sans-serif; fill-opacity: 1;">Bacteria</text></g><g class="node" transform="translate(0,0)" style="cursor: pointer;"><circle r="52.5" style="stroke-width: 1.5px; stroke: rgb(170, 170, 170); fill: rgb(255, 255, 255); fill-opacity: 0;"></circle><path d="M3.214697847761802e-15,-52.5A52.5,52.5 0 0,1 29.688282840330686,43.29960579488601L0,0Z" style="fill: rgb(170, 170, 170); fill-opacity: 0.8;"></path><text x="-10" dy=".35em" text-anchor="end" style="font: 10px sans-serif; fill-opacity: 1;">Organism</text></g></g></g></svg>