<?xml version="1.0" encoding="utf-8"?>
<!-- Generator: Adobe Illustrator 23.0.6, SVG Export Plug-In . SVG Version: 6.00 Build 0)  -->
<svg version="1.1" id="Layer_1" xmlns="http://www.w3.org/2000/svg" xmlns:xlink="http://www.w3.org/1999/xlink" x="0px" y="0px"
	 viewBox="0 0 740 740" style="enable-background:new 0 0 740 740;" xml:space="preserve">
<style type="text/css">
	.st0{fill-rule:evenodd;clip-rule:evenodd;fill:#F37C78;}
	.st1{fill-rule:evenodd;clip-rule:evenodd;fill:#EDDF7F;}
	.st2{fill-rule:evenodd;clip-rule:evenodd;fill:#EFE78B;}
	.st3{fill-rule:evenodd;clip-rule:evenodd;fill:#F0E892;}
	.st4{display:none;fill-rule:evenodd;clip-rule:evenodd;fill:#F1EA98;fill-opacity:0.2;}
	.st5{display:none;fill-rule:evenodd;clip-rule:evenodd;fill:#F8EFA3;fill-opacity:0.2;}
	.st6{display:none;fill-rule:evenodd;clip-rule:evenodd;fill:#F9F0AB;fill-opacity:0.2;}
	.st7{display:none;fill-rule:evenodd;clip-rule:evenodd;fill:#E7E390;fill-opacity:0.2;}
	.st8{display:none;fill-rule:evenodd;clip-rule:evenodd;fill:#E8E596;fill-opacity:0.2;}
	.st9{display:none;fill-rule:evenodd;clip-rule:evenodd;fill:#EEDE95;fill-opacity:0.2;}
	.st10{display:none;fill-rule:evenodd;clip-rule:evenodd;fill:#EFE09C;fill-opacity:0.2;}
	.st11{display:none;fill-rule:evenodd;clip-rule:evenodd;fill:#F0E2A3;fill-opacity:0.2;}
	.st12{display:none;fill-rule:evenodd;clip-rule:evenodd;fill:#FFFFFF;fill-opacity:0.2;}
	.st13{fill-rule:evenodd;clip-rule:evenodd;fill:#ECD572;}
	.st14{fill-rule:evenodd;clip-rule:evenodd;fill:#EDD779;}
	.st15{display:none;fill-rule:evenodd;clip-rule:evenodd;fill:#EED97F;fill-opacity:0.2;}
	.st16{display:none;fill-rule:evenodd;clip-rule:evenodd;fill:#ECE381;fill-opacity:0.2;}
	.st17{display:none;fill-rule:evenodd;clip-rule:evenodd;fill:#EDE487;fill-opacity:0.2;}
	.st18{display:none;fill-rule:evenodd;clip-rule:evenodd;fill:#F0CF7E;fill-opacity:0.2;}
	.st19{display:none;fill-rule:evenodd;clip-rule:evenodd;fill:#EFD580;fill-opacity:0.2;}
	.st20{display:none;fill-rule:evenodd;clip-rule:evenodd;fill:#F0C87B;fill-opacity:0.2;}
	.st21{display:none;fill-rule:evenodd;clip-rule:evenodd;fill:#F1CB82;fill-opacity:0.2;}
	.st22{fill-rule:evenodd;clip-rule:evenodd;fill:#FFFFFF;}
	.st23{fill-rule:evenodd;clip-rule:evenodd;fill:#EDB27D;}
	.st24{fill-rule:evenodd;clip-rule:evenodd;fill:#EEB684;}
	.st25{display:none;fill-rule:evenodd;clip-rule:evenodd;fill:#EFBA8A;fill-opacity:0.2;}
	.st26{display:none;fill-rule:evenodd;clip-rule:evenodd;fill:#F0BE91;fill-opacity:0.2;}
	.st27{display:none;fill-rule:evenodd;clip-rule:evenodd;fill:#F1C298;fill-opacity:0.2;}
	.st28{fill-rule:evenodd;clip-rule:evenodd;fill:#DACB92;}
	.st29{fill-rule:evenodd;clip-rule:evenodd;fill:#E4A886;}
	.st30{display:none;fill-rule:evenodd;clip-rule:evenodd;fill:#E5AC8C;fill-opacity:0.2;}
	.st31{display:none;fill-rule:evenodd;clip-rule:evenodd;fill:#E7B092;fill-opacity:0.2;}
	.st32{display:none;fill-rule:evenodd;clip-rule:evenodd;fill:#E8B598;fill-opacity:0.2;}
	.st33{fill-rule:evenodd;clip-rule:evenodd;fill:#C6D19E;}
	.st34{display:none;fill-rule:evenodd;clip-rule:evenodd;fill:#D2DB9B;fill-opacity:0.2;}
	.st35{display:none;fill-rule:evenodd;clip-rule:evenodd;fill:#D5DDA1;fill-opacity:0.2;}
	.st36{display:none;fill-rule:evenodd;clip-rule:evenodd;fill:#BBC7A2;fill-opacity:0.2;}
	.st37{display:none;fill-rule:evenodd;clip-rule:evenodd;fill:#BFC9A7;fill-opacity:0.2;}
	.st38{display:none;fill-rule:evenodd;clip-rule:evenodd;fill:#C2CCAB;fill-opacity:0.2;}
	.st39{display:none;fill-rule:evenodd;clip-rule:evenodd;fill:#C5CFB0;fill-opacity:0.2;}
	.st40{display:none;fill-rule:evenodd;clip-rule:evenodd;fill:#C9D2B5;fill-opacity:0.2;}
	.st41{display:none;fill-rule:evenodd;clip-rule:evenodd;fill:#A2B6A2;fill-opacity:0.2;}
	.st42{display:none;fill-rule:evenodd;clip-rule:evenodd;fill:#A6B9A6;fill-opacity:0.2;}
	.st43{display:none;fill-rule:evenodd;clip-rule:evenodd;fill:#AABDAA;fill-opacity:0.2;}
	.st44{display:none;fill-rule:evenodd;clip-rule:evenodd;fill:#AEC1AD;fill-opacity:0.2;}
	.st45{display:none;fill-rule:evenodd;clip-rule:evenodd;fill:#A7B8A8;fill-opacity:0.2;}
	.st46{fill-rule:evenodd;clip-rule:evenodd;fill:#A68E38;}
	.st47{fill-rule:evenodd;clip-rule:evenodd;fill:#A99139;}
	.st48{display:none;fill-rule:evenodd;clip-rule:evenodd;fill:#AD943B;fill-opacity:0.2;}
	.st49{display:none;fill-rule:evenodd;clip-rule:evenodd;fill:#B0973C;fill-opacity:0.2;}
	.st50{display:none;fill-rule:evenodd;clip-rule:evenodd;fill:#B49A3D;fill-opacity:0.2;}
	.st51{fill-rule:evenodd;clip-rule:evenodd;fill:#A17940;}
	.st52{fill-rule:evenodd;clip-rule:evenodd;fill:#A47C41;}
	.st53{display:none;fill-rule:evenodd;clip-rule:evenodd;fill:#A87E43;fill-opacity:0.2;}
	.st54{display:none;fill-rule:evenodd;clip-rule:evenodd;fill:#AB8144;fill-opacity:0.2;}
	.st55{display:none;fill-rule:evenodd;clip-rule:evenodd;fill:#AE8346;fill-opacity:0.2;}
	.st56{display:none;fill-rule:evenodd;clip-rule:evenodd;fill:#B28647;fill-opacity:0.2;}
	.st57{fill-rule:evenodd;clip-rule:evenodd;fill:#9D6C38;}
	.st58{fill-rule:evenodd;clip-rule:evenodd;fill:#A06E39;}
	.st59{fill-rule:evenodd;clip-rule:evenodd;fill:#9C732E;}
	.st60{display:none;fill-rule:evenodd;clip-rule:evenodd;fill:#9F762F;fill-opacity:0.2;}
	.st61{display:none;fill-rule:evenodd;clip-rule:evenodd;fill:#A27830;fill-opacity:0.2;}
	.st62{display:none;fill-rule:evenodd;clip-rule:evenodd;fill:#A67A31;fill-opacity:0.2;}
	.st63{display:none;fill-rule:evenodd;clip-rule:evenodd;fill:#A97D32;fill-opacity:0.2;}
	.st64{fill-rule:evenodd;clip-rule:evenodd;fill:#A46B46;}
	.st65{display:none;fill-rule:evenodd;clip-rule:evenodd;fill:#AC7549;fill-opacity:0.2;}
	.st66{display:none;fill-rule:evenodd;clip-rule:evenodd;fill:#C58540;fill-opacity:0.2;}
	.st67{display:none;fill-rule:evenodd;clip-rule:evenodd;fill:#A5762F;fill-opacity:0.2;}
	.st68{display:none;fill-rule:evenodd;clip-rule:evenodd;fill:#A87930;fill-opacity:0.2;}
	.st69{display:none;fill-rule:evenodd;clip-rule:evenodd;fill:#AB7B31;fill-opacity:0.2;}
	.st70{display:none;fill-rule:evenodd;clip-rule:evenodd;fill:#AF7E32;fill-opacity:0.2;}
	.st71{display:none;fill-rule:evenodd;clip-rule:evenodd;fill:#B28033;fill-opacity:0.2;}
	.st72{display:none;fill-rule:evenodd;clip-rule:evenodd;fill:#B68334;fill-opacity:0.2;}
	.st73{display:none;fill-rule:evenodd;clip-rule:evenodd;fill:#CE9567;fill-opacity:0.2;}
	.st74{display:none;fill-rule:evenodd;clip-rule:evenodd;fill:#D0986C;fill-opacity:0.2;}
	.st75{display:none;fill-rule:evenodd;clip-rule:evenodd;fill:#D19B71;fill-opacity:0.2;}
	.st76{display:none;fill-rule:evenodd;clip-rule:evenodd;fill:#D39F76;fill-opacity:0.2;}
	.st77{display:none;fill-rule:evenodd;clip-rule:evenodd;fill:#D4A27B;fill-opacity:0.2;}
	.st78{display:none;fill-rule:evenodd;clip-rule:evenodd;fill:#D6A680;fill-opacity:0.2;}
	.st79{display:none;fill-rule:evenodd;clip-rule:evenodd;fill:#DBA460;fill-opacity:0.2;}
	.st80{display:none;fill-rule:evenodd;clip-rule:evenodd;fill:#DDA765;fill-opacity:0.2;}
	.st81{display:none;fill-rule:evenodd;clip-rule:evenodd;fill:#DEAA6B;fill-opacity:0.2;}
	.st82{display:none;fill-rule:evenodd;clip-rule:evenodd;fill:#DFAD70;fill-opacity:0.2;}
	.st83{display:none;fill-rule:evenodd;clip-rule:evenodd;fill:#926B54;fill-opacity:0.2;}
	.st84{display:none;fill-rule:evenodd;clip-rule:evenodd;fill:#956D56;fill-opacity:0.2;}
	.st85{display:none;fill-rule:evenodd;clip-rule:evenodd;fill:#986F58;fill-opacity:0.2;}
	.st86{display:none;fill-rule:evenodd;clip-rule:evenodd;fill:#9C7159;fill-opacity:0.2;}
	.st87{display:none;fill-rule:evenodd;clip-rule:evenodd;fill:#9F745B;fill-opacity:0.2;}
	.st88{display:none;fill-rule:evenodd;clip-rule:evenodd;fill:#A2765D;fill-opacity:0.2;}
	.st89{display:none;fill-rule:evenodd;clip-rule:evenodd;fill:#9B6242;fill-opacity:0.2;}
	.st90{display:none;fill-rule:evenodd;clip-rule:evenodd;fill:#905C4A;fill-opacity:0.2;}
	.st91{display:none;fill-rule:evenodd;clip-rule:evenodd;fill:#935E4C;fill-opacity:0.2;}
	.st92{display:none;fill-rule:evenodd;clip-rule:evenodd;fill:#96604D;fill-opacity:0.2;}
	.st93{display:none;fill-rule:evenodd;clip-rule:evenodd;fill:#99624F;fill-opacity:0.2;}
	.st94{display:none;fill-rule:evenodd;clip-rule:evenodd;fill:#9C6450;fill-opacity:0.2;}
	.st95{display:none;fill-rule:evenodd;clip-rule:evenodd;fill:#9F6652;fill-opacity:0.2;}
	.st96{display:none;fill-rule:evenodd;clip-rule:evenodd;fill:#A76B39;fill-opacity:0.2;}
	.st97{display:none;fill-rule:evenodd;clip-rule:evenodd;fill:#AB6D3A;fill-opacity:0.2;}
	.st98{display:none;fill-rule:evenodd;clip-rule:evenodd;fill:#AE6F3B;fill-opacity:0.2;}
	.st99{display:none;fill-rule:evenodd;clip-rule:evenodd;fill:#B2713D;fill-opacity:0.2;}
	.st100{display:none;fill-rule:evenodd;clip-rule:evenodd;fill:#B5743E;fill-opacity:0.2;}
	.st101{display:none;fill-rule:evenodd;clip-rule:evenodd;fill:#B9763F;fill-opacity:0.2;}
	.st102{display:none;fill-rule:evenodd;clip-rule:evenodd;fill:#B75C49;fill-opacity:0.2;}
	.st103{display:none;fill-rule:evenodd;clip-rule:evenodd;fill:#B9604D;fill-opacity:0.2;}
	.st104{display:none;fill-rule:evenodd;clip-rule:evenodd;fill:#BA6351;fill-opacity:0.2;}
	.st105{display:none;fill-rule:evenodd;clip-rule:evenodd;fill:#BC6755;fill-opacity:0.2;}
	.st106{display:none;fill-rule:evenodd;clip-rule:evenodd;fill:#BD6A59;fill-opacity:0.2;}
	.st107{display:none;fill-rule:evenodd;clip-rule:evenodd;fill:#BF6E5D;fill-opacity:0.2;}
	.st108{font-family:'HelveticaNeue';}
	.st109{font-size:12px;}
	.st110{display:none;enable-background:new    ;}
	.st111{display:inline;}
	.st112{font-size:11px;}
	.st113{font-size:9px;}
	.st114{font-size:8px;}
	.st115{font-size:10px;}
	.st116{fill:#EEEEEE;}
	.st117{display:inline;fill:#EEEEEE;}
</style>
<g transform="translate(370,370)">
	<path id="path-0" class="st0" d="M0,93.5c-51.6,0-93.5-41.9-93.5-93.5S-51.6-93.5,0-93.5S93.5-51.6,93.5,0S51.6,93.5,0,93.5z"/>
	<path id="path-1" class="st1" d="M0-186c69.4,0,133,38.6,165,100.2l-83,43.1C66.2-73.3,34.5-92.5,0-92.5V-186z"/>
	<path id="path-2" class="st2" d="M0-278.5c5.4,0,10.9,0.2,16.3,0.5l-5.5,93.3C7.2-184.9,3.6-185,0-185V-278.5z"/>
	<path id="path-3" class="st3" d="M0-371c7.2,0,14.5,0.2,21.7,0.6L16.2-277c-5.4-0.3-10.8-0.5-16.2-0.5V-371z"/>
	<path id="path-4" class="st4" d="M0-463.5c9,0,18.1,0.3,27.1,0.8l-5.5,93.3C14.4-369.8,7.2-370,0-370V-463.5z"/>
	<path id="path-5" class="st5" d="M0-556c2.4,0,4.8,0,7.2,0L6-462.5c-2,0-4,0-6,0V-556z"/>
	<path id="path-6" class="st6" d="M0-648.5c2.8,0,5.6,0,8.4,0.1L7.2-555c-2.4,0-4.8,0-7.2,0V-648.5z"/>
	<path id="path-7" class="st7" d="M7.2-556c2.4,0,4.8,0.1,7.2,0.1L12-462.3c-2-0.1-4-0.1-6-0.1L7.2-556z"/>
	<path id="path-8" class="st8" d="M8.4-648.4c2.8,0,5.6,0.1,8.4,0.2l-2.4,93.5c-2.4-0.1-4.8-0.1-7.2-0.1L8.4-648.4z"/>
	<path id="path-9" class="st9" d="M14.4-555.8c4.8,0.1,9.6,0.3,14.4,0.6L24-461.9c-4-0.2-8-0.4-12-0.5L14.4-555.8z"/>
	<path id="path-10" class="st10" d="M16.9-648.3c5.6,0.1,11.2,0.4,16.8,0.7l-4.9,93.4c-4.8-0.2-9.6-0.4-14.4-0.6L16.9-648.3z"/>
	<path id="path-11" class="st11" d="M19.3-740.7c6.4,0.2,12.8,0.4,19.2,0.8l-4.9,93.4c-5.6-0.3-11.2-0.5-16.8-0.7L19.3-740.7z"/>
	<path id="path-12" class="st12" d="M28.9-555.2c1.2,0.1,2.4,0.1,3.6,0.2L27-461.7c-1-0.1-2-0.1-3-0.2L28.9-555.2z"/>
	<path id="path-13" class="st13" d="M16.3-278c42.9,2.5,84.7,14.9,122.1,36.3l-46.4,81.1c-24.8-14.2-52.6-22.4-81.1-24.1L16.3-278z"
		/>
	<path id="path-14" class="st14" d="M21.7-370.4c55.6,3.3,109.7,19,158.4,46l-45.4,81.7c-36.4-20.2-76.9-32-118.5-34.4L21.7-370.4z"
		/>
	<path id="path-15" class="st15" d="M27.1-462.7c68.4,4,135.1,23.1,195.3,56l-44.9,82c-48-26.2-101.2-41.5-155.9-44.7L27.1-462.7z"
		/>
	<path id="path-16" class="st16" d="M32.5-555c31.3,1.8,62.3,6.3,92.9,13.4l-21.1,91.1c-25.4-5.9-51.2-9.6-77.2-11.1L32.5-555z"/>
	<path id="path-17" class="st17" d="M37.9-647.4c36.5,2.1,72.7,7.4,108.3,15.6l-21.1,91.1c-30.5-7.1-61.5-11.5-92.7-13.3L37.9-647.4
		z"/>
	<path id="path-18" class="st18" d="M125.4-541.7c18.8,4.3,37.3,9.7,55.5,15.9l-30.4,88.4c-15.2-5.2-30.6-9.6-46.2-13.3L125.4-541.7
		z"/>
	<path id="path-19" class="st19" d="M146.2-631.8c1.4,0.3,2.7,0.6,4.1,1l-21.7,91c-1.2-0.3-2.3-0.6-3.5-0.8L146.2-631.8z"/>
	<path id="path-20" class="st20" d="M150.3-630.8c4.1,1,8.2,2,12.3,3l-23.4,90.5c-3.5-0.9-7-1.8-10.5-2.6L150.3-630.8z"/>
	<path id="path-21" class="st21" d="M171.8-720.8c1.6,0.4,3.1,0.7,4.7,1.1l-22.3,90.8c-1.4-0.3-2.7-0.7-4.1-1L171.8-720.8z"/>
	<path id="path-22" class="st12" d="M176.4-719.7c3.1,0.8,6.2,1.5,9.3,2.4l-23.4,90.5c-2.7-0.7-5.4-1.4-8.2-2.1L176.4-719.7z"/>
	<path id="path-23" class="st12" d="M162.6-627.8c16.3,4.2,32.5,9.1,48.4,14.6l-30.4,88.4c-13.6-4.7-27.5-8.9-41.4-12.5L162.6-627.8
		z"/>
	<path id="path-24" class="st12" d="M180.9-525.8c29.6,10.2,58.3,22.9,85.8,37.9l-44.9,82c-22.9-12.5-46.7-23-71.4-31.5L180.9-525.8
		z"/>
	<path id="path-25" class="st12" d="M222.3-406.7c0.9,0.5,1.8,1,2.6,1.5l-45.4,81.7c-0.7-0.4-1.4-0.8-2.1-1.2L222.3-406.7z"/>
	<path id="path-26" class="st22" d="M180.1-324.4c1.4,0.8,2.8,1.6,4.2,2.4l-46.4,81.1c-1-0.6-2.1-1.2-3.1-1.8L180.1-324.4z"/>
	<path id="path-27" class="st23" d="M138.3-241.7c0.5,0.3,1,0.6,1.6,0.9l-47,80.8c-0.3-0.2-0.7-0.4-1-0.6L138.3-241.7z"/>
	<path id="path-28" class="st24" d="M184.3-322c0.7,0.4,1.4,0.8,2.1,1.2l-47,80.8c-0.5-0.3-1-0.6-1.6-0.9L184.3-322z"/>
	<path id="path-29" class="st25" d="M230.2-402.3c0.9,0.5,1.7,1,2.6,1.5l-47,80.8c-0.7-0.4-1.4-0.8-2.1-1.2L230.2-402.3z"/>
	<path id="path-30" class="st26" d="M276.2-482.6c1,0.6,2.1,1.2,3.1,1.8l-47,80.8c-0.9-0.5-1.7-1-2.6-1.5L276.2-482.6z"/>
	<path id="path-31" class="st27" d="M322.1-562.8c1.2,0.7,2.4,1.4,3.7,2.1l-47,80.8c-1-0.6-2.1-1.2-3.1-1.8L322.1-562.8z"/>
	<path id="path-32" class="st28" d="M139.9-240.8c27.7,16.1,52.4,36.9,73.1,61.4l-71.5,60.2c-13.7-16.3-30.1-30.1-48.5-40.8
		L139.9-240.8z"/>
	<path id="path-33" class="st29" d="M186.4-320.8c6.9,4,13.8,8.3,20.4,12.8l-52.1,77.6c-5-3.4-10.1-6.5-15.3-9.6L186.4-320.8z"/>
	<path id="path-34" class="st30" d="M232.8-400.8c8.7,5,17.2,10.4,25.5,16l-52.1,77.6c-6.7-4.5-13.5-8.7-20.4-12.7L232.8-400.8z"/>
	<path id="path-35" class="st31" d="M279.3-480.8c10.4,6,20.6,12.4,30.6,19.1L257.8-384c-8.3-5.6-16.8-10.9-25.5-15.9L279.3-480.8z"
		/>
	<path id="path-36" class="st32" d="M325.8-560.7c12.1,7.1,24.1,14.5,35.7,22.3l-52.1,77.6c-10-6.7-20.2-13.1-30.6-19.1L325.8-560.7
		z"/>
	<path id="path-37" class="st33" d="M206.8-308c20.7,13.9,39.9,29.8,57.4,47.6l-66.6,65.6c-13.1-13.3-27.5-25.2-43-35.6L206.8-308z"
		/>
	<path id="path-38" class="st34" d="M258.4-384.8c0.8,0.6,1.7,1.1,2.5,1.7l-52.6,77.3c-0.7-0.5-1.3-0.9-2-1.3L258.4-384.8z"/>
	<path id="path-39" class="st35" d="M309.9-461.6c1,0.7,2,1.3,3,2l-52.6,77.3c-0.8-0.6-1.7-1.1-2.5-1.7L309.9-461.6z"/>
	<path id="path-40" class="st36" d="M260.9-383.1c2.5,1.7,5,3.4,7.4,5.2l-54.1,76.2c-2-1.4-3.9-2.8-5.9-4.1L260.9-383.1z"/>
	<path id="path-41" class="st37" d="M312.9-459.6c3,2,6,4.1,8.9,6.2l-54.1,76.2c-2.5-1.7-4.9-3.5-7.4-5.1L312.9-459.6z"/>
	<path id="path-42" class="st38" d="M365-536c3.5,2.4,6.9,4.8,10.4,7.2l-54.1,76.2c-2.9-2.1-5.9-4.1-8.9-6.2L365-536z"/>
	<path id="path-43" class="st39" d="M417-612.5c4,2.7,7.9,5.5,11.9,8.2L374.8-528c-3.4-2.4-6.9-4.8-10.4-7.2L417-612.5z"/>
	<path id="path-44" class="st40" d="M469.1-689c3,2,6,4.1,8.9,6.2l-53.6,76.6c-2.6-1.8-5.3-3.7-7.9-5.5L469.1-689z"/>
	<path id="path-45" class="st12" d="M478-682.8c1.5,1,3,2.1,4.4,3.1l-54.1,76.2c-1.3-0.9-2.6-1.9-3.9-2.8L478-682.8z"/>
	<path id="path-46" class="st41" d="M268.3-378c13.1,9.3,25.7,19.3,37.8,29.9l-61.7,70.2c-9.6-8.5-19.7-16.4-30.2-23.9L268.3-378z"
		/>
	<path id="path-47" class="st42" d="M321.8-453.4c15.7,11.2,30.8,23.1,45.3,35.8l-61.7,70.2c-12-10.6-24.6-20.5-37.7-29.8
		L321.8-453.4z"/>
	<path id="path-48" class="st43" d="M375.4-528.8c17.2,12.2,33.8,25.2,49.7,39l-61.3,70.6c-13.6-11.8-27.8-23-42.5-33.4L375.4-528.8
		z"/>
	<path id="path-49" class="st44" d="M428.9-604.3c6.5,4.6,13,9.4,19.4,14.3l-56.6,74.4c-5.6-4.2-11.2-8.4-17-12.5L428.9-604.3z"/>
	<path id="path-50" class="st45" d="M448.3-590c1.3,1,2.6,1.9,3.8,2.9l-57,74.1c-1.1-0.9-2.2-1.7-3.3-2.6L448.3-590z"/>
	<path id="path-51" class="st12" d="M452.1-587.1c11.4,8.8,22.6,18,33.5,27.4L424.4-489c-9.5-8.3-19.3-16.3-29.3-24L452.1-587.1z"/>
	<path id="path-52" class="st12" d="M425-489.8c1.1,0.9,2.1,1.8,3.2,2.8l-61.7,70.2c-0.9-0.8-1.8-1.6-2.7-2.4L425-489.8z"/>
	<path id="path-53" class="st12" d="M306.1-348.1c8.3,7.3,16.3,14.9,24.1,22.7l-66.6,65.6c-6.2-6.3-12.6-12.3-19.2-18.2L306.1-348.1
		z"/>
	<path id="path-54" class="st22" d="M264.2-260.4c6.8,6.9,13.3,14,19.5,21.4l-71.5,60.2c-4.6-5.5-9.5-10.8-14.6-16L264.2-260.4z"/>
	<path id="path-55" class="st46" d="M213-179.4c1.2,1.4,2.3,2.8,3.5,4.2l-72.7,58.8c-0.8-0.9-1.5-1.9-2.3-2.8L213-179.4z"/>
	<path id="path-56" class="st47" d="M283.7-239c1.6,1.8,3.1,3.7,4.6,5.6l-72.7,58.8c-1.1-1.4-2.3-2.8-3.4-4.2L283.7-239z"/>
	<path id="path-57" class="st48" d="M354.5-298.6c1.9,2.3,3.9,4.6,5.8,7l-72.7,58.8c-1.5-1.9-3-3.7-4.6-5.6L354.5-298.6z"/>
	<path id="path-58" class="st49" d="M425.2-358.2c2.3,2.8,4.6,5.5,6.9,8.4L359.4-291c-1.9-2.3-3.8-4.7-5.7-7L425.2-358.2z"/>
	<path id="path-59" class="st50" d="M496-417.8c0.9,1.1,1.8,2.2,2.7,3.2l-71.9,59.8c-0.8-0.9-1.5-1.8-2.3-2.8L496-417.8z"/>
	<path id="path-60" class="st12" d="M498.7-414.6c1.8,2.2,3.6,4.3,5.3,6.5l-72.7,58.8c-1.5-1.9-3-3.7-4.6-5.6L498.7-414.6z"/>
	<path id="path-61" class="st51" d="M216.4-175.3c0.4,0.5,0.8,0.9,1.1,1.4l-73,58.4c-0.3-0.3-0.5-0.6-0.8-0.9L216.4-175.3z"/>
	<path id="path-62" class="st52" d="M288.3-233.5c0.5,0.6,1,1.3,1.5,1.9l-73,58.4c-0.4-0.5-0.8-0.9-1.1-1.4L288.3-233.5z"/>
	<path id="path-63" class="st53" d="M360.2-291.7c0.6,0.8,1.3,1.6,1.9,2.3l-73,58.4c-0.5-0.6-1-1.3-1.5-1.9L360.2-291.7z"/>
	<path id="path-64" class="st54" d="M432.1-349.9c0.8,0.9,1.5,1.9,2.3,2.8l-73,58.4c-0.6-0.8-1.3-1.6-1.9-2.3L432.1-349.9z"/>
	<path id="path-65" class="st55" d="M504-408.1c0.9,1.1,1.8,2.2,2.6,3.3l-73,58.4c-0.8-0.9-1.5-1.9-2.3-2.8L504-408.1z"/>
	<path id="path-66" class="st56" d="M575.9-466.3c1,1.2,2,2.5,3,3.8l-73,58.4c-0.9-1.1-1.8-2.2-2.6-3.3L575.9-466.3z"/>
	<path id="path-67" class="st22" d="M217.6-173.8c11.3,14.1,21.2,29.4,29.6,45.4l-83,43.1c-5.5-10.7-12.1-20.8-19.6-30.2
		L217.6-173.8z"/>
	<path id="path-68" class="st57" d="M165-85.8C212.4,5.4,176.9,117.7,85.8,165c-60.9,31.7-134.3,27.2-190.9-11.6l52.9-77.1
		c42.1,28.9,99.7,18.2,128.6-24c19.3-28.2,21.5-64.7,5.8-95L165-85.8z"/>
	<path id="path-69" class="st58" d="M247.1-128.4C318,8.1,264.9,176.2,128.4,247.1c-51.9,27-111.1,36.9-169,28.4L-27,183
		C74.1,197.9,168.1,128,183,27c5.7-38.5-0.9-77.7-18.9-112.2L247.1-128.4z"/>
	<path id="path-70" class="st59" d="M329.2-171.1c22.7,43.6,36.4,91.3,40.5,140.4L276.5-23c-3-36.7-13.3-72.3-30.3-105L329.2-171.1z
		"/>
	<path id="path-71" class="st60" d="M411.3-213.7c27.9,53.6,45,112.2,50.4,172.4L368.5-33c-4.3-48-18-94.8-40.2-137.6L411.3-213.7z"
		/>
	<path id="path-72" class="st61" d="M493.4-256.4c30.1,57.9,49.7,120.5,58.1,185.2l-92.7,12c-6.9-53.8-23.3-105.9-48.3-154.1
		L493.4-256.4z"/>
	<path id="path-73" class="st62" d="M575.5-299c35.1,67.5,58,140.6,67.7,216l-92.7,12c-8.3-64.5-27.9-127.1-57.9-184.9L575.5-299z"
		/>
	<path id="path-74" class="st63" d="M657.5-341.7c30.4,58.5,52.8,120.7,66.7,185.2l-91.4,19.7c-12.2-56.3-31.8-110.7-58.3-161.8
		L657.5-341.7z"/>
	<path id="path-75" class="st12" d="M724.3-156.5c4.4,20.4,8,41,10.6,61.7l-92.7,12c-2.3-18.1-5.4-36.1-9.3-53.9L724.3-156.5z"/>
	<path id="path-76" class="st12" d="M551.4-71.2c0.9,7.2,1.7,14.3,2.4,21.5l-93.1,8.3c-0.5-6-1.2-12-2-17.9L551.4-71.2z"/>
	<path id="path-77" class="st12" d="M461.7-41.4c0.1,1,0.2,2,0.3,3l-93.2,7.7c-0.1-0.8-0.1-1.6-0.2-2.4L461.7-41.4z"/>
	<path id="path-78" class="st64" d="M369.7-30.7c17,204.2-134.8,383.5-339,400.4c-14.6,1.2-29.3,1.6-44,1l3.3-93.4
		c153.2,5.5,281.8-114.2,287.2-267.4c0.4-11,0.1-21.9-0.8-32.9L369.7-30.7z"/>
	<path id="path-79" class="st65" d="M461.9-38.4C481.3,195,323.5,406.2,94.2,453.8l-19-91.5c183.1-38,309-206.6,293.5-392.9
		L461.9-38.4z"/>
	<path id="path-80" class="st66" d="M554.1-46c21.1,254.2-133.5,490.1-374.9,572.3l-30.1-88.5c200.9-68.4,329.4-264.7,311.9-476.1
		L554.1-46z"/>
	<path id="path-81" class="st67" d="M646.3-53.7c0.1,1.4,0.2,2.8,0.3,4.2l-93.2,7.1c-0.1-1.2-0.2-2.4-0.3-3.6L646.3-53.7z"/>
	<path id="path-82" class="st68" d="M738.5-61.3c0.1,1.6,0.3,3.2,0.4,4.8l-93.2,7.1c-0.1-1.4-0.2-2.8-0.3-4.2L738.5-61.3z"/>
	<path id="path-83" class="st69" d="M830.6-69c0.1,1.8,0.3,3.6,0.4,5.4l-93.2,7.1c-0.1-1.6-0.2-3.2-0.4-4.8L830.6-69z"/>
	<path id="path-84" class="st70" d="M922.8-76.6c0.2,2,0.3,4,0.5,6l-93.2,7.1c-0.1-1.8-0.3-3.6-0.4-5.4L922.8-76.6z"/>
	<path id="path-85" class="st71" d="M1015-84.3c0.2,2.2,0.4,4.4,0.5,6.6l-93.2,7.1c-0.2-2-0.3-4-0.5-6L1015-84.3z"/>
	<path id="path-86" class="st72" d="M1107.2-91.9c0.2,2.4,0.4,4.8,0.6,7.2l-93.2,7.1c-0.2-2.2-0.3-4.4-0.5-6.6L1107.2-91.9z"/>
	<path id="path-87" class="st73" d="M646.6-49.5c3.8,49.1,1.9,98.4-5.5,147.1l-92.4-14.1c6.3-41.6,7.9-83.9,4.7-125.9L646.6-49.5z"
		/>
	<path id="path-88" class="st74" d="M738.8-56.5c4.3,56.1,2.2,112.4-6.3,168l-92.4-14.1c7.4-48.6,9.2-97.8,5.5-146.8L738.8-56.5z"/>
	<path id="path-89" class="st75" d="M831.1-63.6c4.5,59.5,2.7,119.2-5.5,178.3L733,101.9c7.3-52.4,8.9-105.5,4.9-158.3L831.1-63.6z"
		/>
	<path id="path-90" class="st76" d="M923.3-70.6c4.4,58,3.4,116.4-3.1,174.2l-92.9-10.5c5.9-52,6.8-104.4,2.8-156.6L923.3-70.6z"/>
	<path id="path-91" class="st77" d="M1015.5-77.7c4.9,63.8,3.7,128-3.4,191.6l-92.9-10.5c6.5-57.8,7.5-116,3.1-174L1015.5-77.7z"/>
	<path id="path-92" class="st78" d="M1107.8-84.7c5.3,69.6,4.1,139.6-3.7,209l-92.9-10.5c7.2-63.6,8.3-127.6,3.4-191.4L1107.8-84.7z
		"/>
	<path id="path-93" class="st12" d="M920.2,103.6c-0.9,8-1.9,15.9-3,23.9l-92.6-12.9c1-7.1,1.9-14.3,2.7-21.5L920.2,103.6z"/>
	<path id="path-94" class="st12" d="M825.6,114.7c-0.5,3.6-1,7.1-1.6,10.7l-92.4-14.1c0.5-3.2,0.9-6.3,1.4-9.5L825.6,114.7z"/>
	<path id="path-95" class="st79" d="M641.1,97.6c-31,203.7-157,380.5-339.3,476.4l-43.5-82.8c156.1-82.1,263.9-233.4,290.4-407.7
		L641.1,97.6z"/>
	<path id="path-96" class="st80" d="M732.6,111.5c-34.4,226-171.2,423.5-370.8,535.2l-45.6-81.6c174.4-97.5,293.9-270.1,324-467.6
		L732.6,111.5z"/>
	<path id="path-97" class="st81" d="M824,125.4c-38.7,254.3-192.6,476.4-417.1,602l-45.6-81.6c199.3-111.5,335.9-308.7,370.3-534.4
		L824,125.4z"/>
	<path id="path-98" class="st82" d="M915.5,139.4c-21.2,139.4-74,272.1-154.3,388l-76.9-53.2C756.5,369.9,803.9,250.6,823,125.3
		L915.5,139.4z"/>
	<path id="path-99" class="st12" d="M761.2,527.4c-80.3,115.9-186,211.9-309.1,280.8l-45.6-81.6c110.6-61.9,205.7-148.2,277.9-252.4
		L761.2,527.4z"/>
	<path id="path-100" class="st12" d="M361.8,646.7c-5.6,3.1-11.2,6.2-16.9,9.2l-43.5-82.8c5-2.6,9.9-5.3,14.8-8L361.8,646.7z"/>
	<path id="path-101" class="st12" d="M301.8,574c-29.9,15.7-60.9,29-92.8,39.9l-30.1-88.5c27.3-9.3,53.9-20.7,79.4-34.2L301.8,574z"
		/>
	<path id="path-102" class="st83" d="M179.2,526.3c-17.1,5.8-34.5,10.8-52.1,14.9l-21.4-91c14.6-3.4,29.1-7.6,43.3-12.4L179.2,526.3
		z"/>
	<path id="path-103" class="st84" d="M209,613.9c-19.9,6.8-40.2,12.6-60.7,17.4l-21.4-91c17.6-4.1,34.9-9.1,52-14.9L209,613.9z"/>
	<path id="path-104" class="st85" d="M238.8,701.5c-22.8,7.8-46,14.4-69.4,19.9l-21.4-91c20.5-4.8,40.7-10.6,60.6-17.4L238.8,701.5z
		"/>
	<path id="path-105" class="st86" d="M268.6,789c-23.9,8.1-48.2,15.2-72.8,21.1l-22-90.9c21.8-5.3,43.4-11.5,64.6-18.8L268.6,789z"
		/>
	<path id="path-106" class="st87" d="M298.4,876.6c-26.6,9.1-53.6,16.9-80.9,23.5l-22-90.9c24.5-5.9,48.8-13,72.7-21.1L298.4,876.6z
		"/>
	<path id="path-107" class="st88" d="M328.2,964.2c-27.2,9.2-54.7,17.3-82.5,24.3l-22.6-90.7c25.3-6.3,50.3-13.6,74.9-22
		L328.2,964.2z"/>
	<path id="path-108" class="st12" d="M245.7,988.4c-2.1,0.5-4.3,1.1-6.4,1.6l-22-90.9c1.9-0.5,3.9-0.9,5.8-1.4L245.7,988.4z"/>
	<path id="path-109" class="st12" d="M195.8,810.2c-1.8,0.4-3.5,0.8-5.3,1.3l-21.4-91c1.6-0.4,3.1-0.7,4.7-1.1L195.8,810.2z"/>
	<path id="path-110" class="st12" d="M127.1,541.3c-4.7,1.1-9.4,2.1-14.1,3.1l-19-91.5c3.9-0.8,7.8-1.7,11.7-2.6L127.1,541.3z"/>
	<path id="path-111" class="st89" d="M94.2,453.8c-34.4,7.1-69.6,10.4-104.7,9.6l2.1-93.5c28.1,0.6,56.1-1.9,83.6-7.6L94.2,453.8z"
		/>
	<path id="path-112" class="st90" d="M113,544.4c-20,4.2-40.3,7.2-60.7,9.1l-8.8-93.1c17-1.6,33.8-4.1,50.5-7.6L113,544.4z"/>
	<path id="path-113" class="st91" d="M131.8,635c-23.4,4.9-47,8.4-70.8,10.7l-8.8-93.1c20.3-1.9,40.6-5,60.6-9.1L131.8,635z"/>
	<path id="path-114" class="st92" d="M150.6,725.5c-23.6,4.9-47.4,8.6-71.3,11.2l-10-93c20.9-2.3,41.7-5.5,62.3-9.8L150.6,725.5z"/>
	<path id="path-115" class="st93" d="M169.4,816.1c-26.5,5.5-53.3,9.7-80.2,12.6l-10-93c23.9-2.6,47.7-6.3,71.2-11.2L169.4,816.1z"
		/>
	<path id="path-116" class="st94" d="M188.2,906.7c-25.5,5.3-51.3,9.5-77.2,12.6l-11.2-92.8c23.3-2.8,46.4-6.6,69.4-11.4
		L188.2,906.7z"/>
	<path id="path-117" class="st95" d="M207,997.2c-28.1,5.8-56.4,10.5-84.9,13.9l-11.2-92.8c25.9-3.1,51.6-7.3,77.1-12.6L207,997.2z"
		/>
	<path id="path-118" class="st12" d="M111,919.3c-4,0.5-8,0.9-12,1.4l-10-93c3.6-0.4,7.2-0.8,10.7-1.2L111,919.3z"/>
	<path id="path-119" class="st12" d="M79.3,736.7c-3.2,0.3-6.4,0.7-9.6,1l-8.8-93.1c2.8-0.3,5.6-0.5,8.4-0.8L79.3,736.7z"/>
	<path id="path-120" class="st96" d="M52.3,553.5c-9.6,0.9-19.2,1.6-28.8,2l-3.9-93.4c8-0.3,16-0.9,24-1.6L52.3,553.5z"/>
	<path id="path-121" class="st97" d="M61,645.6c-11.2,1.1-22.4,1.8-33.6,2.3l-3.9-93.4c9.6-0.4,19.2-1.1,28.8-2L61,645.6z"/>
	<path id="path-122" class="st98" d="M69.7,737.7c-12.8,1.2-25.6,2.1-38.4,2.6l-3.9-93.4c11.2-0.5,22.4-1.2,33.6-2.3L69.7,737.7z"/>
	<path id="path-123" class="st99" d="M78.4,829.8c-14.4,1.4-28.8,2.3-43.2,3l-3.9-93.4c12.8-0.5,25.6-1.4,38.4-2.6L78.4,829.8z"/>
	<path id="path-124" class="st100" d="M87.1,921.9c-16,1.5-32,2.6-48,3.3l-3.9-93.4c14.4-0.6,28.8-1.6,43.2-2.9L87.1,921.9z"/>
	<path id="path-125" class="st101" d="M95.8,1014c-17.6,1.7-35.2,2.9-52.8,3.6l-3.9-93.4c16-0.7,32-1.8,48-3.3L95.8,1014z"/>
	<path id="path-126" class="st102" d="M23.5,555.5C12.6,556,1.8,556.1-9,555.9l1.5-93.5c9,0.1,18,0,27-0.4L23.5,555.5z"/>
	<path id="path-127" class="st103" d="M27.4,647.9c-9.8,0.4-19.7,0.6-29.5,0.6l0.3-93.5c8.4,0,16.8-0.1,25.2-0.5L27.4,647.9z"/>
	<path id="path-128" class="st104" d="M31.3,740.3C20.1,740.8,8.8,741-2.4,741l0.3-93.5c9.8,0,19.6-0.2,29.4-0.6L31.3,740.3z"/>
	<path id="path-129" class="st105" d="M35.2,832.8c-12.6,0.5-25.3,0.8-37.9,0.7l0.3-93.5c11.2,0,22.4-0.2,33.6-0.7L35.2,832.8z"/>
	<path id="path-130" class="st106" d="M39.1,925.2C27.1,925.7,15,926,3,926l-0.3-93.5c10.8,0,21.6-0.3,32.4-0.7L39.1,925.2z"/>
	<path id="path-131" class="st107" d="M43,1017.6c-13.2,0.6-26.5,0.9-39.7,0.9L3,925c12,0,24-0.3,36.1-0.8L43,1017.6z"/>
	<path id="path-132" class="st12" d="M3,926c-2,0-4,0-6,0l0.3-93.5c1.8,0,3.6,0,5.4,0L3,926z"/>
	<path id="path-133" class="st12" d="M-2.1,648.5c-2.8,0-5.6,0-8.4-0.1l1.5-93.5c2.4,0,4.8,0.1,7.2,0.1L-2.1,648.5z"/>
	<path id="path-134" class="st12" d="M-9,555.9c-1.2,0-2.4,0-3.6-0.1l2.1-93.5c1,0,2,0,3,0.1L-9,555.9z"/>
	<path id="path-135" class="st12" d="M-10.5,463.4c-2,0-4-0.1-6-0.2l3.3-93.4c1.6,0.1,3.2,0.1,4.8,0.1L-10.5,463.4z"/>
	<path id="path-136" class="st22" d="M-13.3,370.8c-13.7-0.5-27.3-1.7-40.8-3.7l13.6-92.5c10.1,1.5,20.3,2.4,30.5,2.8L-13.3,370.8z"
		/>
	<path id="path-137" class="st22" d="M-40.6,275.5c-42-6.2-81.9-21.9-116.9-45.8l52.9-77.1c23.2,15.9,49.8,26.3,77.7,30.4
		L-40.6,275.5z"/>
	<path id="path-138" class="st22" d="M-105.2,153.4c-84.7-58.1-106.3-173.9-48.2-258.6C-118.7-155.8-61.3-186,0-186v93.5
		c-51.1,0-92.5,41.4-92.5,92.5c0,30.5,15,59,40.2,76.3L-105.2,153.4z"/>
	<text transform="matrix(6.123234e-17 1 -1 6.123234e-17 -2.4004 4)" class="st108 st109">Organism</text>
	<text transform="matrix(0.5191 -0.8547 0.8547 0.5191 52.1445 -81.2337)" class="st108 st109">Bacteria</text>
	<text transform="matrix(2.923508e-02 -0.9996 0.9996 2.923508e-02 7.9244 -188.8495)" class="st108 st109">Bacteroidetes</text>
	<text transform="matrix(2.923508e-02 -0.9996 0.9996 2.923508e-02 10.6286 -281.3094)" class="st108 st109">Bacteroidia</text>
	<g class="st110">
		<text transform="matrix(2.923508e-02 -0.9996 0.9996 2.923508e-02 13.3329 -373.7704)" class="st111 st108 st109">Bacteroidales</text>
	</g>
	<g class="st110">
		<text transform="matrix(6.497535e-03 -1 1 6.497535e-03 5.4311 -466.4742)" class="st111 st108 st109">Bacteroidaceae</text>
	</g>
	<g class="st110">
		<text transform="matrix(6.497535e-03 -1 1 6.497535e-03 6.0321 -558.9722)" class="st111 st108 st109">Bacteroides</text>
	</g>
	<g class="st110">
		<text transform="matrix(1.949164e-02 -0.9998 0.9998 1.949164e-02 11.4924 -466.3646)" class="st111 st108 st109">Prevotellaceae</text>
	</g>
	<g class="st110">
		<text transform="matrix(1.949164e-02 -0.9998 0.9998 1.949164e-02 13.2954 -558.847)" class="st111 st108 st109">Prevotella</text>
	</g>
	<g class="st110">
		<text transform="matrix(3.897574e-02 -0.9992 0.9992 3.897574e-02 20.5804 -466.0518)" class="st111 st108 st109">Rikenellaceae</text>
	</g>
	<g class="st110">
		<text transform="matrix(3.897574e-02 -0.9992 0.9992 3.897574e-02 24.1856 -558.4815)" class="st111 st108 st109">Alistipes</text>
	</g>
	<g class="st110">
		<text transform="matrix(3.897574e-02 -0.9992 0.9992 3.897574e-02 27.1913 -650.9346)" class="st111 st108 st113">Alistipes indistinctus</text>
	</g>
	<text transform="matrix(0.2851 -0.9585 0.9585 0.2851 56.1901 -180.4699)" class="st108 st109">Firmicutes</text>
	<text transform="matrix(0.2789 -0.9603 0.9603 0.2789 80.8143 -269.6613)" class="st108 st109">Clostridia</text>
	<g class="st110">
		<text transform="matrix(0.2758 -0.9612 0.9612 0.2758 105.4473 -358.8353)" class="st111 st108 st109">Clostridiales</text>
	</g>
	<g class="st110">
		<text transform="matrix(0.1425 -0.9898 0.9898 0.1425 68.8336 -461.4001)" class="st111 st108 st109">Clostridiaceae</text>
	</g>
	<g class="st110">
		<text transform="matrix(0.1425 -0.9898 0.9898 0.1425 82.0112 -552.9568)" class="st111 st108 st109">Clostridium</text>
	</g>
	<g class="st110">
		<text transform="matrix(0.2758 -0.9612 0.9612 0.2758 130.7644 -447.803)" class="st111 st108 st112">Lachnospiraceae</text>
	</g>
	<g class="st110">
		<text transform="matrix(0.2286 -0.9735 0.9735 0.2286 130.1378 -543.6457)" class="st111 st108 st109">Dorea</text>
	</g>
	<g class="st110">
		<text transform="matrix(0.2413 -0.9705 0.9705 0.2413 137.1914 -541.9094)" class="st111 st108 st109">Roseburia</text>
	</g>
	<g class="st110">
		<text transform="matrix(0.2349 -0.972 0.972 0.2349 155.2055 -632.7465)" class="st111 st108 st112">Roseburia faecis</text>
	</g>
	<text transform="matrix(0.4995 -0.8663 0.8663 0.4995 96.4904 -162.5308)" class="st108 st109">Fusobacteria</text>
	<text transform="matrix(0.4995 -0.8663 0.8663 0.4995 142.697 -242.6636)" class="st108 st109">Fusobacteriia</text>
	<g class="st110">
		<text transform="matrix(0.4995 -0.8663 0.8663 0.4995 188.7304 -322.896)" class="st111 st108 st112">Fusobacteriales</text>
	</g>
	<g class="st110">
		<text transform="matrix(0.4995 -0.8663 0.8663 0.4995 234.7639 -403.1284)" class="st111 st108 st115">Fusobacteriaceae</text>
	</g>
	<g class="st110">
		<text transform="matrix(0.4995 -0.8663 0.8663 0.4995 281.3169 -483.0611)" class="st111 st108 st109">Fusobacterium</text>
	</g>
	<text transform="matrix(0.6431 -0.7658 0.7658 0.6431 123.3771 -143.1955)" class="st108 st109">Proteobacteria</text>
	<text transform="matrix(0.5302 -0.8479 0.8479 0.5302 150.7674 -237.728)" class="st108 st113">Alphaproteobacteria</text>
	<g class="st110">
		<text transform="matrix(0.5302 -0.8479 0.8479 0.5302 200.1468 -315.9468)" class="st111 st108 st112">Rhodobacterales</text>
	</g>
	<g class="st110">
		<text transform="matrix(0.5302 -0.8479 0.8479 0.5302 249.0174 -394.4829)" class="st111 st108 st115">Rhodobacteraceae</text>
	</g>
	<g class="st110">
		<text transform="matrix(0.5302 -0.8479 0.8479 0.5302 298.3968 -472.7007)" class="st111 st108 st109">Maritimibacter</text>
	</g>
	<text transform="matrix(0.6381 -0.77 0.77 0.6381 180.85 -215.7273)" class="st108 st114">Gammaproteobacteria</text>
	<g class="st110">
		<text transform="matrix(0.5601 -0.8284 0.8284 0.5601 211.3074 -308.594)" class="st111 st108 st112">Enterobacterales</text>
	</g>
	<g class="st110">
		<text transform="matrix(0.5601 -0.8284 0.8284 0.5601 262.7874 -385.4456)" class="st111 st108 st113">Enterobacteriaceae</text>
	</g>
	<g class="st110">
		<text transform="matrix(0.5708 -0.8211 0.8211 0.5708 215.1355 -305.9359)" class="st111 st108 st115">Pseudomonadales</text>
	</g>
	<g class="st110">
		<text transform="matrix(0.5708 -0.8211 0.8211 0.5708 267.774 -381.9984)" class="st111 st108 st113">Pseudomonadaceae</text>
	</g>
	<g class="st110">
		<text transform="matrix(0.5708 -0.8211 0.8211 0.5708 321.0689 -457.6038)" class="st111 st108 st109">Pseudomonas</text>
	</g>
	<g class="st110">
		<text transform="matrix(0.5708 -0.8211 0.8211 0.5708 372.8863 -534.2376)" class="st111 st108" style="font-size:6px;">Pseudomonas aeruginosa group</text>
	</g>
	<g class="st110">
		<text transform="matrix(0.5682 -0.8229 0.8229 0.5682 423.8687 -611.4516)" class="st111 st108" style="font-size:7px;">Pseudomonas aeruginosa</text>
	</g>
	<g class="st110">
		<text transform="matrix(0.6204 -0.7843 0.7843 0.6204 233.5985 -292.0821)" class="st111 st108 st115">Xanthomonadales</text>
	</g>
	<g class="st110">
		<text transform="matrix(0.6204 -0.7843 0.7843 0.6204 290.8285 -364.752)" class="st111 st108 st113">Xanthomonadaceae</text>
	</g>
	<g class="st110">
		<text transform="matrix(0.6178 -0.7863 0.7863 0.6178 347.2648 -438.0569)" class="st111 st108 st109">Lysobacter</text>
	</g>
	<g class="st110">
		<text transform="matrix(0.592 -0.806 0.806 0.592 387.2886 -523.8934)" class="st111 st108 st115">Lysobacter capsici</text>
	</g>
	<g class="st110">
		<text transform="matrix(0.6076 -0.7943 0.7943 0.6076 396.95 -516.6087)" class="st111 st108" style="font-size:7px;">Lysobacter enzymogenes</text>
	</g>
	<text transform="matrix(0.771 -0.6368 0.6368 0.771 147.2492 -118.509)" class="st108 st109">Synergistetes</text>
	<text transform="matrix(0.771 -0.6368 0.6368 0.771 218.5678 -177.4152)" class="st108 st109">Synergistia</text>
	<g class="st110">
		<text transform="matrix(0.771 -0.6368 0.6368 0.771 289.8861 -236.3215)" class="st111 st108 st109">Synergistales</text>
	</g>
	<g class="st110">
		<text transform="matrix(0.771 -0.6368 0.6368 0.771 361.2045 -295.2277)" class="st111 st108 st109">Synergistaceae</text>
	</g>
	<g class="st110">
		<text transform="matrix(0.7669 -0.6418 0.6418 0.7669 429.9561 -357.2433)" class="st111 st108 st115">Thermanaerovibrio</text>
	</g>
	<text transform="matrix(0.7792 -0.6268 0.6268 0.7792 148.7768 -116.5856)" class="st108 st109">Thermotogae</text>
	<text transform="matrix(0.7792 -0.6268 0.6268 0.7792 220.8546 -174.5602)" class="st108 st109">Thermotogae</text>
	<g class="st110">
		<text transform="matrix(0.7792 -0.6268 0.6268 0.7792 292.9325 -232.5343)" class="st111 st108 st109">Thermotogales</text>
	</g>
	<g class="st110">
		<text transform="matrix(0.7792 -0.6268 0.6268 0.7792 364.8852 -290.6647)" class="st111 st108 st112">Thermotogaceae</text>
	</g>
	<g class="st110">
		<text transform="matrix(0.7792 -0.6268 0.6268 0.7792 436.7123 -348.9508)" class="st111 st108 st113">Pseudothermotoga</text>
	</g>
	<g class="st110">
		<text transform="matrix(0.7792 -0.6268 0.6268 0.7792 508.4142 -407.3927)" class="st111 st108" style="font-size:6px;">Pseudothermotoga thermarum</text>
	</g>
	<text transform="matrix(0.6627 0.7488 -0.7488 0.6627 62.1585 73.854)" class="st116 st108 st109">Eukaryota</text>
	<text transform="matrix(0.8145 0.5801 -0.5801 0.8145 152.5518 111.6008)" class="st116 st108 st109">Fungi</text>
	<text transform="matrix(0.9608 -0.2773 0.2773 0.9608 271.0676 -75.9567)" class="st116 st108 st112">Chytridiomycota</text>
	<g class="st110">
		<text transform="matrix(0.9599 -0.2805 0.2805 0.9599 359.5511 -102.9712)" class="st117 st108 st115">Chytridiomycetes</text>
	</g>
	<g class="st110">
		<text transform="matrix(0.9542 -0.2991 0.2991 0.9542 445.8604 -137.2462)" class="st117 st108 st109">Rhizophydiales</text>
	</g>
	<g class="st110">
		<text transform="matrix(0.9542 -0.2991 0.2991 0.9542 534.0059 -165.2958)" class="st111 st108 st115">Batrachochytrium</text>
	</g>
	<g class="st110">
		<text transform="matrix(0.9407 -0.3391 0.3391 0.9407 613.2976 -219.8178)" class="st111 st108" style="font-size:6px;">Batrachochytrium dendrobatidis</text>
	</g>
	<text transform="matrix(0.7236 0.6903 -0.6903 0.7236 202.0264 196.0439)" class="st116 st108 st109">Dikarya</text>
	<g class="st110">
		<text transform="matrix(0.8011 0.5985 -0.5985 0.8011 298.181 225.765)" class="st111 st108 st109">Ascomycota</text>
	</g>
	<g class="st110">
		<text transform="matrix(0.8365 0.5479 -0.5479 0.8365 389.0268 257.4588)" class="st111 st108 st112">Pezizomycotina</text>
	</g>
	<g class="st110">
		<text transform="matrix(0.9968 -7.951166e-02 7.951166e-02 0.9968 557.3892 -42.4534)" class="st117 st108 st115">Dothideomycetes</text>
	</g>
	<g class="st110">
		<text transform="matrix(0.9968 -7.951166e-02 7.951166e-02 0.9968 649.5804 -50.0075)" class="st111 st108 st113">Dothideomycetidae</text>
	</g>
	<g class="st110">
		<text transform="matrix(0.9968 -7.951166e-02 7.951166e-02 0.9968 741.8353 -56.7643)" class="st111 st108 st109">Capnodiales</text>
	</g>
	<g class="st110">
		<text transform="matrix(0.9968 -7.951166e-02 7.951166e-02 0.9968 834.0266 -64.3185)" class="st111 st108 st112">Cladosporiaceae</text>
	</g>
	<g class="st110">
		<text transform="matrix(0.9968 -7.951166e-02 7.951166e-02 0.9968 926.2018 -72.072)" class="st111 st108 st113">Rachicladosporium</text>
	</g>
	<g class="st110">
		
			<text transform="matrix(0.9968 -7.951166e-02 7.951166e-02 0.9968 1018.3613 -80.025)" class="st111 st108" style="font-size:6px;">Rachicladosporium antarcticum</text>
	</g>
	<g class="st110">
		<text transform="matrix(0.9993 3.735255e-02 -3.735255e-02 0.9993 558.5202 23.2784)" class="st111 st108 st109">Eurotiomycetes</text>
	</g>
	<g class="st110">
		<text transform="matrix(0.9993 3.735255e-02 -3.735255e-02 0.9993 650.9706 26.3338)" class="st111 st108 st115">Eurotiomycetidae</text>
	</g>
	<g class="st110">
		<text transform="matrix(0.9995 3.085873e-02 -3.085873e-02 0.9995 743.5716 25.3578)" class="st111 st108 st109">Onygenales</text>
	</g>
	<g class="st110">
		<text transform="matrix(0.9998 1.786747e-02 -1.786747e-02 0.9998 836.3236 17.3457)" class="st111 st108 st109">Onygenaceae</text>
	</g>
	<g class="st110">
		<text transform="matrix(0.9998 1.786747e-02 -1.786747e-02 0.9998 928.8088 18.9985)" class="st111 st108 st109">Uncinocarpus</text>
	</g>
	<g class="st110">
		<text transform="matrix(0.9998 1.786747e-02 -1.786747e-02 0.9998 1021.3048 20.0513)" class="st111 st108 st113">Uncinocarpus reesii</text>
	</g>
	<g class="st110">
		<text transform="matrix(0.8145 0.5801 -0.5801 0.8145 453.9238 326.2514)" class="st111 st108 st109">Leotiomycetes</text>
	</g>
	<g class="st110">
		<text transform="matrix(0.822 0.5695 -0.5695 0.822 534.387 372.6755)" class="st111 st108 st115">Pseudeurotiaceae</text>
	</g>
	<g class="st110">
		<text transform="matrix(0.822 0.5695 -0.5695 0.822 610.5344 425.1902)" class="st111 st108 st113">Pseudogymnoascus</text>
	</g>
	<g class="st110">
		<text transform="matrix(0.9292 0.3695 -0.3695 0.9292 776.8536 310.2131)" class="st111 st108" style="font-size:6px;">Pseudogymnoascus verrucosus</text>
	</g>
	<g class="st110">
		<text transform="matrix(0.2758 0.9612 -0.9612 0.2758 126.7267 448.9615)" class="st117 st108 st115">Saccharomycotina</text>
	</g>
	<g class="st110">
		<text transform="matrix(0.2758 0.9612 -0.9612 0.2758 152.2365 537.8746)" class="st117 st108 st115">Saccharomycetes</text>
	</g>
	<g class="st110">
		<text transform="matrix(0.2758 0.9612 -0.9612 0.2758 177.9376 626.7325)" class="st117 st108 st113">Saccharomycetales</text>
	</g>
	<g class="st110">
		<text transform="matrix(0.2789 0.9603 -0.9603 0.2789 205.5793 715.0365)" class="st117 st108 st115">Phaffomycetaceae</text>
	</g>
	<g class="st110">
		<text transform="matrix(0.2789 0.9603 -0.9603 0.2789 230.9933 803.9778)" class="st111 st108 st109">Cyberlindnera</text>
	</g>
	<g class="st110">
		<text transform="matrix(0.282 0.9594 -0.9594 0.282 260.2656 891.7993)" class="st111 st108 st113">Cyberlindnera jadinii</text>
	</g>
	<g class="st110">
		<text transform="matrix(9.084112e-02 0.9959 -0.9959 9.084112e-02 31.5841 372.6717)" class="st117 st108 st109">Basidiomycota</text>
	</g>
	<g class="st110">
		<text transform="matrix(0.1489 0.9889 -0.9889 0.1489 67.2814 461.6279)" class="st117 st108 st112">Agaricomycotina</text>
	</g>
	<g class="st110">
		<text transform="matrix(0.1489 0.9889 -0.9889 0.1489 81.0538 553.0969)" class="st117 st108 st112">Tremellomycetes</text>
	</g>
	<g class="st110">
		<text transform="matrix(0.1553 0.9879 -0.9879 0.1553 99.0123 643.9361)" class="st117 st108 st112">Trichosporonales</text>
	</g>
	<g class="st110">
		<text transform="matrix(0.1553 0.9879 -0.9879 0.1553 113.5757 735.2826)" class="st117 st108 st115">Trichosporonaceae</text>
	</g>
	<g class="st110">
		<text transform="matrix(0.1617 0.9868 -0.9868 0.1617 133.5082 825.7791)" class="st117 st108 st113">Cutaneotrichosporon</text>
	</g>
	<g class="st110">
		<text transform="matrix(0.1617 0.9868 -0.9868 0.1617 149.2572 916.932)" class="st117 st108" style="font-size:5px;">Cutaneotrichosporon oleaginosum</text>
	</g>
	<g class="st110">
		<text transform="matrix(6.817195e-02 0.9977 -0.9977 6.817195e-02 29.807 465.5511)" class="st117 st108 st115">Pucciniomycotina</text>
	</g>
	<g class="st110">
		<text transform="matrix(6.817195e-02 0.9977 -0.9977 6.817195e-02 35.7132 557.8632)" class="st117 st108 st109">Mixiomycetes</text>
	</g>
	<g class="st110">
		<text transform="matrix(6.817195e-02 0.9977 -0.9977 6.817195e-02 42.0199 650.1479)" class="st117 st108 st109">Mixiales</text>
	</g>
	<g class="st110">
		<text transform="matrix(6.817195e-02 0.9977 -0.9977 6.817195e-02 48.3255 742.4327)" class="st111 st108 st109">Mixiaceae</text>
	</g>
	<g class="st110">
		<text transform="matrix(6.817195e-02 0.9977 -0.9977 6.817195e-02 54.6312 834.7176)" class="st111 st108 st109">Mixia</text>
	</g>
	<g class="st110">
		<text transform="matrix(6.817195e-02 0.9977 -0.9977 6.817195e-02 61.1371 926.9888)" class="st111 st108 st112">Mixia osmundae</text>
	</g>
	<g class="st110">
		<text transform="matrix(1.299480e-02 0.9999 -0.9999 1.299480e-02 4.0617 466.4866)" class="st117 st108 st115">Ustilaginomycotina</text>
	</g>
	<g class="st110">
		<text transform="matrix(1.949164e-02 0.9998 -0.9998 1.949164e-02 8.8971 558.9328)" class="st117 st108 st115">Ustilaginomycetes</text>
	</g>
	<g class="st110">
		<text transform="matrix(1.949164e-02 0.9998 -0.9998 1.949164e-02 10.2995 651.423)" class="st117 st108 st109">Ustilaginales</text>
	</g>
	<g class="st110">
		<text transform="matrix(1.949164e-02 0.9998 -0.9998 1.949164e-02 12.1022 743.9055)" class="st111 st108 st109">Ustilaginaceae</text>
	</g>
	<g class="st110">
		<text transform="matrix(2.273970e-02 0.9997 -0.9997 2.273970e-02 16.622 836.3383)" class="st111 st108 st109">Moesziomyces</text>
	</g>
	<g class="st110">
		
			<text transform="matrix(2.273970e-02 0.9997 -0.9997 2.273970e-02 19.7256 928.7915)" class="st111 st108" style="font-size:7px;">Moesziomyces antarcticus</text>
	</g>
</g>
</svg>
